<?xml version="1.0" encoding="UTF-8"?>
<svg xmlns="http://www.w3.org/2000/svg" viewBox="0 0 620 160" role="img" aria-labelledby="title desc">
  <title id="title">Wirestead monochrome horizontal logo</title>
  <desc id="desc">Wirestead symbol and wordmark in one color.</desc>
  <g transform="translate(24 32)" fill="#071426">
    <path d="M12 8h46.5c2.2 0 4.3.9 5.8 2.4l26.9 26.9a6.6 6.6 0 0 1 0 9.4L64.3 73.6a8.1 8.1 0 0 1-11.5 0l-6.1-6.1a8.1 8.1 0 0 1 0-11.5l9.9-9.9H12a8 8 0 0 1-8-8V16a8 8 0 0 1 8-8Z"/>
    <path d="M84 88H37.5c-2.2 0-4.3-.9-5.8-2.4L4.8 58.7a6.6 6.6 0 0 1 0-9.4l26.9-26.9a8.1 8.1 0 0 1 11.5 0l6.1 6.1a8.1 8.1 0 0 1 0 11.5l-9.9 9.9H84a8 8 0 0 1 8 8V80a8 8 0 0 1-8 8Z"/>
  </g>
  <text x="140" y="106" fill="#071426"
        font-family="Nimbus Sans, Arial, sans-serif"
        font-size="68" font-weight="700" letter-spacing="-2.1">wirestead</text>
</svg>
