<?xml version="1.0" encoding="UTF-8" standalone="no"?>
<!DOCTYPE svg PUBLIC "-//W3C//DTD SVG 1.1//EN"
 "http://www.w3.org/Graphics/SVG/1.1/DTD/svg11.dtd">
<!-- Generated by graphviz version 2.43.0 (0)
 -->
<!-- Title: unilink::interface::Channel Pages: 1 -->
<!--zoomable 179 -->

<svg id="main" version="1.1" xmlns="http://www.w3.org/2000/svg" xmlns:xlink="http://www.w3.org/1999/xlink" xml:space="preserve" onload="init(evt)">
<style type="text/css"><![CDATA[
.node, .edge {opacity: 0.7;}
.node.selected, .edge.selected {opacity: 1;}
.edge:hover path { stroke: red; }
.edge:hover polygon { stroke: red; fill: red; }
]]></style>

<defs>
  <circle id="rim" cx="0" cy="0" r="7"/>
  <circle id="rim2" cx="0" cy="0" r="3.5"/>
  <g id="zoomPlus">
    <use xlink:href="#rim" fill="#404040"><set attributeName="fill" to="#808080" begin="zoomplus.mouseover" end="zoomplus.mouseout"/></use>
    <path d="M-4,0h8M0,-4v8" fill="none" stroke="white" stroke-width="1.5" pointer-events="none"/>
  </g>
  <g id="zoomMin">
    <use xlink:href="#rim" fill="#404040"><set attributeName="fill" to="#808080" begin="zoomminus.mouseover" end="zoomminus.mouseout"/></use>
    <path d="M-4,0h8" fill="none" stroke="white" stroke-width="1.5" pointer-events="none"/>
  </g>
  <g id="arrowUp" transform="translate(30 24)">
    <use xlink:href="#rim"/>
    <path pointer-events="none" fill="none" stroke="white" stroke-width="1.5" d="M0,-3.0v7 M-2.5,-0.5L0,-3.0L2.5,-0.5"/>
  </g>
  <g id="arrowRight" transform="rotate(90) translate(36 -43)">
    <use xlink:href="#rim"/>
    <path pointer-events="none" fill="none" stroke="white" stroke-width="1.5" d="M0,-3.0v7 M-2.5,-0.5L0,-3.0L2.5,-0.5"/>
  </g>
  <g id="arrowDown" transform="rotate(180) translate(-30 -48)">
    <use xlink:href="#rim"/>
    <path pointer-events="none" fill="none" stroke="white" stroke-width="1.5" d="M0,-3.0v7 M-2.5,-0.5L0,-3.0L2.5,-0.5"/>
  </g>
  <g id="arrowLeft" transform="rotate(270) translate(-36 17)">
    <use xlink:href="#rim"/>
    <path pointer-events="none" fill="none" stroke="white" stroke-width="1.5" d="M0,-3.0v7 M-2.5,-0.5L0,-3.0L2.5,-0.5"/>
  </g>
  <g id="resetDef">
    <use xlink:href="#rim2" fill="#404040"><set attributeName="fill" to="#808080" begin="reset.mouseover" end="reset.mouseout"/></use>
  </g>
</defs>
<script type="application/ecmascript">
var viewWidth = 668;
var viewHeight = 179;
var sectionId = 'dynsection-0';
</script>
<script type="application/ecmascript" xlink:href="svg.min.js"/>
<svg id="graph" class="graph">
<g id="viewport">
<title>unilink::interface::Channel</title>
<!-- Node1 -->
<g id="Node000001" class="node">
<title>Node1</title>
<g id="a_Node000001"><a xlink:title=" ">
<polygon fill="#999999" stroke="transparent" points="374.5,-171 281.5,-171 281.5,-111 374.5,-111 374.5,-171"/>
<text text-anchor="start" x="287" y="-159" font-family="Helvetica,sans-Serif" font-size="10.00">unilink::interface</text>
<text text-anchor="start" x="305.5" y="-148" font-family="Helvetica,sans-Serif" font-size="10.00">::Channel</text>
<text text-anchor="start" x="326.5" y="-133" font-family="Helvetica,sans-Serif" font-size="10.00"> </text>
<text text-anchor="start" x="326.5" y="-118" font-family="Helvetica,sans-Serif" font-size="10.00"> </text>
<polygon fill="#666666" stroke="#666666" points="282,-143 282,-143 375,-143 375,-143 282,-143"/>
<polygon fill="#666666" stroke="#666666" points="282,-128 282,-128 375,-128 375,-128 282,-128"/>
<polygon fill="none" stroke="#666666" points="281.5,-111 281.5,-171 374.5,-171 374.5,-111 281.5,-111"/>
</a>
</g>
</g>
<!-- Node2 -->
<g id="Node000002" class="node">
<title>Node2</title>
<g id="a_Node000002"><a xlink:href="classunilink_1_1transport_1_1Serial.html" target="_top" xlink:title="Serial Transport implementation.">
<polygon fill="white" stroke="transparent" points="94,-67.5 0,-67.5 0,-7.5 94,-7.5 94,-67.5"/>
<text text-anchor="start" x="5" y="-55.5" font-family="Helvetica,sans-Serif" font-size="10.00">unilink::transport</text>
<text text-anchor="start" x="30" y="-44.5" font-family="Helvetica,sans-Serif" font-size="10.00">::Serial</text>
<text text-anchor="start" x="45" y="-29.5" font-family="Helvetica,sans-Serif" font-size="10.00"> </text>
<text text-anchor="start" x="45" y="-14.5" font-family="Helvetica,sans-Serif" font-size="10.00"> </text>
<polygon fill="#666666" stroke="#666666" points="0,-39.5 0,-39.5 94,-39.5 94,-39.5 0,-39.5"/>
<polygon fill="#666666" stroke="#666666" points="0,-24.5 0,-24.5 94,-24.5 94,-24.5 0,-24.5"/>
<polygon fill="none" stroke="#666666" points="0,-7.5 0,-67.5 94,-67.5 94,-7.5 0,-7.5"/>
</a>
</g>
</g>
<!-- Node1&#45;&gt;Node2 -->
<g id="edge1_Node000001_Node000002" class="edge">
<title>Node1&#45;&gt;Node2</title>
<g id="a_edge1_Node000001_Node000002"><a xlink:title=" ">
<path fill="none" stroke="#63b8ff" d="M271.43,-128.56C224.9,-118.01 157.93,-100.16 103,-75 98.25,-72.83 93.44,-70.29 88.74,-67.58"/>
<polygon fill="none" stroke="#63b8ff" points="270.8,-132.01 281.33,-130.77 272.33,-125.17 270.8,-132.01"/>
</a>
</g>
</g>
<!-- Node3 -->
<g id="Node000003" class="node">
<title>Node3</title>
<g id="a_Node000003"><a xlink:href="classunilink_1_1transport_1_1TcpClient.html" target="_top" xlink:title=" ">
<polygon fill="white" stroke="transparent" points="206,-67.5 112,-67.5 112,-7.5 206,-7.5 206,-67.5"/>
<text text-anchor="start" x="117" y="-55.5" font-family="Helvetica,sans-Serif" font-size="10.00">unilink::transport</text>
<text text-anchor="start" x="133.5" y="-44.5" font-family="Helvetica,sans-Serif" font-size="10.00">::TcpClient</text>
<text text-anchor="start" x="157" y="-29.5" font-family="Helvetica,sans-Serif" font-size="10.00"> </text>
<text text-anchor="start" x="157" y="-14.5" font-family="Helvetica,sans-Serif" font-size="10.00"> </text>
<polygon fill="#bfbfbf" stroke="#bfbfbf" points="112,-39.5 112,-39.5 206,-39.5 206,-39.5 112,-39.5"/>
<polygon fill="#bfbfbf" stroke="#bfbfbf" points="112,-24.5 112,-24.5 206,-24.5 206,-24.5 112,-24.5"/>
<polygon fill="none" stroke="#bfbfbf" points="112,-7.5 112,-67.5 206,-67.5 206,-7.5 112,-7.5"/>
</a>
</g>
</g>
<!-- Node1&#45;&gt;Node3 -->
<g id="edge2_Node000001_Node000003" class="edge">
<title>Node1&#45;&gt;Node3</title>
<g id="a_edge2_Node000001_Node000003"><a xlink:title=" ">
<path fill="none" stroke="#63b8ff" d="M272.61,-108.95C254.15,-98.39 233.57,-86.38 215,-75 211.14,-72.64 207.16,-70.14 203.18,-67.62"/>
<polygon fill="none" stroke="#63b8ff" points="271.06,-112.1 281.48,-114.01 274.52,-106.02 271.06,-112.1"/>
</a>
</g>
</g>
<!-- Node4 -->
<g id="Node000004" class="node">
<title>Node4</title>
<g id="a_Node000004"><a xlink:href="classunilink_1_1transport_1_1TcpServer.html" target="_top" xlink:title="Thread&#45;safe TCP Server implementation.">
<polygon fill="white" stroke="transparent" points="318,-67.5 224,-67.5 224,-7.5 318,-7.5 318,-67.5"/>
<text text-anchor="start" x="229" y="-55.5" font-family="Helvetica,sans-Serif" font-size="10.00">unilink::transport</text>
<text text-anchor="start" x="244" y="-44.5" font-family="Helvetica,sans-Serif" font-size="10.00">::TcpServer</text>
<text text-anchor="start" x="269" y="-29.5" font-family="Helvetica,sans-Serif" font-size="10.00"> </text>
<text text-anchor="start" x="269" y="-14.5" font-family="Helvetica,sans-Serif" font-size="10.00"> </text>
<polygon fill="#666666" stroke="#666666" points="224,-39.5 224,-39.5 318,-39.5 318,-39.5 224,-39.5"/>
<polygon fill="#666666" stroke="#666666" points="224,-24.5 224,-24.5 318,-24.5 318,-24.5 224,-24.5"/>
<polygon fill="none" stroke="#666666" points="224,-7.5 224,-67.5 318,-67.5 318,-7.5 224,-7.5"/>
</a>
</g>
</g>
<!-- Node1&#45;&gt;Node4 -->
<g id="edge3_Node000001_Node000004" class="edge">
<title>Node1&#45;&gt;Node4</title>
<g id="a_edge3_Node000001_Node000004"><a xlink:title=" ">
<path fill="none" stroke="#63b8ff" d="M306.67,-102.02C300.27,-90.63 293.36,-78.31 287.34,-67.59"/>
<polygon fill="none" stroke="#63b8ff" points="303.72,-103.91 311.67,-110.91 309.82,-100.48 303.72,-103.91"/>
</a>
</g>
</g>
<!-- Node5 -->
<g id="Node000005" class="node">
<title>Node5</title>
<g id="a_Node000005"><a xlink:href="classunilink_1_1transport_1_1UdpChannel.html" target="_top" xlink:title="UDP Transport implementation with 1:N support.">
<polygon fill="white" stroke="transparent" points="436,-75 336,-75 336,0 436,0 436,-75"/>
<text text-anchor="start" x="344" y="-62.5" font-family="Helvetica,sans-Serif" font-size="10.00">unilink::transport</text>
<text text-anchor="start" x="353" y="-51.5" font-family="Helvetica,sans-Serif" font-size="10.00">::UdpChannel</text>
<text text-anchor="start" x="384" y="-36.5" font-family="Helvetica,sans-Serif" font-size="10.00"> </text>
<text text-anchor="start" x="340" y="-21.5" font-family="Helvetica,sans-Serif" font-size="10.00">+</text>
<text text-anchor="start" x="353" y="-21.5" font-family="Helvetica,sans-Serif" font-size="10.00">local_endpoint()</text>
<text text-anchor="start" x="340" y="-6.5" font-family="Helvetica,sans-Serif" font-size="10.00">+</text>
<text text-anchor="start" x="353" y="-6.5" font-family="Helvetica,sans-Serif" font-size="10.00">get_executor()</text>
<polygon fill="#666666" stroke="#666666" points="336,-46.5 336,-46.5 436,-46.5 436,-46.5 336,-46.5"/>
<polygon fill="#666666" stroke="#666666" points="336,-31.5 336,-31.5 436,-31.5 436,-31.5 336,-31.5"/>
<polygon fill="none" stroke="#666666" points="336,0 336,-75 436,-75 436,0 336,0"/>
</a>
</g>
</g>
<!-- Node1&#45;&gt;Node5 -->
<g id="edge4_Node000001_Node000005" class="edge">
<title>Node1&#45;&gt;Node5</title>
<g id="a_edge4_Node000001_Node000005"><a xlink:title=" ">
<path fill="none" stroke="#63b8ff" d="M349.71,-102.01C354.72,-93.23 360.05,-83.91 365.03,-75.19"/>
<polygon fill="none" stroke="#63b8ff" points="346.54,-100.5 344.62,-110.91 352.62,-103.97 346.54,-100.5"/>
</a>
</g>
</g>
<!-- Node6 -->
<g id="Node000006" class="node">
<title>Node6</title>
<g id="a_Node000006"><a xlink:href="classunilink_1_1transport_1_1UdsClient.html" target="_top" xlink:title="Thread&#45;safe UDS Client implementation.">
<polygon fill="white" stroke="transparent" points="548,-67.5 454,-67.5 454,-7.5 548,-7.5 548,-67.5"/>
<text text-anchor="start" x="459" y="-55.5" font-family="Helvetica,sans-Serif" font-size="10.00">unilink::transport</text>
<text text-anchor="start" x="474" y="-44.5" font-family="Helvetica,sans-Serif" font-size="10.00">::UdsClient</text>
<text text-anchor="start" x="499" y="-29.5" font-family="Helvetica,sans-Serif" font-size="10.00"> </text>
<text text-anchor="start" x="499" y="-14.5" font-family="Helvetica,sans-Serif" font-size="10.00"> </text>
<polygon fill="#666666" stroke="#666666" points="454,-39.5 454,-39.5 548,-39.5 548,-39.5 454,-39.5"/>
<polygon fill="#666666" stroke="#666666" points="454,-24.5 454,-24.5 548,-24.5 548,-24.5 454,-24.5"/>
<polygon fill="none" stroke="#666666" points="454,-7.5 454,-67.5 548,-67.5 548,-7.5 454,-7.5"/>
</a>
</g>
</g>
<!-- Node1&#45;&gt;Node6 -->
<g id="edge5_Node000001_Node000006" class="edge">
<title>Node1&#45;&gt;Node6</title>
<g id="a_edge5_Node000001_Node000006"><a xlink:title=" ">
<path fill="none" stroke="#63b8ff" d="M383.38,-110.28C403.01,-99.47 425.15,-86.96 445,-75 448.88,-72.66 452.87,-70.19 456.86,-67.68"/>
<polygon fill="none" stroke="#63b8ff" points="381.64,-107.24 374.55,-115.12 385,-113.38 381.64,-107.24"/>
</a>
</g>
</g>
<!-- Node7 -->
<g id="Node000007" class="node">
<title>Node7</title>
<g id="a_Node000007"><a xlink:href="classunilink_1_1transport_1_1UdsServer.html" target="_top" xlink:title="Thread&#45;safe UDS Server implementation.">
<polygon fill="white" stroke="transparent" points="660,-67.5 566,-67.5 566,-7.5 660,-7.5 660,-67.5"/>
<text text-anchor="start" x="571" y="-55.5" font-family="Helvetica,sans-Serif" font-size="10.00">unilink::transport</text>
<text text-anchor="start" x="584.5" y="-44.5" font-family="Helvetica,sans-Serif" font-size="10.00">::UdsServer</text>
<text text-anchor="start" x="611" y="-29.5" font-family="Helvetica,sans-Serif" font-size="10.00"> </text>
<text text-anchor="start" x="611" y="-14.5" font-family="Helvetica,sans-Serif" font-size="10.00"> </text>
<polygon fill="#666666" stroke="#666666" points="566,-39.5 566,-39.5 660,-39.5 660,-39.5 566,-39.5"/>
<polygon fill="#666666" stroke="#666666" points="566,-24.5 566,-24.5 660,-24.5 660,-24.5 566,-24.5"/>
<polygon fill="none" stroke="#666666" points="566,-7.5 566,-67.5 660,-67.5 660,-7.5 566,-7.5"/>
</a>
</g>
</g>
<!-- Node1&#45;&gt;Node7 -->
<g id="edge6_Node000001_Node000007" class="edge">
<title>Node1&#45;&gt;Node7</title>
<g id="a_edge6_Node000001_Node000007"><a xlink:title=" ">
<path fill="none" stroke="#63b8ff" d="M384.4,-128.97C431.8,-118.54 500.64,-100.65 557,-75 561.75,-72.84 566.57,-70.31 571.27,-67.6"/>
<polygon fill="none" stroke="#63b8ff" points="383.66,-125.55 374.62,-131.08 385.14,-132.39 383.66,-125.55"/>
</a>
</g>
</g>
</g>
</svg>

<g id="navigator" transform="translate(0 0)" fill="#404254">
  <rect fill="#f2f5e9" fill-opacity="0.5" stroke="#606060" stroke-width=".5" x="0" y="0" width="60" height="60"/>
  <use id="zoomplus" xlink:href="#zoomPlus" x="17" y="9" onmousedown="handleZoom(evt,'in')"/>
  <use id="zoomminus" xlink:href="#zoomMin" x="42" y="9" onmousedown="handleZoom(evt,'out')"/>
  <use id="reset" xlink:href="#resetDef" x="30" y="36" onmousedown="handleReset()"/>
   <use id="arrowup" xlink:href="#arrowUp" x="0" y="0" onmousedown="handlePan(0,-1)"/>
  <use id="arrowright" xlink:href="#arrowRight" x="0" y="0" onmousedown="handlePan(1,0)"/>
  <use id="arrowdown" xlink:href="#arrowDown" x="0" y="0" onmousedown="handlePan(0,1)"/>
  <use id="arrowleft" xlink:href="#arrowLeft" x="0" y="0" onmousedown="handlePan(-1,0)"/>
</g>
<svg viewBox="0 0 15 15" width="100%" height="30px" preserveAspectRatio="xMaxYMin meet">
 <g id="arrow_out" transform="scale(0.3 0.3)">
  <a xlink:href="classunilink_1_1interface_1_1Channel__inherit__graph_org.svg" target="_base">
   <rect id="button" ry="5" rx="5" y="6" x="6" height="38" width="38"
        fill="#f2f5e9" fill-opacity="0.5" stroke="#606060" stroke-width="1.0"/>
   <path id="arrow"
     d="M 11.500037,31.436501 C 11.940474,20.09759 22.043105,11.32322 32.158766,21.979434 L 37.068811,17.246167 C 37.068811,17.246167 37.088388,32 37.088388,32 L 22.160133,31.978069 C 22.160133,31.978069 26.997745,27.140456 26.997745,27.140456 C 18.528582,18.264221 13.291696,25.230495 11.500037,31.436501 z"
     style="fill:#404040;"/>
  </a>
 </g>
</svg>

<style type='text/css'>
<![CDATA[
[data-mouse-over-selected='false'] { opacity: 0.7; }
[data-mouse-over-selected='true']  { opacity: 1.0; }
]]>
</style>
<script type="application/ecmascript"><![CDATA[
document.addEventListener('DOMContentLoaded', (event) => {
  highlightEdges();
  highlightAdjacentNodes();
});
]]></script>
</svg>
