<?xml version="1.0" encoding="UTF-8" standalone="no"?>
<!DOCTYPE svg PUBLIC "-//W3C//DTD SVG 1.1//EN"
 "http://www.w3.org/Graphics/SVG/1.1/DTD/svg11.dtd">
<!-- Generated by graphviz version 2.43.0 (0)
 -->
<!-- Title: unilink::memory::SafeSpan&lt; T, Extent &gt; Pages: 1 -->
<svg width="150pt" height="164pt"
 viewBox="0.00 0.00 150.00 164.00" xmlns="http://www.w3.org/2000/svg" xmlns:xlink="http://www.w3.org/1999/xlink">

<svg id="main" version="1.1" xmlns="http://www.w3.org/2000/svg" xmlns:xlink="http://www.w3.org/1999/xlink" xml:space="preserve" onload="init(evt)">
<style type="text/css"><![CDATA[
.node, .edge {opacity: 0.7;}
.node.selected, .edge.selected {opacity: 1;}
.edge:hover path { stroke: red; }
.edge:hover polygon { stroke: red; fill: red; }
]]></style>
<script type="application/ecmascript" xlink:href="svg.min.js"/>
<svg id="graph" class="graph">
<g id="graph0" class="graph" transform="scale(1 1) rotate(0) translate(4 160)">
<title>unilink::memory::SafeSpan&lt; T, Extent &gt;</title>
<!-- Node1 -->
<g id="Node000001" class="node">
<title>Node1</title>
<g id="a_Node000001"><a xlink:title="C++20 std::span based memory view.">
<polygon fill="#999999" stroke="transparent" points="142,-60 0,-60 0,0 142,0 142,-60"/>
<text text-anchor="start" x="5" y="-48" font-family="Helvetica,sans-Serif" font-size="10.00">unilink::memory::SafeSpan</text>
<text text-anchor="start" x="37.5" y="-37" font-family="Helvetica,sans-Serif" font-size="10.00">&lt; T, Extent &gt;</text>
<text text-anchor="start" x="69" y="-22" font-family="Helvetica,sans-Serif" font-size="10.00"> </text>
<text text-anchor="start" x="69" y="-7" font-family="Helvetica,sans-Serif" font-size="10.00"> </text>
<polygon fill="#666666" stroke="#666666" points="0,-32 0,-32 142,-32 142,-32 0,-32"/>
<polygon fill="#666666" stroke="#666666" points="0,-17 0,-17 142,-17 142,-17 0,-17"/>
<polygon fill="none" stroke="#666666" points="0,0 0,-60 142,-60 142,0 0,0"/>
</a>
</g>
</g>
<!-- Node2 -->
<g id="Node000002" class="node">
<title>Node2</title>
<g id="a_Node000002"><a xlink:title=" ">
<polygon fill="white" stroke="transparent" points="123,-156 19,-156 19,-96 123,-96 123,-156"/>
<text text-anchor="start" x="24" y="-144" font-family="Helvetica,sans-Serif" font-size="10.00">std::span&lt; T, std::</text>
<text text-anchor="start" x="24" y="-133" font-family="Helvetica,sans-Serif" font-size="10.00">dynamic_extent &#160;&gt;</text>
<text text-anchor="start" x="69" y="-118" font-family="Helvetica,sans-Serif" font-size="10.00"> </text>
<text text-anchor="start" x="69" y="-103" font-family="Helvetica,sans-Serif" font-size="10.00"> </text>
<polygon fill="#bfbfbf" stroke="#bfbfbf" points="19,-128 19,-128 123,-128 123,-128 19,-128"/>
<polygon fill="#bfbfbf" stroke="#bfbfbf" points="19,-113 19,-113 123,-113 123,-113 19,-113"/>
<polygon fill="none" stroke="#bfbfbf" points="19,-96 19,-156 123,-156 123,-96 19,-96"/>
</a>
</g>
</g>
<!-- Node2&#45;&gt;Node1 -->
<g id="edge1_Node000001_Node000002" class="edge">
<title>Node2&#45;&gt;Node1</title>
<g id="a_edge1_Node000001_Node000002"><a xlink:title=" ">
<path fill="none" stroke="#63b8ff" d="M71,-85.63C71,-77.11 71,-68.25 71,-60.21"/>
<polygon fill="none" stroke="#63b8ff" points="67.5,-85.77 71,-95.77 74.5,-85.77 67.5,-85.77"/>
</a>
</g>
</g>
</g>
</svg>
</svg>

<style type='text/css'>
<![CDATA[
[data-mouse-over-selected='false'] { opacity: 0.7; }
[data-mouse-over-selected='true']  { opacity: 1.0; }
]]>
</style>
<script type="application/ecmascript"><![CDATA[
document.addEventListener('DOMContentLoaded', (event) => {
  highlightEdges();
  highlightAdjacentNodes();
});
]]></script>
</svg>
