<?xml version="1.0" encoding="UTF-8" standalone="no"?>
<!DOCTYPE svg PUBLIC "-//W3C//DTD SVG 1.1//EN"
 "http://www.w3.org/Graphics/SVG/1.1/DTD/svg11.dtd">
<!-- Generated by graphviz version 2.43.0 (0)
 -->
<!-- Title: unilink::transport::TcpClient Pages: 1 -->
<svg width="248pt" height="164pt"
 viewBox="0.00 0.00 248.00 164.00" xmlns="http://www.w3.org/2000/svg" xmlns:xlink="http://www.w3.org/1999/xlink">
<g id="graph0" class="graph" transform="scale(1 1) rotate(0) translate(4 160)">
<title>unilink::transport::TcpClient</title>
<!-- Node1 -->
<g id="Node000001" class="node">
<title>Node1</title>
<g id="a_Node000001"><a xlink:title=" ">
<polygon fill="#999999" stroke="transparent" points="157.5,-60 63.5,-60 63.5,0 157.5,0 157.5,-60"/>
<text text-anchor="start" x="68.5" y="-48" font-family="Helvetica,sans-Serif" font-size="10.00">unilink::transport</text>
<text text-anchor="start" x="85" y="-37" font-family="Helvetica,sans-Serif" font-size="10.00">::TcpClient</text>
<text text-anchor="start" x="108.5" y="-22" font-family="Helvetica,sans-Serif" font-size="10.00"> </text>
<text text-anchor="start" x="108.5" y="-7" font-family="Helvetica,sans-Serif" font-size="10.00"> </text>
<polygon fill="#666666" stroke="#666666" points="63.5,-32 63.5,-32 157.5,-32 157.5,-32 63.5,-32"/>
<polygon fill="#666666" stroke="#666666" points="63.5,-17 63.5,-17 157.5,-17 157.5,-17 63.5,-17"/>
<polygon fill="none" stroke="#666666" points="63.5,0 63.5,-60 157.5,-60 157.5,0 63.5,0"/>
</a>
</g>
</g>
<!-- Node2 -->
<g id="Node000002" class="node">
<title>Node2</title>
<g id="a_Node000002"><a xlink:href="classunilink_1_1interface_1_1Channel.html" target="_top" xlink:title=" ">
<polygon fill="white" stroke="transparent" points="93,-156 0,-156 0,-96 93,-96 93,-156"/>
<text text-anchor="start" x="5.5" y="-144" font-family="Helvetica,sans-Serif" font-size="10.00">unilink::interface</text>
<text text-anchor="start" x="24" y="-133" font-family="Helvetica,sans-Serif" font-size="10.00">::Channel</text>
<text text-anchor="start" x="45" y="-118" font-family="Helvetica,sans-Serif" font-size="10.00"> </text>
<text text-anchor="start" x="45" y="-103" font-family="Helvetica,sans-Serif" font-size="10.00"> </text>
<polygon fill="#bfbfbf" stroke="#bfbfbf" points="0.5,-128 0.5,-128 93.5,-128 93.5,-128 0.5,-128"/>
<polygon fill="#bfbfbf" stroke="#bfbfbf" points="0.5,-113 0.5,-113 93.5,-113 93.5,-113 0.5,-113"/>
<polygon fill="none" stroke="#bfbfbf" points="0,-96 0,-156 93,-156 93,-96 0,-96"/>
</a>
</g>
</g>
<!-- Node2&#45;&gt;Node1 -->
<g id="edge1_Node000001_Node000002" class="edge">
<title>Node2&#45;&gt;Node1</title>
<g id="a_edge1_Node000001_Node000002"><a xlink:title=" ">
<path fill="none" stroke="#63b8ff" d="M72.16,-87.31C78.3,-78.29 84.77,-68.78 90.61,-60.21"/>
<polygon fill="none" stroke="#63b8ff" points="69.13,-85.54 66.4,-95.77 74.92,-89.48 69.13,-85.54"/>
</a>
</g>
</g>
<!-- Node3 -->
<g id="Node000003" class="node">
<title>Node3</title>
<g id="a_Node000003"><a xlink:title=" ">
<polygon fill="white" stroke="transparent" points="240,-156 111,-156 111,-96 240,-96 240,-156"/>
<text text-anchor="start" x="116.5" y="-144" font-family="Helvetica,sans-Serif" font-size="10.00">std::enable_shared</text>
<text text-anchor="start" x="116.5" y="-133" font-family="Helvetica,sans-Serif" font-size="10.00">_from_this&lt; TcpClient &gt;</text>
<text text-anchor="start" x="174" y="-118" font-family="Helvetica,sans-Serif" font-size="10.00"> </text>
<text text-anchor="start" x="174" y="-103" font-family="Helvetica,sans-Serif" font-size="10.00"> </text>
<polygon fill="#bfbfbf" stroke="#bfbfbf" points="111.5,-128 111.5,-128 240.5,-128 240.5,-128 111.5,-128"/>
<polygon fill="#bfbfbf" stroke="#bfbfbf" points="111.5,-113 111.5,-113 240.5,-113 240.5,-113 111.5,-113"/>
<polygon fill="none" stroke="#bfbfbf" points="111,-96 111,-156 240,-156 240,-96 111,-96"/>
</a>
</g>
</g>
<!-- Node3&#45;&gt;Node1 -->
<g id="edge2_Node000001_Node000003" class="edge">
<title>Node3&#45;&gt;Node1</title>
<g id="a_edge2_Node000001_Node000003"><a xlink:title=" ">
<path fill="none" stroke="#63b8ff" d="M149.44,-87.31C143.2,-78.29 136.63,-68.78 130.7,-60.21"/>
<polygon fill="none" stroke="#63b8ff" points="146.72,-89.54 155.29,-95.77 152.48,-85.56 146.72,-89.54"/>
</a>
</g>
</g>
</g>
</svg>
