<?xml version="1.0" encoding="UTF-8" standalone="no"?>
<!DOCTYPE svg PUBLIC "-//W3C//DTD SVG 1.1//EN"
 "http://www.w3.org/Graphics/SVG/1.1/DTD/svg11.dtd">
<!-- Generated by graphviz version 2.43.0 (0)
 -->
<!-- Title: unilink::config::ConfigPresets::setup_all_defaults Pages: 1 -->
<svg width="360pt" height="182pt"
 viewBox="0.00 0.00 360.00 182.00" xmlns="http://www.w3.org/2000/svg" xmlns:xlink="http://www.w3.org/1999/xlink">

<svg id="main" version="1.1" xmlns="http://www.w3.org/2000/svg" xmlns:xlink="http://www.w3.org/1999/xlink" xml:space="preserve" onload="init(evt)">
<style type="text/css"><![CDATA[
.node, .edge {opacity: 0.7;}
.node.selected, .edge.selected {opacity: 1;}
.edge:hover path { stroke: red; }
.edge:hover polygon { stroke: red; fill: red; }
]]></style>
<script type="application/ecmascript" xlink:href="svg.min.js"/>
<svg id="graph" class="graph">
<g id="graph0" class="graph" transform="scale(1 1) rotate(0) translate(4 178)">
<title>unilink::config::ConfigPresets::setup_all_defaults</title>
<!-- Node1 -->
<g id="Node000001" class="node">
<title>Node1</title>
<g id="a_Node000001"><a xlink:title=" ">
<polygon fill="#999999" stroke="#666666" points="158,-102 0,-102 0,-72 158,-72 158,-102"/>
<text text-anchor="start" x="8" y="-90" font-family="Helvetica,sans-Serif" font-size="10.00">unilink::config::ConfigPresets</text>
<text text-anchor="middle" x="79" y="-79" font-family="Helvetica,sans-Serif" font-size="10.00">::setup_all_defaults</text>
</a>
</g>
</g>
<!-- Node2 -->
<g id="Node000002" class="node">
<title>Node2</title>
<g id="a_Node000002"><a xlink:href="classunilink_1_1config_1_1ConfigPresets.html#ac5fa0f6beb3c0cad1b83986ef7c8a78a" target="_top" xlink:title=" ">
<polygon fill="white" stroke="#666666" points="352,-174 194,-174 194,-144 352,-144 352,-174"/>
<text text-anchor="start" x="202" y="-162" font-family="Helvetica,sans-Serif" font-size="10.00">unilink::config::ConfigPresets</text>
<text text-anchor="middle" x="273" y="-151" font-family="Helvetica,sans-Serif" font-size="10.00">::setup_logging_defaults</text>
</a>
</g>
</g>
<!-- Node1&#45;&gt;Node2 -->
<g id="edge1_Node000001_Node000002" class="edge">
<title>Node1&#45;&gt;Node2</title>
<g id="a_edge1_Node000001_Node000002"><a xlink:title=" ">
<path fill="none" stroke="#63b8ff" d="M113.57,-102.18C136.09,-112.1 166.55,-125.03 194,-135 199.46,-136.98 205.17,-138.95 210.91,-140.85"/>
<polygon fill="#63b8ff" stroke="#63b8ff" points="209.98,-144.22 220.57,-143.98 212.13,-137.56 209.98,-144.22"/>
</a>
</g>
</g>
<!-- Node3 -->
<g id="Node000003" class="node">
<title>Node3</title>
<g id="a_Node000003"><a xlink:href="classunilink_1_1config_1_1ConfigPresets.html#a0a962caed9068755a89dac24122b30ee" target="_top" xlink:title=" ">
<polygon fill="white" stroke="#666666" points="352,-126 194,-126 194,-96 352,-96 352,-126"/>
<text text-anchor="start" x="202" y="-114" font-family="Helvetica,sans-Serif" font-size="10.00">unilink::config::ConfigPresets</text>
<text text-anchor="middle" x="273" y="-103" font-family="Helvetica,sans-Serif" font-size="10.00">::setup_serial_defaults</text>
</a>
</g>
</g>
<!-- Node1&#45;&gt;Node3 -->
<g id="edge2_Node000001_Node000003" class="edge">
<title>Node1&#45;&gt;Node3</title>
<g id="a_edge2_Node000001_Node000003"><a xlink:title=" ">
<path fill="none" stroke="#63b8ff" d="M158.09,-96.76C166.6,-97.83 175.3,-98.91 183.92,-99.99"/>
<polygon fill="#63b8ff" stroke="#63b8ff" points="183.62,-103.48 193.98,-101.25 184.49,-96.53 183.62,-103.48"/>
</a>
</g>
</g>
<!-- Node4 -->
<g id="Node000004" class="node">
<title>Node4</title>
<g id="a_Node000004"><a xlink:href="classunilink_1_1config_1_1ConfigPresets.html#af3eb072f8546754247214bbf73feeed4" target="_top" xlink:title=" ">
<polygon fill="white" stroke="#666666" points="352,-78 194,-78 194,-48 352,-48 352,-78"/>
<text text-anchor="start" x="202" y="-66" font-family="Helvetica,sans-Serif" font-size="10.00">unilink::config::ConfigPresets</text>
<text text-anchor="middle" x="273" y="-55" font-family="Helvetica,sans-Serif" font-size="10.00">::setup_tcp_client_defaults</text>
</a>
</g>
</g>
<!-- Node1&#45;&gt;Node4 -->
<g id="edge3_Node000001_Node000004" class="edge">
<title>Node1&#45;&gt;Node4</title>
<g id="a_edge3_Node000001_Node000004"><a xlink:title=" ">
<path fill="none" stroke="#63b8ff" d="M158.09,-77.24C166.6,-76.17 175.3,-75.09 183.92,-74.01"/>
<polygon fill="#63b8ff" stroke="#63b8ff" points="184.49,-77.47 193.98,-72.75 183.62,-70.52 184.49,-77.47"/>
</a>
</g>
</g>
<!-- Node5 -->
<g id="Node000005" class="node">
<title>Node5</title>
<g id="a_Node000005"><a xlink:href="classunilink_1_1config_1_1ConfigPresets.html#a5becfb6839f288a6b50be2e276fb8c6e" target="_top" xlink:title=" ">
<polygon fill="white" stroke="#666666" points="352,-30 194,-30 194,0 352,0 352,-30"/>
<text text-anchor="start" x="202" y="-18" font-family="Helvetica,sans-Serif" font-size="10.00">unilink::config::ConfigPresets</text>
<text text-anchor="middle" x="273" y="-7" font-family="Helvetica,sans-Serif" font-size="10.00">::setup_tcp_server_defaults</text>
</a>
</g>
</g>
<!-- Node1&#45;&gt;Node5 -->
<g id="edge4_Node000001_Node000005" class="edge">
<title>Node1&#45;&gt;Node5</title>
<g id="a_edge4_Node000001_Node000005"><a xlink:title=" ">
<path fill="none" stroke="#63b8ff" d="M113.57,-71.82C136.09,-61.9 166.55,-48.97 194,-39 199.46,-37.02 205.17,-35.05 210.91,-33.15"/>
<polygon fill="#63b8ff" stroke="#63b8ff" points="212.13,-36.44 220.57,-30.02 209.98,-29.78 212.13,-36.44"/>
</a>
</g>
</g>
</g>
</svg>
</svg>

<style type='text/css'>
<![CDATA[
[data-mouse-over-selected='false'] { opacity: 0.7; }
[data-mouse-over-selected='true']  { opacity: 1.0; }
]]>
</style>
<script type="application/ecmascript"><![CDATA[
document.addEventListener('DOMContentLoaded', (event) => {
  highlightEdges();
  highlightAdjacentNodes();
});
]]></script>
</svg>
