<?xml version="1.0" encoding="UTF-8" standalone="no"?>
<!DOCTYPE svg PUBLIC "-//W3C//DTD SVG 1.1//EN"
 "http://www.w3.org/Graphics/SVG/1.1/DTD/svg11.dtd">
<!-- Generated by graphviz version 2.43.0 (0)
 -->
<!-- Title: unilink::wrapper::ServerInterface Pages: 1 -->
<svg width="480pt" height="513pt"
 viewBox="0.00 0.00 479.50 513.00" xmlns="http://www.w3.org/2000/svg" xmlns:xlink="http://www.w3.org/1999/xlink">
<g id="graph0" class="graph" transform="scale(1 1) rotate(0) translate(4 509)">
<title>unilink::wrapper::ServerInterface</title>
<!-- Node1 -->
<g id="Node000001" class="node">
<title>Node1</title>
<g id="a_Node000001"><a xlink:title="Interface for 1:N server communication (e.g., TcpServer)">
<polygon fill="#999999" stroke="transparent" points="298,-505 171,-505 171,-295 298,-295 298,-505"/>
<text text-anchor="start" x="176.5" y="-493" font-family="Helvetica,sans-Serif" font-size="10.00">unilink::wrapper::Server</text>
<text text-anchor="start" x="213" y="-482" font-family="Helvetica,sans-Serif" font-size="10.00">Interface</text>
<text text-anchor="start" x="233" y="-467" font-family="Helvetica,sans-Serif" font-size="10.00"> </text>
<text text-anchor="start" x="177.5" y="-452" font-family="Helvetica,sans-Serif" font-size="10.00">+</text>
<text text-anchor="start" x="192.5" y="-452" font-family="Helvetica,sans-Serif" font-size="10.00">start_sync()</text>
<text text-anchor="start" x="177.5" y="-437" font-family="Helvetica,sans-Serif" font-size="10.00">+</text>
<text text-anchor="start" x="192.5" y="-437" font-family="Helvetica,sans-Serif" font-size="10.00">stop()</text>
<text text-anchor="start" x="177.5" y="-422" font-family="Helvetica,sans-Serif" font-size="10.00">+</text>
<text text-anchor="start" x="192.5" y="-422" font-family="Helvetica,sans-Serif" font-size="10.00">send_to()</text>
<text text-anchor="start" x="177.5" y="-407" font-family="Helvetica,sans-Serif" font-size="10.00">+</text>
<text text-anchor="start" x="192.5" y="-407" font-family="Helvetica,sans-Serif" font-size="10.00">broadcast()</text>
<text text-anchor="start" x="177.5" y="-392" font-family="Helvetica,sans-Serif" font-size="10.00">+</text>
<text text-anchor="start" x="192.5" y="-392" font-family="Helvetica,sans-Serif" font-size="10.00">send_to_blocking()</text>
<text text-anchor="start" x="177.5" y="-377" font-family="Helvetica,sans-Serif" font-size="10.00">+</text>
<text text-anchor="start" x="192.5" y="-377" font-family="Helvetica,sans-Serif" font-size="10.00">try_send_to()</text>
<text text-anchor="start" x="177.5" y="-362" font-family="Helvetica,sans-Serif" font-size="10.00">+</text>
<text text-anchor="start" x="192.5" y="-362" font-family="Helvetica,sans-Serif" font-size="10.00">try_broadcast()</text>
<text text-anchor="start" x="177.5" y="-347" font-family="Helvetica,sans-Serif" font-size="10.00">+</text>
<text text-anchor="start" x="192.5" y="-347" font-family="Helvetica,sans-Serif" font-size="10.00">broadcast_line()</text>
<text text-anchor="start" x="177.5" y="-332" font-family="Helvetica,sans-Serif" font-size="10.00">+</text>
<text text-anchor="start" x="192.5" y="-332" font-family="Helvetica,sans-Serif" font-size="10.00">send_to_line()</text>
<text text-anchor="start" x="177.5" y="-317" font-family="Helvetica,sans-Serif" font-size="10.00">+</text>
<text text-anchor="start" x="192.5" y="-317" font-family="Helvetica,sans-Serif" font-size="10.00">try_broadcast_line()</text>
<text text-anchor="start" x="192.5" y="-302" font-family="Helvetica,sans-Serif" font-size="10.00">and 6 more...</text>
<polygon fill="#666666" stroke="#666666" points="171.5,-477 171.5,-477 298.5,-477 298.5,-477 171.5,-477"/>
<polygon fill="#666666" stroke="#666666" points="171.5,-462 171.5,-462 298.5,-462 298.5,-462 171.5,-462"/>
<polygon fill="none" stroke="#666666" points="171,-295 171,-505 298,-505 298,-295 171,-295"/>
</a>
</g>
</g>
<!-- Node2 -->
<g id="Node000002" class="node">
<title>Node2</title>
<g id="a_Node000002"><a xlink:href="classunilink_1_1wrapper_1_1TcpServer.html" target="_top" xlink:title="Modernized TCP Server Wrapper.">
<polygon fill="white" stroke="transparent" points="143,-229 0,-229 0,-30 143,-30 143,-229"/>
<text text-anchor="start" x="5.5" y="-216.5" font-family="Helvetica,sans-Serif" font-size="10.00">unilink::wrapper::TcpServer</text>
<text text-anchor="start" x="70" y="-201.5" font-family="Helvetica,sans-Serif" font-size="10.00"> </text>
<text text-anchor="start" x="10.5" y="-186.5" font-family="Helvetica,sans-Serif" font-size="10.00">+</text>
<text text-anchor="start" x="29.5" y="-186.5" font-family="Helvetica,sans-Serif" font-size="10.00">stop()</text>
<text text-anchor="start" x="10.5" y="-171.5" font-family="Helvetica,sans-Serif" font-size="10.00">+</text>
<text text-anchor="start" x="29.5" y="-171.5" font-family="Helvetica,sans-Serif" font-size="10.00">broadcast()</text>
<text text-anchor="start" x="10.5" y="-156.5" font-family="Helvetica,sans-Serif" font-size="10.00">+</text>
<text text-anchor="start" x="29.5" y="-156.5" font-family="Helvetica,sans-Serif" font-size="10.00">send_to()</text>
<text text-anchor="start" x="10.5" y="-141.5" font-family="Helvetica,sans-Serif" font-size="10.00">+</text>
<text text-anchor="start" x="29.5" y="-141.5" font-family="Helvetica,sans-Serif" font-size="10.00">send_to_blocking()</text>
<text text-anchor="start" x="10.5" y="-126.5" font-family="Helvetica,sans-Serif" font-size="10.00">+</text>
<text text-anchor="start" x="29.5" y="-126.5" font-family="Helvetica,sans-Serif" font-size="10.00">try_send_to()</text>
<text text-anchor="start" x="10.5" y="-111.5" font-family="Helvetica,sans-Serif" font-size="10.00">+</text>
<text text-anchor="start" x="29.5" y="-111.5" font-family="Helvetica,sans-Serif" font-size="10.00">try_broadcast()</text>
<text text-anchor="start" x="10.5" y="-96.5" font-family="Helvetica,sans-Serif" font-size="10.00">+</text>
<text text-anchor="start" x="29.5" y="-96.5" font-family="Helvetica,sans-Serif" font-size="10.00">broadcast_line()</text>
<text text-anchor="start" x="10.5" y="-81.5" font-family="Helvetica,sans-Serif" font-size="10.00">+</text>
<text text-anchor="start" x="29.5" y="-81.5" font-family="Helvetica,sans-Serif" font-size="10.00">send_to_line()</text>
<text text-anchor="start" x="10.5" y="-66.5" font-family="Helvetica,sans-Serif" font-size="10.00">+</text>
<text text-anchor="start" x="29.5" y="-66.5" font-family="Helvetica,sans-Serif" font-size="10.00">try_broadcast_line()</text>
<text text-anchor="start" x="10.5" y="-51.5" font-family="Helvetica,sans-Serif" font-size="10.00">+</text>
<text text-anchor="start" x="29.5" y="-51.5" font-family="Helvetica,sans-Serif" font-size="10.00">try_send_to_line()</text>
<text text-anchor="start" x="29.5" y="-36.5" font-family="Helvetica,sans-Serif" font-size="10.00">and 6 more...</text>
<polygon fill="#666666" stroke="#666666" points="0.5,-211.5 0.5,-211.5 143.5,-211.5 143.5,-211.5 0.5,-211.5"/>
<polygon fill="#666666" stroke="#666666" points="0.5,-196.5 0.5,-196.5 143.5,-196.5 143.5,-196.5 0.5,-196.5"/>
<polygon fill="none" stroke="#666666" points="0,-30 0,-229 143,-229 143,-30 0,-30"/>
</a>
</g>
</g>
<!-- Node1&#45;&gt;Node2 -->
<g id="edge1_Node000001_Node000002" class="edge">
<title>Node1&#45;&gt;Node2</title>
<g id="a_edge1_Node000001_Node000002"><a xlink:title=" ">
<path fill="none" stroke="#63b8ff" d="M166.01,-286.18C154.55,-267.3 142.74,-247.84 131.51,-229.35"/>
<polygon fill="none" stroke="#63b8ff" points="163.07,-288.07 171.25,-294.81 169.05,-284.44 163.07,-288.07"/>
</a>
</g>
</g>
<!-- Node3 -->
<g id="Node000003" class="node">
<title>Node3</title>
<g id="a_Node000003"><a xlink:href="classunilink_1_1wrapper_1_1UdpServer.html" target="_top" xlink:title="UDP implementation of ServerInterface using virtual sessions.">
<polygon fill="white" stroke="transparent" points="307.5,-229 161.5,-229 161.5,-30 307.5,-30 307.5,-229"/>
<text text-anchor="start" x="166.5" y="-216.5" font-family="Helvetica,sans-Serif" font-size="10.00">unilink::wrapper::UdpServer</text>
<text text-anchor="start" x="232.5" y="-201.5" font-family="Helvetica,sans-Serif" font-size="10.00"> </text>
<text text-anchor="start" x="172" y="-186.5" font-family="Helvetica,sans-Serif" font-size="10.00">+</text>
<text text-anchor="start" x="191.5" y="-186.5" font-family="Helvetica,sans-Serif" font-size="10.00">stop()</text>
<text text-anchor="start" x="172" y="-171.5" font-family="Helvetica,sans-Serif" font-size="10.00">+</text>
<text text-anchor="start" x="191.5" y="-171.5" font-family="Helvetica,sans-Serif" font-size="10.00">broadcast()</text>
<text text-anchor="start" x="172" y="-156.5" font-family="Helvetica,sans-Serif" font-size="10.00">+</text>
<text text-anchor="start" x="191.5" y="-156.5" font-family="Helvetica,sans-Serif" font-size="10.00">send_to()</text>
<text text-anchor="start" x="172" y="-141.5" font-family="Helvetica,sans-Serif" font-size="10.00">+</text>
<text text-anchor="start" x="191.5" y="-141.5" font-family="Helvetica,sans-Serif" font-size="10.00">send_to_blocking()</text>
<text text-anchor="start" x="172" y="-126.5" font-family="Helvetica,sans-Serif" font-size="10.00">+</text>
<text text-anchor="start" x="191.5" y="-126.5" font-family="Helvetica,sans-Serif" font-size="10.00">try_send_to()</text>
<text text-anchor="start" x="172" y="-111.5" font-family="Helvetica,sans-Serif" font-size="10.00">+</text>
<text text-anchor="start" x="191.5" y="-111.5" font-family="Helvetica,sans-Serif" font-size="10.00">try_broadcast()</text>
<text text-anchor="start" x="172" y="-96.5" font-family="Helvetica,sans-Serif" font-size="10.00">+</text>
<text text-anchor="start" x="191.5" y="-96.5" font-family="Helvetica,sans-Serif" font-size="10.00">broadcast_line()</text>
<text text-anchor="start" x="172" y="-81.5" font-family="Helvetica,sans-Serif" font-size="10.00">+</text>
<text text-anchor="start" x="191.5" y="-81.5" font-family="Helvetica,sans-Serif" font-size="10.00">send_to_line()</text>
<text text-anchor="start" x="172" y="-66.5" font-family="Helvetica,sans-Serif" font-size="10.00">+</text>
<text text-anchor="start" x="191.5" y="-66.5" font-family="Helvetica,sans-Serif" font-size="10.00">try_broadcast_line()</text>
<text text-anchor="start" x="172" y="-51.5" font-family="Helvetica,sans-Serif" font-size="10.00">+</text>
<text text-anchor="start" x="191.5" y="-51.5" font-family="Helvetica,sans-Serif" font-size="10.00">try_send_to_line()</text>
<text text-anchor="start" x="191.5" y="-36.5" font-family="Helvetica,sans-Serif" font-size="10.00">and 6 more...</text>
<polygon fill="#666666" stroke="#666666" points="161.5,-211.5 161.5,-211.5 307.5,-211.5 307.5,-211.5 161.5,-211.5"/>
<polygon fill="#666666" stroke="#666666" points="161.5,-196.5 161.5,-196.5 307.5,-196.5 307.5,-196.5 161.5,-196.5"/>
<polygon fill="none" stroke="#666666" points="161.5,-30 161.5,-229 307.5,-229 307.5,-30 161.5,-30"/>
</a>
</g>
</g>
<!-- Node1&#45;&gt;Node3 -->
<g id="edge2_Node000001_Node000003" class="edge">
<title>Node1&#45;&gt;Node3</title>
<g id="a_edge2_Node000001_Node000003"><a xlink:title=" ">
<path fill="none" stroke="#63b8ff" d="M234.5,-284.65C234.5,-266.25 234.5,-247.34 234.5,-229.35"/>
<polygon fill="none" stroke="#63b8ff" points="231,-284.81 234.5,-294.81 238,-284.81 231,-284.81"/>
</a>
</g>
</g>
<!-- Node4 -->
<g id="Node000004" class="node">
<title>Node4</title>
<g id="a_Node000004"><a xlink:href="classunilink_1_1wrapper_1_1UdsServer.html" target="_top" xlink:title="Modernized UDS Server Wrapper.">
<polygon fill="white" stroke="transparent" points="471.5,-259 325.5,-259 325.5,0 471.5,0 471.5,-259"/>
<text text-anchor="start" x="330.5" y="-246.5" font-family="Helvetica,sans-Serif" font-size="10.00">unilink::wrapper::UdsServer</text>
<text text-anchor="start" x="396.5" y="-231.5" font-family="Helvetica,sans-Serif" font-size="10.00"> </text>
<text text-anchor="start" x="335" y="-216.5" font-family="Helvetica,sans-Serif" font-size="10.00">+</text>
<text text-anchor="start" x="353.5" y="-216.5" font-family="Helvetica,sans-Serif" font-size="10.00">stop()</text>
<text text-anchor="start" x="335" y="-201.5" font-family="Helvetica,sans-Serif" font-size="10.00">+</text>
<text text-anchor="start" x="353.5" y="-201.5" font-family="Helvetica,sans-Serif" font-size="10.00">broadcast()</text>
<text text-anchor="start" x="335" y="-186.5" font-family="Helvetica,sans-Serif" font-size="10.00">+</text>
<text text-anchor="start" x="353.5" y="-186.5" font-family="Helvetica,sans-Serif" font-size="10.00">send_to()</text>
<text text-anchor="start" x="335" y="-171.5" font-family="Helvetica,sans-Serif" font-size="10.00">+</text>
<text text-anchor="start" x="353.5" y="-171.5" font-family="Helvetica,sans-Serif" font-size="10.00">send_to_blocking()</text>
<text text-anchor="start" x="335" y="-156.5" font-family="Helvetica,sans-Serif" font-size="10.00">+</text>
<text text-anchor="start" x="353.5" y="-156.5" font-family="Helvetica,sans-Serif" font-size="10.00">try_send_to()</text>
<text text-anchor="start" x="335" y="-141.5" font-family="Helvetica,sans-Serif" font-size="10.00">+</text>
<text text-anchor="start" x="353.5" y="-141.5" font-family="Helvetica,sans-Serif" font-size="10.00">try_broadcast()</text>
<text text-anchor="start" x="335" y="-126.5" font-family="Helvetica,sans-Serif" font-size="10.00">+</text>
<text text-anchor="start" x="353.5" y="-126.5" font-family="Helvetica,sans-Serif" font-size="10.00">broadcast_line()</text>
<text text-anchor="start" x="335" y="-111.5" font-family="Helvetica,sans-Serif" font-size="10.00">+</text>
<text text-anchor="start" x="353.5" y="-111.5" font-family="Helvetica,sans-Serif" font-size="10.00">send_to_line()</text>
<text text-anchor="start" x="335" y="-96.5" font-family="Helvetica,sans-Serif" font-size="10.00">+</text>
<text text-anchor="start" x="353.5" y="-96.5" font-family="Helvetica,sans-Serif" font-size="10.00">try_broadcast_line()</text>
<text text-anchor="start" x="335" y="-81.5" font-family="Helvetica,sans-Serif" font-size="10.00">+</text>
<text text-anchor="start" x="353.5" y="-81.5" font-family="Helvetica,sans-Serif" font-size="10.00">try_send_to_line()</text>
<text text-anchor="start" x="335" y="-66.5" font-family="Helvetica,sans-Serif" font-size="10.00">+</text>
<text text-anchor="start" x="353.5" y="-66.5" font-family="Helvetica,sans-Serif" font-size="10.00">on_data_batch()</text>
<text text-anchor="start" x="335" y="-51.5" font-family="Helvetica,sans-Serif" font-size="10.00">+</text>
<text text-anchor="start" x="353.5" y="-51.5" font-family="Helvetica,sans-Serif" font-size="10.00">on_backpressure()</text>
<text text-anchor="start" x="335" y="-36.5" font-family="Helvetica,sans-Serif" font-size="10.00">+</text>
<text text-anchor="start" x="353.5" y="-36.5" font-family="Helvetica,sans-Serif" font-size="10.00">framer()</text>
<text text-anchor="start" x="335" y="-21.5" font-family="Helvetica,sans-Serif" font-size="10.00">+</text>
<text text-anchor="start" x="353.5" y="-21.5" font-family="Helvetica,sans-Serif" font-size="10.00">on_message()</text>
<text text-anchor="start" x="335" y="-6.5" font-family="Helvetica,sans-Serif" font-size="10.00">+</text>
<text text-anchor="start" x="353.5" y="-6.5" font-family="Helvetica,sans-Serif" font-size="10.00">on_message_batch()</text>
<polygon fill="#666666" stroke="#666666" points="325.5,-241.5 325.5,-241.5 471.5,-241.5 471.5,-241.5 325.5,-241.5"/>
<polygon fill="#666666" stroke="#666666" points="325.5,-226.5 325.5,-226.5 471.5,-226.5 471.5,-226.5 325.5,-226.5"/>
<polygon fill="none" stroke="#666666" points="325.5,0 325.5,-259 471.5,-259 471.5,0 325.5,0"/>
</a>
</g>
</g>
<!-- Node1&#45;&gt;Node4 -->
<g id="edge3_Node000001_Node000004" class="edge">
<title>Node1&#45;&gt;Node4</title>
<g id="a_edge3_Node000001_Node000004"><a xlink:title=" ">
<path fill="none" stroke="#63b8ff" d="M303.4,-286.2C310.65,-274.33 318.05,-262.22 325.35,-250.27"/>
<polygon fill="none" stroke="#63b8ff" points="300.37,-284.45 298.14,-294.81 306.34,-288.1 300.37,-284.45"/>
</a>
</g>
</g>
</g>
</svg>
