<?xml version="1.0" encoding="UTF-8" standalone="no"?>
<!DOCTYPE svg PUBLIC "-//W3C//DTD SVG 1.1//EN"
 "http://www.w3.org/Graphics/SVG/1.1/DTD/svg11.dtd">
<!-- Generated by graphviz version 2.43.0 (0)
 -->
<!-- Title: unilink::config::ConfigFactory::create_with_defaults Pages: 1 -->
<!--zoomable 182 -->

<svg id="main" version="1.1" xmlns="http://www.w3.org/2000/svg" xmlns:xlink="http://www.w3.org/1999/xlink" xml:space="preserve" onload="init(evt)">
<style type="text/css"><![CDATA[
.node, .edge {opacity: 0.7;}
.node.selected, .edge.selected {opacity: 1;}
.edge:hover path { stroke: red; }
.edge:hover polygon { stroke: red; fill: red; }
]]></style>

<defs>
  <circle id="rim" cx="0" cy="0" r="7"/>
  <circle id="rim2" cx="0" cy="0" r="3.5"/>
  <g id="zoomPlus">
    <use xlink:href="#rim" fill="#404040"><set attributeName="fill" to="#808080" begin="zoomplus.mouseover" end="zoomplus.mouseout"/></use>
    <path d="M-4,0h8M0,-4v8" fill="none" stroke="white" stroke-width="1.5" pointer-events="none"/>
  </g>
  <g id="zoomMin">
    <use xlink:href="#rim" fill="#404040"><set attributeName="fill" to="#808080" begin="zoomminus.mouseover" end="zoomminus.mouseout"/></use>
    <path d="M-4,0h8" fill="none" stroke="white" stroke-width="1.5" pointer-events="none"/>
  </g>
  <g id="arrowUp" transform="translate(30 24)">
    <use xlink:href="#rim"/>
    <path pointer-events="none" fill="none" stroke="white" stroke-width="1.5" d="M0,-3.0v7 M-2.5,-0.5L0,-3.0L2.5,-0.5"/>
  </g>
  <g id="arrowRight" transform="rotate(90) translate(36 -43)">
    <use xlink:href="#rim"/>
    <path pointer-events="none" fill="none" stroke="white" stroke-width="1.5" d="M0,-3.0v7 M-2.5,-0.5L0,-3.0L2.5,-0.5"/>
  </g>
  <g id="arrowDown" transform="rotate(180) translate(-30 -48)">
    <use xlink:href="#rim"/>
    <path pointer-events="none" fill="none" stroke="white" stroke-width="1.5" d="M0,-3.0v7 M-2.5,-0.5L0,-3.0L2.5,-0.5"/>
  </g>
  <g id="arrowLeft" transform="rotate(270) translate(-36 17)">
    <use xlink:href="#rim"/>
    <path pointer-events="none" fill="none" stroke="white" stroke-width="1.5" d="M0,-3.0v7 M-2.5,-0.5L0,-3.0L2.5,-0.5"/>
  </g>
  <g id="resetDef">
    <use xlink:href="#rim2" fill="#404040"><set attributeName="fill" to="#808080" begin="reset.mouseover" end="reset.mouseout"/></use>
  </g>
</defs>
<script type="application/ecmascript">
var viewWidth = 553;
var viewHeight = 182;
var sectionId = 'dynsection-3';
</script>
<script type="application/ecmascript" xlink:href="svg.min.js"/>
<svg id="graph" class="graph">
<g id="viewport">
<title>unilink::config::ConfigFactory::create_with_defaults</title>
<!-- Node1 -->
<g id="Node000001" class="node">
<title>Node1</title>
<g id="a_Node000001"><a xlink:title=" ">
<polygon fill="#999999" stroke="#666666" points="157,-126 0,-126 0,-96 157,-96 157,-126"/>
<text text-anchor="start" x="8" y="-114" font-family="Helvetica,sans-Serif" font-size="10.00">unilink::config::ConfigFactory</text>
<text text-anchor="middle" x="78.5" y="-103" font-family="Helvetica,sans-Serif" font-size="10.00">::create_with_defaults</text>
</a>
</g>
</g>
<!-- Node2 -->
<g id="Node000002" class="node">
<title>Node2</title>
<g id="a_Node000002"><a xlink:href="classunilink_1_1config_1_1ConfigFactory.html#a69ad725f19260549b3d7282d84594fe5" target="_top" xlink:title=" ">
<polygon fill="white" stroke="#666666" points="350.5,-150 193.5,-150 193.5,-120 350.5,-120 350.5,-150"/>
<text text-anchor="start" x="201.5" y="-138" font-family="Helvetica,sans-Serif" font-size="10.00">unilink::config::ConfigFactory</text>
<text text-anchor="middle" x="272" y="-127" font-family="Helvetica,sans-Serif" font-size="10.00">::create</text>
</a>
</g>
</g>
<!-- Node1&#45;&gt;Node2 -->
<g id="edge1_Node000001_Node000002" class="edge">
<title>Node1&#45;&gt;Node2</title>
<g id="a_edge1_Node000001_Node000002"><a xlink:title=" ">
<path fill="none" stroke="#63b8ff" d="M157.11,-120.73C165.68,-121.8 174.45,-122.9 183.14,-123.99"/>
<polygon fill="#63b8ff" stroke="#63b8ff" points="182.92,-127.49 193.28,-125.26 183.79,-120.54 182.92,-127.49"/>
</a>
</g>
</g>
<!-- Node3 -->
<g id="Node000003" class="node">
<title>Node3</title>
<g id="a_Node000003"><a xlink:href="classunilink_1_1config_1_1ConfigPresets.html#ad14ccdce0fa26dc04fb713da77e5612e" target="_top" xlink:title=" ">
<polygon fill="white" stroke="#666666" points="351,-102 193,-102 193,-72 351,-72 351,-102"/>
<text text-anchor="start" x="201" y="-90" font-family="Helvetica,sans-Serif" font-size="10.00">unilink::config::ConfigPresets</text>
<text text-anchor="middle" x="272" y="-79" font-family="Helvetica,sans-Serif" font-size="10.00">::setup_all_defaults</text>
</a>
</g>
</g>
<!-- Node1&#45;&gt;Node3 -->
<g id="edge2_Node000001_Node000003" class="edge">
<title>Node1&#45;&gt;Node3</title>
<g id="a_edge2_Node000001_Node000003"><a xlink:title=" ">
<path fill="none" stroke="#63b8ff" d="M157.11,-101.27C165.61,-100.21 174.3,-99.12 182.91,-98.04"/>
<polygon fill="#63b8ff" stroke="#63b8ff" points="183.48,-101.5 192.96,-96.78 182.61,-94.55 183.48,-101.5"/>
</a>
</g>
</g>
<!-- Node4 -->
<g id="Node000004" class="node">
<title>Node4</title>
<g id="a_Node000004"><a xlink:href="classunilink_1_1config_1_1ConfigPresets.html#ac5fa0f6beb3c0cad1b83986ef7c8a78a" target="_top" xlink:title=" ">
<polygon fill="white" stroke="#666666" points="545,-174 387,-174 387,-144 545,-144 545,-174"/>
<text text-anchor="start" x="395" y="-162" font-family="Helvetica,sans-Serif" font-size="10.00">unilink::config::ConfigPresets</text>
<text text-anchor="middle" x="466" y="-151" font-family="Helvetica,sans-Serif" font-size="10.00">::setup_logging_defaults</text>
</a>
</g>
</g>
<!-- Node3&#45;&gt;Node4 -->
<g id="edge3_Node000003_Node000004" class="edge">
<title>Node3&#45;&gt;Node4</title>
<g id="a_edge3_Node000003_Node000004"><a xlink:title=" ">
<path fill="none" stroke="#63b8ff" d="M329.14,-102.12C336.62,-104.75 344.09,-107.72 351,-111 368.37,-119.25 369.63,-126.75 387,-135 391,-136.9 395.18,-138.69 399.44,-140.37"/>
<polygon fill="#63b8ff" stroke="#63b8ff" points="398.26,-143.67 408.86,-143.88 400.71,-137.11 398.26,-143.67"/>
</a>
</g>
</g>
<!-- Node5 -->
<g id="Node000005" class="node">
<title>Node5</title>
<g id="a_Node000005"><a xlink:href="classunilink_1_1config_1_1ConfigPresets.html#a0a962caed9068755a89dac24122b30ee" target="_top" xlink:title=" ">
<polygon fill="white" stroke="#666666" points="545,-126 387,-126 387,-96 545,-96 545,-126"/>
<text text-anchor="start" x="395" y="-114" font-family="Helvetica,sans-Serif" font-size="10.00">unilink::config::ConfigPresets</text>
<text text-anchor="middle" x="466" y="-103" font-family="Helvetica,sans-Serif" font-size="10.00">::setup_serial_defaults</text>
</a>
</g>
</g>
<!-- Node3&#45;&gt;Node5 -->
<g id="edge4_Node000003_Node000005" class="edge">
<title>Node3&#45;&gt;Node5</title>
<g id="a_edge4_Node000003_Node000005"><a xlink:title=" ">
<path fill="none" stroke="#63b8ff" d="M351.09,-96.76C359.6,-97.83 368.3,-98.91 376.92,-99.99"/>
<polygon fill="#63b8ff" stroke="#63b8ff" points="376.62,-103.48 386.98,-101.25 377.49,-96.53 376.62,-103.48"/>
</a>
</g>
</g>
<!-- Node6 -->
<g id="Node000006" class="node">
<title>Node6</title>
<g id="a_Node000006"><a xlink:href="classunilink_1_1config_1_1ConfigPresets.html#af3eb072f8546754247214bbf73feeed4" target="_top" xlink:title=" ">
<polygon fill="white" stroke="#666666" points="545,-78 387,-78 387,-48 545,-48 545,-78"/>
<text text-anchor="start" x="395" y="-66" font-family="Helvetica,sans-Serif" font-size="10.00">unilink::config::ConfigPresets</text>
<text text-anchor="middle" x="466" y="-55" font-family="Helvetica,sans-Serif" font-size="10.00">::setup_tcp_client_defaults</text>
</a>
</g>
</g>
<!-- Node3&#45;&gt;Node6 -->
<g id="edge5_Node000003_Node000006" class="edge">
<title>Node3&#45;&gt;Node6</title>
<g id="a_edge5_Node000003_Node000006"><a xlink:title=" ">
<path fill="none" stroke="#63b8ff" d="M351.09,-77.24C359.6,-76.17 368.3,-75.09 376.92,-74.01"/>
<polygon fill="#63b8ff" stroke="#63b8ff" points="377.49,-77.47 386.98,-72.75 376.62,-70.52 377.49,-77.47"/>
</a>
</g>
</g>
<!-- Node7 -->
<g id="Node000007" class="node">
<title>Node7</title>
<g id="a_Node000007"><a xlink:href="classunilink_1_1config_1_1ConfigPresets.html#a5becfb6839f288a6b50be2e276fb8c6e" target="_top" xlink:title=" ">
<polygon fill="white" stroke="#666666" points="545,-30 387,-30 387,0 545,0 545,-30"/>
<text text-anchor="start" x="395" y="-18" font-family="Helvetica,sans-Serif" font-size="10.00">unilink::config::ConfigPresets</text>
<text text-anchor="middle" x="466" y="-7" font-family="Helvetica,sans-Serif" font-size="10.00">::setup_tcp_server_defaults</text>
</a>
</g>
</g>
<!-- Node3&#45;&gt;Node7 -->
<g id="edge6_Node000003_Node000007" class="edge">
<title>Node3&#45;&gt;Node7</title>
<g id="a_edge6_Node000003_Node000007"><a xlink:title=" ">
<path fill="none" stroke="#63b8ff" d="M306.57,-71.82C329.09,-61.9 359.55,-48.97 387,-39 392.46,-37.02 398.17,-35.05 403.91,-33.15"/>
<polygon fill="#63b8ff" stroke="#63b8ff" points="405.13,-36.44 413.57,-30.02 402.98,-29.78 405.13,-36.44"/>
</a>
</g>
</g>
</g>
</svg>

<g id="navigator" transform="translate(0 0)" fill="#404254">
  <rect fill="#f2f5e9" fill-opacity="0.5" stroke="#606060" stroke-width=".5" x="0" y="0" width="60" height="60"/>
  <use id="zoomplus" xlink:href="#zoomPlus" x="17" y="9" onmousedown="handleZoom(evt,'in')"/>
  <use id="zoomminus" xlink:href="#zoomMin" x="42" y="9" onmousedown="handleZoom(evt,'out')"/>
  <use id="reset" xlink:href="#resetDef" x="30" y="36" onmousedown="handleReset()"/>
   <use id="arrowup" xlink:href="#arrowUp" x="0" y="0" onmousedown="handlePan(0,-1)"/>
  <use id="arrowright" xlink:href="#arrowRight" x="0" y="0" onmousedown="handlePan(1,0)"/>
  <use id="arrowdown" xlink:href="#arrowDown" x="0" y="0" onmousedown="handlePan(0,1)"/>
  <use id="arrowleft" xlink:href="#arrowLeft" x="0" y="0" onmousedown="handlePan(-1,0)"/>
</g>
<svg viewBox="0 0 15 15" width="100%" height="30px" preserveAspectRatio="xMaxYMin meet">
 <g id="arrow_out" transform="scale(0.3 0.3)">
  <a xlink:href="classunilink_1_1config_1_1ConfigFactory_a4edec9716691c78976092f69d6810ae5_cgraph_org.svg" target="_base">
   <rect id="button" ry="5" rx="5" y="6" x="6" height="38" width="38"
        fill="#f2f5e9" fill-opacity="0.5" stroke="#606060" stroke-width="1.0"/>
   <path id="arrow"
     d="M 11.500037,31.436501 C 11.940474,20.09759 22.043105,11.32322 32.158766,21.979434 L 37.068811,17.246167 C 37.068811,17.246167 37.088388,32 37.088388,32 L 22.160133,31.978069 C 22.160133,31.978069 26.997745,27.140456 26.997745,27.140456 C 18.528582,18.264221 13.291696,25.230495 11.500037,31.436501 z"
     style="fill:#404040;"/>
  </a>
 </g>
</svg>

<style type='text/css'>
<![CDATA[
[data-mouse-over-selected='false'] { opacity: 0.7; }
[data-mouse-over-selected='true']  { opacity: 1.0; }
]]>
</style>
<script type="application/ecmascript"><![CDATA[
document.addEventListener('DOMContentLoaded', (event) => {
  highlightEdges();
  highlightAdjacentNodes();
});
]]></script>
</svg>
