<?xml version="1.0" encoding="UTF-8" standalone="no"?>
<!DOCTYPE svg PUBLIC "-//W3C//DTD SVG 1.1//EN"
 "http://www.w3.org/Graphics/SVG/1.1/DTD/svg11.dtd">
<!-- Generated by graphviz version 2.43.0 (0)
 -->
<!-- Title: unilink::concurrency::ThreadSafeState&lt; StateType &gt; Pages: 1 -->
<svg width="193pt" height="186pt"
 viewBox="0.00 0.00 193.00 186.00" xmlns="http://www.w3.org/2000/svg" xmlns:xlink="http://www.w3.org/1999/xlink">
<g id="graph0" class="graph" transform="scale(1 1) rotate(0) translate(4 182)">
<title>unilink::concurrency::ThreadSafeState&lt; StateType &gt;</title>
<!-- Node1 -->
<g id="Node000001" class="node">
<title>Node1</title>
<g id="a_Node000001"><a xlink:title="Thread&#45;safe state management class.">
<polygon fill="#999999" stroke="transparent" points="168,-178 0,-178 0,-118 168,-118 168,-178"/>
<text text-anchor="start" x="5" y="-166" font-family="Helvetica,sans-Serif" font-size="10.00">unilink::concurrency</text>
<text text-anchor="start" x="5" y="-155" font-family="Helvetica,sans-Serif" font-size="10.00">::ThreadSafeState&lt; StateType &gt;</text>
<text text-anchor="start" x="82" y="-140" font-family="Helvetica,sans-Serif" font-size="10.00"> </text>
<text text-anchor="start" x="82" y="-125" font-family="Helvetica,sans-Serif" font-size="10.00"> </text>
<polygon fill="#666666" stroke="#666666" points="0,-150 0,-150 168,-150 168,-150 0,-150"/>
<polygon fill="#666666" stroke="#666666" points="0,-135 0,-135 168,-135 168,-135 0,-135"/>
<polygon fill="none" stroke="#666666" points="0,-118 0,-178 168,-178 168,-118 0,-118"/>
</a>
</g>
</g>
<!-- Node2 -->
<g id="Node000002" class="node">
<title>Node2</title>
<g id="a_Node000002"><a xlink:href="classunilink_1_1concurrency_1_1ThreadSafeState.html" target="_top" xlink:title=" ">
<polygon fill="white" stroke="transparent" points="150,-71 18,-71 18,0 150,0 150,-71"/>
<text text-anchor="start" x="23" y="-58.5" font-family="Helvetica,sans-Serif" font-size="10.00">unilink::concurrency</text>
<text text-anchor="start" x="23" y="-47.5" font-family="Helvetica,sans-Serif" font-size="10.00">::ThreadSafeState&lt; base</text>
<text text-anchor="start" x="52" y="-36.5" font-family="Helvetica,sans-Serif" font-size="10.00">::LinkState &gt;</text>
<text text-anchor="start" x="82" y="-21.5" font-family="Helvetica,sans-Serif" font-size="10.00"> </text>
<text text-anchor="start" x="82" y="-6.5" font-family="Helvetica,sans-Serif" font-size="10.00"> </text>
<polygon fill="#666666" stroke="#666666" points="18,-31.5 18,-31.5 150,-31.5 150,-31.5 18,-31.5"/>
<polygon fill="#666666" stroke="#666666" points="18,-16.5 18,-16.5 150,-16.5 150,-16.5 18,-16.5"/>
<polygon fill="none" stroke="#666666" points="18,0 18,-71 150,-71 150,0 18,0"/>
</a>
</g>
</g>
<!-- Node1&#45;&gt;Node2 -->
<g id="edge1_Node000001_Node000002" class="edge">
<title>Node1&#45;&gt;Node2</title>
<g id="a_edge1_Node000001_Node000002"><a xlink:title=" ">
<path fill="none" stroke="orange" d="M84,-107.82C84,-95.89 84,-82.86 84,-71.24"/>
<polygon fill="orange" stroke="orange" points="80.5,-107.97 84,-117.97 87.5,-107.97 80.5,-107.97"/>
</a>
</g>
<text text-anchor="middle" x="134.5" y="-92" font-family="Helvetica,sans-Serif" font-size="10.00" fill="grey"> &lt; base::LinkState &gt;</text>
</g>
</g>
</svg>
