<?xml version="1.0" encoding="UTF-8" standalone="no"?>
<!DOCTYPE svg PUBLIC "-//W3C//DTD SVG 1.1//EN"
 "http://www.w3.org/Graphics/SVG/1.1/DTD/svg11.dtd">
<!-- Generated by graphviz version 2.43.0 (0)
 -->
<!-- Title: unilink::config::ConfigFactory::create_from_file Pages: 1 -->
<svg width="553pt" height="182pt"
 viewBox="0.00 0.00 553.00 182.00" xmlns="http://www.w3.org/2000/svg" xmlns:xlink="http://www.w3.org/1999/xlink">
<g id="graph0" class="graph" transform="scale(1 1) rotate(0) translate(4 178)">
<title>unilink::config::ConfigFactory::create_from_file</title>
<!-- Node1 -->
<g id="Node000001" class="node">
<title>Node1</title>
<g id="a_Node000001"><a xlink:title=" ">
<polygon fill="#999999" stroke="#666666" points="157,-126 0,-126 0,-96 157,-96 157,-126"/>
<text text-anchor="start" x="8" y="-114" font-family="Helvetica,sans-Serif" font-size="10.00">unilink::config::ConfigFactory</text>
<text text-anchor="middle" x="78.5" y="-103" font-family="Helvetica,sans-Serif" font-size="10.00">::create_from_file</text>
</a>
</g>
</g>
<!-- Node2 -->
<g id="Node000002" class="node">
<title>Node2</title>
<g id="a_Node000002"><a xlink:href="classunilink_1_1config_1_1ConfigFactory.html#a69ad725f19260549b3d7282d84594fe5" target="_top" xlink:title=" ">
<polygon fill="white" stroke="#666666" points="350.5,-150 193.5,-150 193.5,-120 350.5,-120 350.5,-150"/>
<text text-anchor="start" x="201.5" y="-138" font-family="Helvetica,sans-Serif" font-size="10.00">unilink::config::ConfigFactory</text>
<text text-anchor="middle" x="272" y="-127" font-family="Helvetica,sans-Serif" font-size="10.00">::create</text>
</a>
</g>
</g>
<!-- Node1&#45;&gt;Node2 -->
<g id="edge1_Node000001_Node000002" class="edge">
<title>Node1&#45;&gt;Node2</title>
<g id="a_edge1_Node000001_Node000002"><a xlink:title=" ">
<path fill="none" stroke="#63b8ff" d="M157.11,-120.73C165.68,-121.8 174.45,-122.9 183.14,-123.99"/>
<polygon fill="#63b8ff" stroke="#63b8ff" points="182.92,-127.49 193.28,-125.26 183.79,-120.54 182.92,-127.49"/>
</a>
</g>
</g>
<!-- Node3 -->
<g id="Node000003" class="node">
<title>Node3</title>
<g id="a_Node000003"><a xlink:href="classunilink_1_1config_1_1ConfigPresets.html#ad14ccdce0fa26dc04fb713da77e5612e" target="_top" xlink:title=" ">
<polygon fill="white" stroke="#666666" points="351,-102 193,-102 193,-72 351,-72 351,-102"/>
<text text-anchor="start" x="201" y="-90" font-family="Helvetica,sans-Serif" font-size="10.00">unilink::config::ConfigPresets</text>
<text text-anchor="middle" x="272" y="-79" font-family="Helvetica,sans-Serif" font-size="10.00">::setup_all_defaults</text>
</a>
</g>
</g>
<!-- Node1&#45;&gt;Node3 -->
<g id="edge2_Node000001_Node000003" class="edge">
<title>Node1&#45;&gt;Node3</title>
<g id="a_edge2_Node000001_Node000003"><a xlink:title=" ">
<path fill="none" stroke="#63b8ff" d="M157.11,-101.27C165.61,-100.21 174.3,-99.12 182.91,-98.04"/>
<polygon fill="#63b8ff" stroke="#63b8ff" points="183.48,-101.5 192.96,-96.78 182.61,-94.55 183.48,-101.5"/>
</a>
</g>
</g>
<!-- Node4 -->
<g id="Node000004" class="node">
<title>Node4</title>
<g id="a_Node000004"><a xlink:href="classunilink_1_1config_1_1ConfigPresets.html#ac5fa0f6beb3c0cad1b83986ef7c8a78a" target="_top" xlink:title=" ">
<polygon fill="white" stroke="#666666" points="545,-174 387,-174 387,-144 545,-144 545,-174"/>
<text text-anchor="start" x="395" y="-162" font-family="Helvetica,sans-Serif" font-size="10.00">unilink::config::ConfigPresets</text>
<text text-anchor="middle" x="466" y="-151" font-family="Helvetica,sans-Serif" font-size="10.00">::setup_logging_defaults</text>
</a>
</g>
</g>
<!-- Node3&#45;&gt;Node4 -->
<g id="edge3_Node000003_Node000004" class="edge">
<title>Node3&#45;&gt;Node4</title>
<g id="a_edge3_Node000003_Node000004"><a xlink:title=" ">
<path fill="none" stroke="#63b8ff" d="M329.14,-102.12C336.62,-104.75 344.09,-107.72 351,-111 368.37,-119.25 369.63,-126.75 387,-135 391,-136.9 395.18,-138.69 399.44,-140.37"/>
<polygon fill="#63b8ff" stroke="#63b8ff" points="398.26,-143.67 408.86,-143.88 400.71,-137.11 398.26,-143.67"/>
</a>
</g>
</g>
<!-- Node5 -->
<g id="Node000005" class="node">
<title>Node5</title>
<g id="a_Node000005"><a xlink:href="classunilink_1_1config_1_1ConfigPresets.html#a0a962caed9068755a89dac24122b30ee" target="_top" xlink:title=" ">
<polygon fill="white" stroke="#666666" points="545,-126 387,-126 387,-96 545,-96 545,-126"/>
<text text-anchor="start" x="395" y="-114" font-family="Helvetica,sans-Serif" font-size="10.00">unilink::config::ConfigPresets</text>
<text text-anchor="middle" x="466" y="-103" font-family="Helvetica,sans-Serif" font-size="10.00">::setup_serial_defaults</text>
</a>
</g>
</g>
<!-- Node3&#45;&gt;Node5 -->
<g id="edge4_Node000003_Node000005" class="edge">
<title>Node3&#45;&gt;Node5</title>
<g id="a_edge4_Node000003_Node000005"><a xlink:title=" ">
<path fill="none" stroke="#63b8ff" d="M351.09,-96.76C359.6,-97.83 368.3,-98.91 376.92,-99.99"/>
<polygon fill="#63b8ff" stroke="#63b8ff" points="376.62,-103.48 386.98,-101.25 377.49,-96.53 376.62,-103.48"/>
</a>
</g>
</g>
<!-- Node6 -->
<g id="Node000006" class="node">
<title>Node6</title>
<g id="a_Node000006"><a xlink:href="classunilink_1_1config_1_1ConfigPresets.html#af3eb072f8546754247214bbf73feeed4" target="_top" xlink:title=" ">
<polygon fill="white" stroke="#666666" points="545,-78 387,-78 387,-48 545,-48 545,-78"/>
<text text-anchor="start" x="395" y="-66" font-family="Helvetica,sans-Serif" font-size="10.00">unilink::config::ConfigPresets</text>
<text text-anchor="middle" x="466" y="-55" font-family="Helvetica,sans-Serif" font-size="10.00">::setup_tcp_client_defaults</text>
</a>
</g>
</g>
<!-- Node3&#45;&gt;Node6 -->
<g id="edge5_Node000003_Node000006" class="edge">
<title>Node3&#45;&gt;Node6</title>
<g id="a_edge5_Node000003_Node000006"><a xlink:title=" ">
<path fill="none" stroke="#63b8ff" d="M351.09,-77.24C359.6,-76.17 368.3,-75.09 376.92,-74.01"/>
<polygon fill="#63b8ff" stroke="#63b8ff" points="377.49,-77.47 386.98,-72.75 376.62,-70.52 377.49,-77.47"/>
</a>
</g>
</g>
<!-- Node7 -->
<g id="Node000007" class="node">
<title>Node7</title>
<g id="a_Node000007"><a xlink:href="classunilink_1_1config_1_1ConfigPresets.html#a5becfb6839f288a6b50be2e276fb8c6e" target="_top" xlink:title=" ">
<polygon fill="white" stroke="#666666" points="545,-30 387,-30 387,0 545,0 545,-30"/>
<text text-anchor="start" x="395" y="-18" font-family="Helvetica,sans-Serif" font-size="10.00">unilink::config::ConfigPresets</text>
<text text-anchor="middle" x="466" y="-7" font-family="Helvetica,sans-Serif" font-size="10.00">::setup_tcp_server_defaults</text>
</a>
</g>
</g>
<!-- Node3&#45;&gt;Node7 -->
<g id="edge6_Node000003_Node000007" class="edge">
<title>Node3&#45;&gt;Node7</title>
<g id="a_edge6_Node000003_Node000007"><a xlink:title=" ">
<path fill="none" stroke="#63b8ff" d="M306.57,-71.82C329.09,-61.9 359.55,-48.97 387,-39 392.46,-37.02 398.17,-35.05 403.91,-33.15"/>
<polygon fill="#63b8ff" stroke="#63b8ff" points="405.13,-36.44 413.57,-30.02 402.98,-29.78 405.13,-36.44"/>
</a>
</g>
</g>
</g>
</svg>
