<?xml version="1.0" encoding="UTF-8" standalone="no"?>
<!DOCTYPE svg PUBLIC "-//W3C//DTD SVG 1.1//EN"
 "http://www.w3.org/Graphics/SVG/1.1/DTD/svg11.dtd">
<!-- Generated by graphviz version 2.43.0 (0)
 -->
<!-- Title: unilink::config::ConfigFactory::get_singleton Pages: 1 -->
<svg width="746pt" height="182pt"
 viewBox="0.00 0.00 746.00 182.00" xmlns="http://www.w3.org/2000/svg" xmlns:xlink="http://www.w3.org/1999/xlink">
<g id="graph0" class="graph" transform="scale(1 1) rotate(0) translate(4 178)">
<title>unilink::config::ConfigFactory::get_singleton</title>
<!-- Node1 -->
<g id="Node000001" class="node">
<title>Node1</title>
<g id="a_Node000001"><a xlink:title=" ">
<polygon fill="#999999" stroke="#666666" points="157,-126 0,-126 0,-96 157,-96 157,-126"/>
<text text-anchor="start" x="8" y="-114" font-family="Helvetica,sans-Serif" font-size="10.00">unilink::config::ConfigFactory</text>
<text text-anchor="middle" x="78.5" y="-103" font-family="Helvetica,sans-Serif" font-size="10.00">::get_singleton</text>
</a>
</g>
</g>
<!-- Node2 -->
<g id="Node000002" class="node">
<title>Node2</title>
<g id="a_Node000002"><a xlink:href="classunilink_1_1config_1_1ConfigFactory.html#a4edec9716691c78976092f69d6810ae5" target="_top" xlink:title=" ">
<polygon fill="white" stroke="#666666" points="350,-126 193,-126 193,-96 350,-96 350,-126"/>
<text text-anchor="start" x="201" y="-114" font-family="Helvetica,sans-Serif" font-size="10.00">unilink::config::ConfigFactory</text>
<text text-anchor="middle" x="271.5" y="-103" font-family="Helvetica,sans-Serif" font-size="10.00">::create_with_defaults</text>
</a>
</g>
</g>
<!-- Node1&#45;&gt;Node2 -->
<g id="edge1_Node000001_Node000002" class="edge">
<title>Node1&#45;&gt;Node2</title>
<g id="a_edge1_Node000001_Node000002"><a xlink:title=" ">
<path fill="none" stroke="#63b8ff" d="M157.19,-111C165.65,-111 174.31,-111 182.88,-111"/>
<polygon fill="#63b8ff" stroke="#63b8ff" points="182.88,-114.5 192.88,-111 182.88,-107.5 182.88,-114.5"/>
</a>
</g>
</g>
<!-- Node3 -->
<g id="Node000003" class="node">
<title>Node3</title>
<g id="a_Node000003"><a xlink:href="classunilink_1_1config_1_1ConfigFactory.html#a69ad725f19260549b3d7282d84594fe5" target="_top" xlink:title=" ">
<polygon fill="white" stroke="#666666" points="543.5,-150 386.5,-150 386.5,-120 543.5,-120 543.5,-150"/>
<text text-anchor="start" x="394.5" y="-138" font-family="Helvetica,sans-Serif" font-size="10.00">unilink::config::ConfigFactory</text>
<text text-anchor="middle" x="465" y="-127" font-family="Helvetica,sans-Serif" font-size="10.00">::create</text>
</a>
</g>
</g>
<!-- Node2&#45;&gt;Node3 -->
<g id="edge2_Node000002_Node000003" class="edge">
<title>Node2&#45;&gt;Node3</title>
<g id="a_edge2_Node000002_Node000003"><a xlink:title=" ">
<path fill="none" stroke="#63b8ff" d="M350.11,-120.73C358.68,-121.8 367.45,-122.9 376.14,-123.99"/>
<polygon fill="#63b8ff" stroke="#63b8ff" points="375.92,-127.49 386.28,-125.26 376.79,-120.54 375.92,-127.49"/>
</a>
</g>
</g>
<!-- Node4 -->
<g id="Node000004" class="node">
<title>Node4</title>
<g id="a_Node000004"><a xlink:href="classunilink_1_1config_1_1ConfigPresets.html#ad14ccdce0fa26dc04fb713da77e5612e" target="_top" xlink:title=" ">
<polygon fill="white" stroke="#666666" points="544,-102 386,-102 386,-72 544,-72 544,-102"/>
<text text-anchor="start" x="394" y="-90" font-family="Helvetica,sans-Serif" font-size="10.00">unilink::config::ConfigPresets</text>
<text text-anchor="middle" x="465" y="-79" font-family="Helvetica,sans-Serif" font-size="10.00">::setup_all_defaults</text>
</a>
</g>
</g>
<!-- Node2&#45;&gt;Node4 -->
<g id="edge3_Node000002_Node000004" class="edge">
<title>Node2&#45;&gt;Node4</title>
<g id="a_edge3_Node000002_Node000004"><a xlink:title=" ">
<path fill="none" stroke="#63b8ff" d="M350.11,-101.27C358.61,-100.21 367.3,-99.12 375.91,-98.04"/>
<polygon fill="#63b8ff" stroke="#63b8ff" points="376.48,-101.5 385.96,-96.78 375.61,-94.55 376.48,-101.5"/>
</a>
</g>
</g>
<!-- Node5 -->
<g id="Node000005" class="node">
<title>Node5</title>
<g id="a_Node000005"><a xlink:href="classunilink_1_1config_1_1ConfigPresets.html#ac5fa0f6beb3c0cad1b83986ef7c8a78a" target="_top" xlink:title=" ">
<polygon fill="white" stroke="#666666" points="738,-174 580,-174 580,-144 738,-144 738,-174"/>
<text text-anchor="start" x="588" y="-162" font-family="Helvetica,sans-Serif" font-size="10.00">unilink::config::ConfigPresets</text>
<text text-anchor="middle" x="659" y="-151" font-family="Helvetica,sans-Serif" font-size="10.00">::setup_logging_defaults</text>
</a>
</g>
</g>
<!-- Node4&#45;&gt;Node5 -->
<g id="edge4_Node000004_Node000005" class="edge">
<title>Node4&#45;&gt;Node5</title>
<g id="a_edge4_Node000004_Node000005"><a xlink:title=" ">
<path fill="none" stroke="#63b8ff" d="M522.14,-102.12C529.62,-104.75 537.09,-107.72 544,-111 561.37,-119.25 562.63,-126.75 580,-135 584,-136.9 588.18,-138.69 592.44,-140.37"/>
<polygon fill="#63b8ff" stroke="#63b8ff" points="591.26,-143.67 601.86,-143.88 593.71,-137.11 591.26,-143.67"/>
</a>
</g>
</g>
<!-- Node6 -->
<g id="Node000006" class="node">
<title>Node6</title>
<g id="a_Node000006"><a xlink:href="classunilink_1_1config_1_1ConfigPresets.html#a0a962caed9068755a89dac24122b30ee" target="_top" xlink:title=" ">
<polygon fill="white" stroke="#666666" points="738,-126 580,-126 580,-96 738,-96 738,-126"/>
<text text-anchor="start" x="588" y="-114" font-family="Helvetica,sans-Serif" font-size="10.00">unilink::config::ConfigPresets</text>
<text text-anchor="middle" x="659" y="-103" font-family="Helvetica,sans-Serif" font-size="10.00">::setup_serial_defaults</text>
</a>
</g>
</g>
<!-- Node4&#45;&gt;Node6 -->
<g id="edge5_Node000004_Node000006" class="edge">
<title>Node4&#45;&gt;Node6</title>
<g id="a_edge5_Node000004_Node000006"><a xlink:title=" ">
<path fill="none" stroke="#63b8ff" d="M544.09,-96.76C552.6,-97.83 561.3,-98.91 569.92,-99.99"/>
<polygon fill="#63b8ff" stroke="#63b8ff" points="569.62,-103.48 579.98,-101.25 570.49,-96.53 569.62,-103.48"/>
</a>
</g>
</g>
<!-- Node7 -->
<g id="Node000007" class="node">
<title>Node7</title>
<g id="a_Node000007"><a xlink:href="classunilink_1_1config_1_1ConfigPresets.html#af3eb072f8546754247214bbf73feeed4" target="_top" xlink:title=" ">
<polygon fill="white" stroke="#666666" points="738,-78 580,-78 580,-48 738,-48 738,-78"/>
<text text-anchor="start" x="588" y="-66" font-family="Helvetica,sans-Serif" font-size="10.00">unilink::config::ConfigPresets</text>
<text text-anchor="middle" x="659" y="-55" font-family="Helvetica,sans-Serif" font-size="10.00">::setup_tcp_client_defaults</text>
</a>
</g>
</g>
<!-- Node4&#45;&gt;Node7 -->
<g id="edge6_Node000004_Node000007" class="edge">
<title>Node4&#45;&gt;Node7</title>
<g id="a_edge6_Node000004_Node000007"><a xlink:title=" ">
<path fill="none" stroke="#63b8ff" d="M544.09,-77.24C552.6,-76.17 561.3,-75.09 569.92,-74.01"/>
<polygon fill="#63b8ff" stroke="#63b8ff" points="570.49,-77.47 579.98,-72.75 569.62,-70.52 570.49,-77.47"/>
</a>
</g>
</g>
<!-- Node8 -->
<g id="Node000008" class="node">
<title>Node8</title>
<g id="a_Node000008"><a xlink:href="classunilink_1_1config_1_1ConfigPresets.html#a5becfb6839f288a6b50be2e276fb8c6e" target="_top" xlink:title=" ">
<polygon fill="white" stroke="#666666" points="738,-30 580,-30 580,0 738,0 738,-30"/>
<text text-anchor="start" x="588" y="-18" font-family="Helvetica,sans-Serif" font-size="10.00">unilink::config::ConfigPresets</text>
<text text-anchor="middle" x="659" y="-7" font-family="Helvetica,sans-Serif" font-size="10.00">::setup_tcp_server_defaults</text>
</a>
</g>
</g>
<!-- Node4&#45;&gt;Node8 -->
<g id="edge7_Node000004_Node000008" class="edge">
<title>Node4&#45;&gt;Node8</title>
<g id="a_edge7_Node000004_Node000008"><a xlink:title=" ">
<path fill="none" stroke="#63b8ff" d="M499.57,-71.82C522.09,-61.9 552.55,-48.97 580,-39 585.46,-37.02 591.17,-35.05 596.91,-33.15"/>
<polygon fill="#63b8ff" stroke="#63b8ff" points="598.13,-36.44 606.57,-30.02 595.98,-29.78 598.13,-36.44"/>
</a>
</g>
</g>
</g>
</svg>
