<?xml version="1.0" encoding="UTF-8" standalone="no"?>
<!DOCTYPE svg PUBLIC "-//W3C//DTD SVG 1.1//EN"
 "http://www.w3.org/Graphics/SVG/1.1/DTD/svg11.dtd">
<!-- Generated by graphviz version 2.43.0 (0)
 -->
<!-- Title: unilink::transport::UdsClient Pages: 1 -->
<svg width="252pt" height="164pt"
 viewBox="0.00 0.00 251.50 164.00" xmlns="http://www.w3.org/2000/svg" xmlns:xlink="http://www.w3.org/1999/xlink">

<svg id="main" version="1.1" xmlns="http://www.w3.org/2000/svg" xmlns:xlink="http://www.w3.org/1999/xlink" xml:space="preserve" onload="init(evt)">
<style type="text/css"><![CDATA[
.node, .edge {opacity: 0.7;}
.node.selected, .edge.selected {opacity: 1;}
.edge:hover path { stroke: red; }
.edge:hover polygon { stroke: red; fill: red; }
]]></style>
<script type="application/ecmascript" xlink:href="svg.min.js"/>
<svg id="graph" class="graph">
<g id="graph0" class="graph" transform="scale(1 1) rotate(0) translate(4 160)">
<title>unilink::transport::UdsClient</title>
<!-- Node1 -->
<g id="Node000001" class="node">
<title>Node1</title>
<g id="a_Node000001"><a xlink:title="Thread&#45;safe UDS Client implementation.">
<polygon fill="#999999" stroke="transparent" points="158.5,-60 64.5,-60 64.5,0 158.5,0 158.5,-60"/>
<text text-anchor="start" x="69.5" y="-48" font-family="Helvetica,sans-Serif" font-size="10.00">unilink::transport</text>
<text text-anchor="start" x="84.5" y="-37" font-family="Helvetica,sans-Serif" font-size="10.00">::UdsClient</text>
<text text-anchor="start" x="109.5" y="-22" font-family="Helvetica,sans-Serif" font-size="10.00"> </text>
<text text-anchor="start" x="109.5" y="-7" font-family="Helvetica,sans-Serif" font-size="10.00"> </text>
<polygon fill="#666666" stroke="#666666" points="64.5,-32 64.5,-32 158.5,-32 158.5,-32 64.5,-32"/>
<polygon fill="#666666" stroke="#666666" points="64.5,-17 64.5,-17 158.5,-17 158.5,-17 64.5,-17"/>
<polygon fill="none" stroke="#666666" points="64.5,0 64.5,-60 158.5,-60 158.5,0 64.5,0"/>
</a>
</g>
</g>
<!-- Node2 -->
<g id="Node000002" class="node">
<title>Node2</title>
<g id="a_Node000002"><a xlink:href="classunilink_1_1interface_1_1Channel.html" target="_top" xlink:title=" ">
<polygon fill="white" stroke="transparent" points="93,-156 0,-156 0,-96 93,-96 93,-156"/>
<text text-anchor="start" x="5.5" y="-144" font-family="Helvetica,sans-Serif" font-size="10.00">unilink::interface</text>
<text text-anchor="start" x="24" y="-133" font-family="Helvetica,sans-Serif" font-size="10.00">::Channel</text>
<text text-anchor="start" x="45" y="-118" font-family="Helvetica,sans-Serif" font-size="10.00"> </text>
<text text-anchor="start" x="45" y="-103" font-family="Helvetica,sans-Serif" font-size="10.00"> </text>
<polygon fill="#bfbfbf" stroke="#bfbfbf" points="0.5,-128 0.5,-128 93.5,-128 93.5,-128 0.5,-128"/>
<polygon fill="#bfbfbf" stroke="#bfbfbf" points="0.5,-113 0.5,-113 93.5,-113 93.5,-113 0.5,-113"/>
<polygon fill="none" stroke="#bfbfbf" points="0,-96 0,-156 93,-156 93,-96 0,-96"/>
</a>
</g>
</g>
<!-- Node2&#45;&gt;Node1 -->
<g id="edge1_Node000001_Node000002" class="edge">
<title>Node2&#45;&gt;Node1</title>
<g id="a_edge1_Node000001_Node000002"><a xlink:title=" ">
<path fill="none" stroke="#63b8ff" d="M72.56,-87.31C78.8,-78.29 85.37,-68.78 91.3,-60.21"/>
<polygon fill="none" stroke="#63b8ff" points="69.52,-85.56 66.71,-95.77 75.28,-89.54 69.52,-85.56"/>
</a>
</g>
</g>
<!-- Node3 -->
<g id="Node000003" class="node">
<title>Node3</title>
<g id="a_Node000003"><a xlink:title=" ">
<polygon fill="white" stroke="transparent" points="243.5,-156 111.5,-156 111.5,-96 243.5,-96 243.5,-156"/>
<text text-anchor="start" x="116.5" y="-144" font-family="Helvetica,sans-Serif" font-size="10.00">std::enable_shared</text>
<text text-anchor="start" x="116.5" y="-133" font-family="Helvetica,sans-Serif" font-size="10.00">_from_this&lt; UdsClient &gt;</text>
<text text-anchor="start" x="175.5" y="-118" font-family="Helvetica,sans-Serif" font-size="10.00"> </text>
<text text-anchor="start" x="175.5" y="-103" font-family="Helvetica,sans-Serif" font-size="10.00"> </text>
<polygon fill="#bfbfbf" stroke="#bfbfbf" points="111.5,-128 111.5,-128 243.5,-128 243.5,-128 111.5,-128"/>
<polygon fill="#bfbfbf" stroke="#bfbfbf" points="111.5,-113 111.5,-113 243.5,-113 243.5,-113 111.5,-113"/>
<polygon fill="none" stroke="#bfbfbf" points="111.5,-96 111.5,-156 243.5,-156 243.5,-96 111.5,-96"/>
</a>
</g>
</g>
<!-- Node3&#45;&gt;Node1 -->
<g id="edge2_Node000001_Node000003" class="edge">
<title>Node3&#45;&gt;Node1</title>
<g id="a_edge2_Node000001_Node000003"><a xlink:title=" ">
<path fill="none" stroke="#63b8ff" d="M151.04,-87.31C144.7,-78.29 138.03,-68.78 132.01,-60.21"/>
<polygon fill="none" stroke="#63b8ff" points="148.37,-89.6 156.98,-95.77 154.1,-85.58 148.37,-89.6"/>
</a>
</g>
</g>
</g>
</svg>
</svg>

<style type='text/css'>
<![CDATA[
[data-mouse-over-selected='false'] { opacity: 0.7; }
[data-mouse-over-selected='true']  { opacity: 1.0; }
]]>
</style>
<script type="application/ecmascript"><![CDATA[
document.addEventListener('DOMContentLoaded', (event) => {
  highlightEdges();
  highlightAdjacentNodes();
});
]]></script>
</svg>
