<?xml version="1.0" encoding="UTF-8" standalone="no"?>
<!DOCTYPE svg PUBLIC "-//W3C//DTD SVG 1.1//EN"
 "http://www.w3.org/Graphics/SVG/1.1/DTD/svg11.dtd">
<!-- Generated by graphviz version 2.43.0 (0)
 -->
<!-- Title: unilink::interface::SerialPortInterface Pages: 1 -->
<svg width="115pt" height="164pt"
 viewBox="0.00 0.00 115.00 164.00" xmlns="http://www.w3.org/2000/svg" xmlns:xlink="http://www.w3.org/1999/xlink">

<svg id="main" version="1.1" xmlns="http://www.w3.org/2000/svg" xmlns:xlink="http://www.w3.org/1999/xlink" xml:space="preserve" onload="init(evt)">
<style type="text/css"><![CDATA[
.node, .edge {opacity: 0.7;}
.node.selected, .edge.selected {opacity: 1;}
.edge:hover path { stroke: red; }
.edge:hover polygon { stroke: red; fill: red; }
]]></style>
<script type="application/ecmascript" xlink:href="svg.min.js"/>
<svg id="graph" class="graph">
<g id="graph0" class="graph" transform="scale(1 1) rotate(0) translate(4 160)">
<title>unilink::interface::SerialPortInterface</title>
<!-- Node1 -->
<g id="Node000001" class="node">
<title>Node1</title>
<g id="a_Node000001"><a xlink:title="An interface abstracting Boost.Asio&#39;s serial_port for testability. This is an internal interface used...">
<polygon fill="#999999" stroke="transparent" points="107,-156 0,-156 0,-96 107,-96 107,-156"/>
<text text-anchor="start" x="5.5" y="-144" font-family="Helvetica,sans-Serif" font-size="10.00">unilink::interface</text>
<text text-anchor="start" x="5.5" y="-133" font-family="Helvetica,sans-Serif" font-size="10.00">::SerialPortInterface</text>
<text text-anchor="start" x="52" y="-118" font-family="Helvetica,sans-Serif" font-size="10.00"> </text>
<text text-anchor="start" x="52" y="-103" font-family="Helvetica,sans-Serif" font-size="10.00"> </text>
<polygon fill="#666666" stroke="#666666" points="0.5,-128 0.5,-128 107.5,-128 107.5,-128 0.5,-128"/>
<polygon fill="#666666" stroke="#666666" points="0.5,-113 0.5,-113 107.5,-113 107.5,-113 0.5,-113"/>
<polygon fill="none" stroke="#666666" points="0,-96 0,-156 107,-156 107,-96 0,-96"/>
</a>
</g>
</g>
<!-- Node2 -->
<g id="Node000002" class="node">
<title>Node2</title>
<g id="a_Node000002"><a xlink:href="classunilink_1_1transport_1_1BoostSerialPort.html" target="_top" xlink:title=" ">
<polygon fill="white" stroke="transparent" points="100.5,-60 6.5,-60 6.5,0 100.5,0 100.5,-60"/>
<text text-anchor="start" x="11.5" y="-48" font-family="Helvetica,sans-Serif" font-size="10.00">unilink::transport</text>
<text text-anchor="start" x="12.5" y="-37" font-family="Helvetica,sans-Serif" font-size="10.00">::BoostSerialPort</text>
<text text-anchor="start" x="51.5" y="-22" font-family="Helvetica,sans-Serif" font-size="10.00"> </text>
<text text-anchor="start" x="51.5" y="-7" font-family="Helvetica,sans-Serif" font-size="10.00"> </text>
<polygon fill="#bfbfbf" stroke="#bfbfbf" points="6.5,-32 6.5,-32 100.5,-32 100.5,-32 6.5,-32"/>
<polygon fill="#bfbfbf" stroke="#bfbfbf" points="6.5,-17 6.5,-17 100.5,-17 100.5,-17 6.5,-17"/>
<polygon fill="none" stroke="#bfbfbf" points="6.5,0 6.5,-60 100.5,-60 100.5,0 6.5,0"/>
</a>
</g>
</g>
<!-- Node1&#45;&gt;Node2 -->
<g id="edge1_Node000001_Node000002" class="edge">
<title>Node1&#45;&gt;Node2</title>
<g id="a_edge1_Node000001_Node000002"><a xlink:title=" ">
<path fill="none" stroke="#63b8ff" d="M53.5,-85.63C53.5,-77.11 53.5,-68.25 53.5,-60.21"/>
<polygon fill="none" stroke="#63b8ff" points="50,-85.77 53.5,-95.77 57,-85.77 50,-85.77"/>
</a>
</g>
</g>
</g>
</svg>
</svg>

<style type='text/css'>
<![CDATA[
[data-mouse-over-selected='false'] { opacity: 0.7; }
[data-mouse-over-selected='true']  { opacity: 1.0; }
]]>
</style>
<script type="application/ecmascript"><![CDATA[
document.addEventListener('DOMContentLoaded', (event) => {
  highlightEdges();
  highlightAdjacentNodes();
});
]]></script>
</svg>
