<?xml version="1.0" encoding="UTF-8" standalone="no"?>
<!DOCTYPE svg PUBLIC "-//W3C//DTD SVG 1.1//EN"
 "http://www.w3.org/Graphics/SVG/1.1/DTD/svg11.dtd">
<!-- Generated by graphviz version 2.43.0 (0)
 -->
<!-- Title: unilink::diagnostics::ConfigurationException Pages: 1 -->
<svg width="138pt" height="249pt"
 viewBox="0.00 0.00 138.00 249.00" xmlns="http://www.w3.org/2000/svg" xmlns:xlink="http://www.w3.org/1999/xlink">
<g id="graph0" class="graph" transform="scale(1 1) rotate(0) translate(4 245)">
<title>unilink::diagnostics::ConfigurationException</title>
<!-- Node1 -->
<g id="Node000001" class="node">
<title>Node1</title>
<g id="a_Node000001"><a xlink:title="Exception thrown during configuration operations.">
<polygon fill="#999999" stroke="transparent" points="130,-60 0,-60 0,0 130,0 130,-60"/>
<text text-anchor="start" x="5" y="-48" font-family="Helvetica,sans-Serif" font-size="10.00">unilink::diagnostics</text>
<text text-anchor="start" x="5" y="-37" font-family="Helvetica,sans-Serif" font-size="10.00">::ConfigurationException</text>
<text text-anchor="start" x="63" y="-22" font-family="Helvetica,sans-Serif" font-size="10.00"> </text>
<text text-anchor="start" x="63" y="-7" font-family="Helvetica,sans-Serif" font-size="10.00"> </text>
<polygon fill="#666666" stroke="#666666" points="0,-32 0,-32 130,-32 130,-32 0,-32"/>
<polygon fill="#666666" stroke="#666666" points="0,-17 0,-17 130,-17 130,-17 0,-17"/>
<polygon fill="none" stroke="#666666" points="0,0 0,-60 130,-60 130,0 0,0"/>
</a>
</g>
</g>
<!-- Node2 -->
<g id="Node000002" class="node">
<title>Node2</title>
<g id="a_Node000002"><a xlink:href="classunilink_1_1diagnostics_1_1UnilinkException.html" target="_top" xlink:title="Base exception class for all unilink exceptions.">
<polygon fill="white" stroke="transparent" points="117.5,-156 12.5,-156 12.5,-96 117.5,-96 117.5,-156"/>
<text text-anchor="start" x="18" y="-144" font-family="Helvetica,sans-Serif" font-size="10.00">unilink::diagnostics</text>
<text text-anchor="start" x="21" y="-133" font-family="Helvetica,sans-Serif" font-size="10.00">::UnilinkException</text>
<text text-anchor="start" x="63.5" y="-118" font-family="Helvetica,sans-Serif" font-size="10.00"> </text>
<text text-anchor="start" x="63.5" y="-103" font-family="Helvetica,sans-Serif" font-size="10.00"> </text>
<polygon fill="#666666" stroke="#666666" points="13,-128 13,-128 118,-128 118,-128 13,-128"/>
<polygon fill="#666666" stroke="#666666" points="13,-113 13,-113 118,-113 118,-113 13,-113"/>
<polygon fill="none" stroke="#666666" points="12.5,-96 12.5,-156 117.5,-156 117.5,-96 12.5,-96"/>
</a>
</g>
</g>
<!-- Node2&#45;&gt;Node1 -->
<g id="edge1_Node000001_Node000002" class="edge">
<title>Node2&#45;&gt;Node1</title>
<g id="a_edge1_Node000001_Node000002"><a xlink:title=" ">
<path fill="none" stroke="#63b8ff" d="M65,-85.63C65,-77.11 65,-68.25 65,-60.21"/>
<polygon fill="none" stroke="#63b8ff" points="61.5,-85.77 65,-95.77 68.5,-85.77 61.5,-85.77"/>
</a>
</g>
</g>
<!-- Node3 -->
<g id="Node000003" class="node">
<title>Node3</title>
<g id="a_Node000003"><a xlink:title=" ">
<polygon fill="white" stroke="transparent" points="114,-241 16,-241 16,-192 114,-192 114,-241"/>
<text text-anchor="start" x="21" y="-228.5" font-family="Helvetica,sans-Serif" font-size="10.00">std::runtime_error</text>
<text text-anchor="start" x="63" y="-213.5" font-family="Helvetica,sans-Serif" font-size="10.00"> </text>
<text text-anchor="start" x="63" y="-198.5" font-family="Helvetica,sans-Serif" font-size="10.00"> </text>
<polygon fill="#bfbfbf" stroke="#bfbfbf" points="16,-223.5 16,-223.5 114,-223.5 114,-223.5 16,-223.5"/>
<polygon fill="#bfbfbf" stroke="#bfbfbf" points="16,-208.5 16,-208.5 114,-208.5 114,-208.5 16,-208.5"/>
<polygon fill="none" stroke="#bfbfbf" points="16,-192 16,-241 114,-241 114,-192 16,-192"/>
</a>
</g>
</g>
<!-- Node3&#45;&gt;Node2 -->
<g id="edge2_Node000002_Node000003" class="edge">
<title>Node3&#45;&gt;Node2</title>
<g id="a_edge2_Node000002_Node000003"><a xlink:title=" ">
<path fill="none" stroke="#63b8ff" d="M65,-181.55C65,-173.18 65,-164.28 65,-156.16"/>
<polygon fill="none" stroke="#63b8ff" points="61.5,-181.78 65,-191.78 68.5,-181.78 61.5,-181.78"/>
</a>
</g>
</g>
</g>
</svg>
