<?xml version="1.0" encoding="UTF-8" standalone="no"?>
<!DOCTYPE svg PUBLIC "-//W3C//DTD SVG 1.1//EN"
 "http://www.w3.org/Graphics/SVG/1.1/DTD/svg11.dtd">
<!-- Generated by graphviz version 2.43.0 (0)
 -->
<!-- Title: unilink::wrapper::TcpServer Pages: 1 -->
<!--zoomable 453 -->

<svg id="main" version="1.1" xmlns="http://www.w3.org/2000/svg" xmlns:xlink="http://www.w3.org/1999/xlink" xml:space="preserve" onload="init(evt)">
<style type="text/css"><![CDATA[
.node, .edge {opacity: 0.7;}
.node.selected, .edge.selected {opacity: 1;}
.edge:hover path { stroke: red; }
.edge:hover polygon { stroke: red; fill: red; }
]]></style>

<defs>
  <circle id="rim" cx="0" cy="0" r="7"/>
  <circle id="rim2" cx="0" cy="0" r="3.5"/>
  <g id="zoomPlus">
    <use xlink:href="#rim" fill="#404040"><set attributeName="fill" to="#808080" begin="zoomplus.mouseover" end="zoomplus.mouseout"/></use>
    <path d="M-4,0h8M0,-4v8" fill="none" stroke="white" stroke-width="1.5" pointer-events="none"/>
  </g>
  <g id="zoomMin">
    <use xlink:href="#rim" fill="#404040"><set attributeName="fill" to="#808080" begin="zoomminus.mouseover" end="zoomminus.mouseout"/></use>
    <path d="M-4,0h8" fill="none" stroke="white" stroke-width="1.5" pointer-events="none"/>
  </g>
  <g id="arrowUp" transform="translate(30 24)">
    <use xlink:href="#rim"/>
    <path pointer-events="none" fill="none" stroke="white" stroke-width="1.5" d="M0,-3.0v7 M-2.5,-0.5L0,-3.0L2.5,-0.5"/>
  </g>
  <g id="arrowRight" transform="rotate(90) translate(36 -43)">
    <use xlink:href="#rim"/>
    <path pointer-events="none" fill="none" stroke="white" stroke-width="1.5" d="M0,-3.0v7 M-2.5,-0.5L0,-3.0L2.5,-0.5"/>
  </g>
  <g id="arrowDown" transform="rotate(180) translate(-30 -48)">
    <use xlink:href="#rim"/>
    <path pointer-events="none" fill="none" stroke="white" stroke-width="1.5" d="M0,-3.0v7 M-2.5,-0.5L0,-3.0L2.5,-0.5"/>
  </g>
  <g id="arrowLeft" transform="rotate(270) translate(-36 17)">
    <use xlink:href="#rim"/>
    <path pointer-events="none" fill="none" stroke="white" stroke-width="1.5" d="M0,-3.0v7 M-2.5,-0.5L0,-3.0L2.5,-0.5"/>
  </g>
  <g id="resetDef">
    <use xlink:href="#rim2" fill="#404040"><set attributeName="fill" to="#808080" begin="reset.mouseover" end="reset.mouseout"/></use>
  </g>
</defs>
<script type="application/ecmascript">
var viewWidth = 151;
var viewHeight = 453;
var sectionId = 'dynsection-1';
</script>
<script type="application/ecmascript" xlink:href="svg.min.js"/>
<svg id="graph" class="graph">
<g id="viewport">
<title>unilink::wrapper::TcpServer</title>
<!-- Node1 -->
<g id="Node000001" class="node">
<title>Node1</title>
<g id="a_Node000001"><a xlink:title="Modernized TCP Server Wrapper.">
<polygon fill="#999999" stroke="transparent" points="143,-199 0,-199 0,0 143,0 143,-199"/>
<text text-anchor="start" x="5.5" y="-186.5" font-family="Helvetica,sans-Serif" font-size="10.00">unilink::wrapper::TcpServer</text>
<text text-anchor="start" x="70" y="-171.5" font-family="Helvetica,sans-Serif" font-size="10.00"> </text>
<text text-anchor="start" x="10.5" y="-156.5" font-family="Helvetica,sans-Serif" font-size="10.00">+</text>
<text text-anchor="start" x="29.5" y="-156.5" font-family="Helvetica,sans-Serif" font-size="10.00">stop()</text>
<text text-anchor="start" x="10.5" y="-141.5" font-family="Helvetica,sans-Serif" font-size="10.00">+</text>
<text text-anchor="start" x="29.5" y="-141.5" font-family="Helvetica,sans-Serif" font-size="10.00">broadcast()</text>
<text text-anchor="start" x="10.5" y="-126.5" font-family="Helvetica,sans-Serif" font-size="10.00">+</text>
<text text-anchor="start" x="29.5" y="-126.5" font-family="Helvetica,sans-Serif" font-size="10.00">send_to()</text>
<text text-anchor="start" x="10.5" y="-111.5" font-family="Helvetica,sans-Serif" font-size="10.00">+</text>
<text text-anchor="start" x="29.5" y="-111.5" font-family="Helvetica,sans-Serif" font-size="10.00">send_to_blocking()</text>
<text text-anchor="start" x="10.5" y="-96.5" font-family="Helvetica,sans-Serif" font-size="10.00">+</text>
<text text-anchor="start" x="29.5" y="-96.5" font-family="Helvetica,sans-Serif" font-size="10.00">try_send_to()</text>
<text text-anchor="start" x="10.5" y="-81.5" font-family="Helvetica,sans-Serif" font-size="10.00">+</text>
<text text-anchor="start" x="29.5" y="-81.5" font-family="Helvetica,sans-Serif" font-size="10.00">try_broadcast()</text>
<text text-anchor="start" x="10.5" y="-66.5" font-family="Helvetica,sans-Serif" font-size="10.00">+</text>
<text text-anchor="start" x="29.5" y="-66.5" font-family="Helvetica,sans-Serif" font-size="10.00">broadcast_line()</text>
<text text-anchor="start" x="10.5" y="-51.5" font-family="Helvetica,sans-Serif" font-size="10.00">+</text>
<text text-anchor="start" x="29.5" y="-51.5" font-family="Helvetica,sans-Serif" font-size="10.00">send_to_line()</text>
<text text-anchor="start" x="10.5" y="-36.5" font-family="Helvetica,sans-Serif" font-size="10.00">+</text>
<text text-anchor="start" x="29.5" y="-36.5" font-family="Helvetica,sans-Serif" font-size="10.00">try_broadcast_line()</text>
<text text-anchor="start" x="10.5" y="-21.5" font-family="Helvetica,sans-Serif" font-size="10.00">+</text>
<text text-anchor="start" x="29.5" y="-21.5" font-family="Helvetica,sans-Serif" font-size="10.00">try_send_to_line()</text>
<text text-anchor="start" x="29.5" y="-6.5" font-family="Helvetica,sans-Serif" font-size="10.00">and 6 more...</text>
<polygon fill="#666666" stroke="#666666" points="0.5,-181.5 0.5,-181.5 143.5,-181.5 143.5,-181.5 0.5,-181.5"/>
<polygon fill="#666666" stroke="#666666" points="0.5,-166.5 0.5,-166.5 143.5,-166.5 143.5,-166.5 0.5,-166.5"/>
<polygon fill="none" stroke="#666666" points="0,0 0,-199 143,-199 143,0 0,0"/>
</a>
</g>
</g>
<!-- Node2 -->
<g id="Node000002" class="node">
<title>Node2</title>
<g id="a_Node000002"><a xlink:href="classunilink_1_1wrapper_1_1ServerInterface.html" target="_top" xlink:title="Interface for 1:N server communication (e.g., TcpServer)">
<polygon fill="white" stroke="transparent" points="135,-445 8,-445 8,-235 135,-235 135,-445"/>
<text text-anchor="start" x="13.5" y="-433" font-family="Helvetica,sans-Serif" font-size="10.00">unilink::wrapper::Server</text>
<text text-anchor="start" x="50" y="-422" font-family="Helvetica,sans-Serif" font-size="10.00">Interface</text>
<text text-anchor="start" x="70" y="-407" font-family="Helvetica,sans-Serif" font-size="10.00"> </text>
<text text-anchor="start" x="14.5" y="-392" font-family="Helvetica,sans-Serif" font-size="10.00">+</text>
<text text-anchor="start" x="29.5" y="-392" font-family="Helvetica,sans-Serif" font-size="10.00">start_sync()</text>
<text text-anchor="start" x="14.5" y="-377" font-family="Helvetica,sans-Serif" font-size="10.00">+</text>
<text text-anchor="start" x="29.5" y="-377" font-family="Helvetica,sans-Serif" font-size="10.00">stop()</text>
<text text-anchor="start" x="14.5" y="-362" font-family="Helvetica,sans-Serif" font-size="10.00">+</text>
<text text-anchor="start" x="29.5" y="-362" font-family="Helvetica,sans-Serif" font-size="10.00">send_to()</text>
<text text-anchor="start" x="14.5" y="-347" font-family="Helvetica,sans-Serif" font-size="10.00">+</text>
<text text-anchor="start" x="29.5" y="-347" font-family="Helvetica,sans-Serif" font-size="10.00">broadcast()</text>
<text text-anchor="start" x="14.5" y="-332" font-family="Helvetica,sans-Serif" font-size="10.00">+</text>
<text text-anchor="start" x="29.5" y="-332" font-family="Helvetica,sans-Serif" font-size="10.00">send_to_blocking()</text>
<text text-anchor="start" x="14.5" y="-317" font-family="Helvetica,sans-Serif" font-size="10.00">+</text>
<text text-anchor="start" x="29.5" y="-317" font-family="Helvetica,sans-Serif" font-size="10.00">try_send_to()</text>
<text text-anchor="start" x="14.5" y="-302" font-family="Helvetica,sans-Serif" font-size="10.00">+</text>
<text text-anchor="start" x="29.5" y="-302" font-family="Helvetica,sans-Serif" font-size="10.00">try_broadcast()</text>
<text text-anchor="start" x="14.5" y="-287" font-family="Helvetica,sans-Serif" font-size="10.00">+</text>
<text text-anchor="start" x="29.5" y="-287" font-family="Helvetica,sans-Serif" font-size="10.00">broadcast_line()</text>
<text text-anchor="start" x="14.5" y="-272" font-family="Helvetica,sans-Serif" font-size="10.00">+</text>
<text text-anchor="start" x="29.5" y="-272" font-family="Helvetica,sans-Serif" font-size="10.00">send_to_line()</text>
<text text-anchor="start" x="14.5" y="-257" font-family="Helvetica,sans-Serif" font-size="10.00">+</text>
<text text-anchor="start" x="29.5" y="-257" font-family="Helvetica,sans-Serif" font-size="10.00">try_broadcast_line()</text>
<text text-anchor="start" x="29.5" y="-242" font-family="Helvetica,sans-Serif" font-size="10.00">and 6 more...</text>
<polygon fill="#666666" stroke="#666666" points="8.5,-417 8.5,-417 135.5,-417 135.5,-417 8.5,-417"/>
<polygon fill="#666666" stroke="#666666" points="8.5,-402 8.5,-402 135.5,-402 135.5,-402 8.5,-402"/>
<polygon fill="none" stroke="#666666" points="8,-235 8,-445 135,-445 135,-235 8,-235"/>
</a>
</g>
</g>
<!-- Node2&#45;&gt;Node1 -->
<g id="edge1_Node000001_Node000002" class="edge">
<title>Node2&#45;&gt;Node1</title>
<g id="a_edge1_Node000001_Node000002"><a xlink:title=" ">
<path fill="none" stroke="#63b8ff" d="M71.5,-224.48C71.5,-216.05 71.5,-207.59 71.5,-199.27"/>
<polygon fill="none" stroke="#63b8ff" points="68,-224.74 71.5,-234.74 75,-224.74 68,-224.74"/>
</a>
</g>
</g>
</g>
</svg>

<g id="navigator" transform="translate(0 0)" fill="#404254">
  <rect fill="#f2f5e9" fill-opacity="0.5" stroke="#606060" stroke-width=".5" x="0" y="0" width="60" height="60"/>
  <use id="zoomplus" xlink:href="#zoomPlus" x="17" y="9" onmousedown="handleZoom(evt,'in')"/>
  <use id="zoomminus" xlink:href="#zoomMin" x="42" y="9" onmousedown="handleZoom(evt,'out')"/>
  <use id="reset" xlink:href="#resetDef" x="30" y="36" onmousedown="handleReset()"/>
   <use id="arrowup" xlink:href="#arrowUp" x="0" y="0" onmousedown="handlePan(0,-1)"/>
  <use id="arrowright" xlink:href="#arrowRight" x="0" y="0" onmousedown="handlePan(1,0)"/>
  <use id="arrowdown" xlink:href="#arrowDown" x="0" y="0" onmousedown="handlePan(0,1)"/>
  <use id="arrowleft" xlink:href="#arrowLeft" x="0" y="0" onmousedown="handlePan(-1,0)"/>
</g>
<svg viewBox="0 0 15 15" width="100%" height="30px" preserveAspectRatio="xMaxYMin meet">
 <g id="arrow_out" transform="scale(0.3 0.3)">
  <a xlink:href="classunilink_1_1wrapper_1_1TcpServer__coll__graph_org.svg" target="_base">
   <rect id="button" ry="5" rx="5" y="6" x="6" height="38" width="38"
        fill="#f2f5e9" fill-opacity="0.5" stroke="#606060" stroke-width="1.0"/>
   <path id="arrow"
     d="M 11.500037,31.436501 C 11.940474,20.09759 22.043105,11.32322 32.158766,21.979434 L 37.068811,17.246167 C 37.068811,17.246167 37.088388,32 37.088388,32 L 22.160133,31.978069 C 22.160133,31.978069 26.997745,27.140456 26.997745,27.140456 C 18.528582,18.264221 13.291696,25.230495 11.500037,31.436501 z"
     style="fill:#404040;"/>
  </a>
 </g>
</svg>

<style type='text/css'>
<![CDATA[
[data-mouse-over-selected='false'] { opacity: 0.7; }
[data-mouse-over-selected='true']  { opacity: 1.0; }
]]>
</style>
<script type="application/ecmascript"><![CDATA[
document.addEventListener('DOMContentLoaded', (event) => {
  highlightEdges();
  highlightAdjacentNodes();
});
]]></script>
</svg>
