<?xml version="1.0" encoding="UTF-8" standalone="no"?>
<!DOCTYPE svg PUBLIC "-//W3C//DTD SVG 1.1//EN"
 "http://www.w3.org/Graphics/SVG/1.1/DTD/svg11.dtd">
<!-- Generated by graphviz version 2.43.0 (0)
 -->
<!-- Title: unilink::config::ConfigPresets::setup_logging_defaults Pages: 1 -->
<svg width="746pt" height="86pt"
 viewBox="0.00 0.00 746.00 86.00" xmlns="http://www.w3.org/2000/svg" xmlns:xlink="http://www.w3.org/1999/xlink">
<g id="graph0" class="graph" transform="scale(1 1) rotate(0) translate(4 82)">
<title>unilink::config::ConfigPresets::setup_logging_defaults</title>
<!-- Node1 -->
<g id="Node000001" class="node">
<title>Node1</title>
<g id="a_Node000001"><a xlink:title=" ">
<polygon fill="#999999" stroke="#666666" points="738,-54 580,-54 580,-24 738,-24 738,-54"/>
<text text-anchor="start" x="588" y="-42" font-family="Helvetica,sans-Serif" font-size="10.00">unilink::config::ConfigPresets</text>
<text text-anchor="middle" x="659" y="-31" font-family="Helvetica,sans-Serif" font-size="10.00">::setup_logging_defaults</text>
</a>
</g>
</g>
<!-- Node2 -->
<g id="Node000002" class="node">
<title>Node2</title>
<g id="a_Node000002"><a xlink:href="classunilink_1_1config_1_1ConfigPresets.html#ad14ccdce0fa26dc04fb713da77e5612e" target="_top" xlink:title=" ">
<polygon fill="white" stroke="#666666" points="544,-54 386,-54 386,-24 544,-24 544,-54"/>
<text text-anchor="start" x="394" y="-42" font-family="Helvetica,sans-Serif" font-size="10.00">unilink::config::ConfigPresets</text>
<text text-anchor="middle" x="465" y="-31" font-family="Helvetica,sans-Serif" font-size="10.00">::setup_all_defaults</text>
</a>
</g>
</g>
<!-- Node1&#45;&gt;Node2 -->
<g id="edge1_Node000001_Node000002" class="edge">
<title>Node1&#45;&gt;Node2</title>
<g id="a_edge1_Node000001_Node000002"><a xlink:title=" ">
<path fill="none" stroke="#63b8ff" d="M569.85,-39C561.23,-39 552.53,-39 544.02,-39"/>
<polygon fill="#63b8ff" stroke="#63b8ff" points="569.91,-42.5 579.91,-39 569.91,-35.5 569.91,-42.5"/>
</a>
</g>
</g>
<!-- Node3 -->
<g id="Node000003" class="node">
<title>Node3</title>
<g id="a_Node000003"><a xlink:href="classunilink_1_1config_1_1ConfigFactory.html#a1349da1432ca59942141f42f10e1ddc6" target="_top" xlink:title=" ">
<polygon fill="white" stroke="#666666" points="350,-78 193,-78 193,-48 350,-48 350,-78"/>
<text text-anchor="start" x="201" y="-66" font-family="Helvetica,sans-Serif" font-size="10.00">unilink::config::ConfigFactory</text>
<text text-anchor="middle" x="271.5" y="-55" font-family="Helvetica,sans-Serif" font-size="10.00">::create_from_file</text>
</a>
</g>
</g>
<!-- Node2&#45;&gt;Node3 -->
<g id="edge2_Node000002_Node000003" class="edge">
<title>Node2&#45;&gt;Node3</title>
<g id="a_edge2_Node000002_Node000003"><a xlink:title=" ">
<path fill="none" stroke="#63b8ff" d="M375.81,-50.05C367.23,-51.13 358.57,-52.21 350.11,-53.27"/>
<polygon fill="#63b8ff" stroke="#63b8ff" points="376.35,-53.51 385.83,-48.8 375.48,-46.57 376.35,-53.51"/>
</a>
</g>
</g>
<!-- Node4 -->
<g id="Node000004" class="node">
<title>Node4</title>
<g id="a_Node000004"><a xlink:href="classunilink_1_1config_1_1ConfigFactory.html#a4edec9716691c78976092f69d6810ae5" target="_top" xlink:title=" ">
<polygon fill="white" stroke="#666666" points="350,-30 193,-30 193,0 350,0 350,-30"/>
<text text-anchor="start" x="201" y="-18" font-family="Helvetica,sans-Serif" font-size="10.00">unilink::config::ConfigFactory</text>
<text text-anchor="middle" x="271.5" y="-7" font-family="Helvetica,sans-Serif" font-size="10.00">::create_with_defaults</text>
</a>
</g>
</g>
<!-- Node2&#45;&gt;Node4 -->
<g id="edge3_Node000002_Node000004" class="edge">
<title>Node2&#45;&gt;Node4</title>
<g id="a_edge3_Node000002_Node000004"><a xlink:title=" ">
<path fill="none" stroke="#63b8ff" d="M375.81,-27.95C367.23,-26.87 358.57,-25.79 350.11,-24.73"/>
<polygon fill="#63b8ff" stroke="#63b8ff" points="375.48,-31.43 385.83,-29.2 376.35,-24.49 375.48,-31.43"/>
</a>
</g>
</g>
<!-- Node5 -->
<g id="Node000005" class="node">
<title>Node5</title>
<g id="a_Node000005"><a xlink:href="classunilink_1_1config_1_1ConfigFactory.html#a58b060e083bed8f130f954828efc7905" target="_top" xlink:title=" ">
<polygon fill="white" stroke="#666666" points="157,-30 0,-30 0,0 157,0 157,-30"/>
<text text-anchor="start" x="8" y="-18" font-family="Helvetica,sans-Serif" font-size="10.00">unilink::config::ConfigFactory</text>
<text text-anchor="middle" x="78.5" y="-7" font-family="Helvetica,sans-Serif" font-size="10.00">::get_singleton</text>
</a>
</g>
</g>
<!-- Node4&#45;&gt;Node5 -->
<g id="edge4_Node000004_Node000005" class="edge">
<title>Node4&#45;&gt;Node5</title>
<g id="a_edge4_Node000004_Node000005"><a xlink:title=" ">
<path fill="none" stroke="#63b8ff" d="M182.81,-15C174.24,-15 165.58,-15 157.12,-15"/>
<polygon fill="#63b8ff" stroke="#63b8ff" points="182.81,-18.5 192.81,-15 182.81,-11.5 182.81,-18.5"/>
</a>
</g>
</g>
</g>
</svg>
