<?xml version="1.0" encoding="UTF-8" standalone="no"?>
<!DOCTYPE svg PUBLIC "-//W3C//DTD SVG 1.1//EN"
 "http://www.w3.org/Graphics/SVG/1.1/DTD/svg11.dtd">
<!-- Generated by graphviz version 2.43.0 (0)
 -->
<!-- Title: unilink::builder::SerialBuilder&lt; State &gt; Pages: 1 -->
<svg width="132pt" height="340pt"
 viewBox="0.00 0.00 132.00 340.00" xmlns="http://www.w3.org/2000/svg" xmlns:xlink="http://www.w3.org/1999/xlink">

<svg id="main" version="1.1" xmlns="http://www.w3.org/2000/svg" xmlns:xlink="http://www.w3.org/1999/xlink" xml:space="preserve" onload="init(evt)">
<style type="text/css"><![CDATA[
.node, .edge {opacity: 0.7;}
.node.selected, .edge.selected {opacity: 1;}
.edge:hover path { stroke: red; }
.edge:hover polygon { stroke: red; fill: red; }
]]></style>
<script type="application/ecmascript" xlink:href="svg.min.js"/>
<svg id="graph" class="graph">
<g id="graph0" class="graph" transform="scale(1 1) rotate(0) translate(4 336)">
<title>unilink::builder::SerialBuilder&lt; State &gt;</title>
<!-- Node1 -->
<g id="Node000001" class="node">
<title>Node1</title>
<g id="a_Node000001"><a xlink:title="Modernized Builder for Serial.">
<polygon fill="#999999" stroke="transparent" points="120.5,-75 3.5,-75 3.5,0 120.5,0 120.5,-75"/>
<text text-anchor="start" x="9" y="-62.5" font-family="Helvetica,sans-Serif" font-size="10.00">unilink::builder::Serial</text>
<text text-anchor="start" x="21" y="-51.5" font-family="Helvetica,sans-Serif" font-size="10.00">Builder&lt; State &gt;</text>
<text text-anchor="start" x="60.5" y="-36.5" font-family="Helvetica,sans-Serif" font-size="10.00"> </text>
<text text-anchor="start" x="17.5" y="-21.5" font-family="Helvetica,sans-Serif" font-size="10.00">+</text>
<text text-anchor="start" x="40" y="-21.5" font-family="Helvetica,sans-Serif" font-size="10.00">build()</text>
<text text-anchor="start" x="17.5" y="-6.5" font-family="Helvetica,sans-Serif" font-size="10.00">+</text>
<text text-anchor="start" x="40" y="-6.5" font-family="Helvetica,sans-Serif" font-size="10.00">auto_start()</text>
<polygon fill="#666666" stroke="#666666" points="4,-46.5 4,-46.5 121,-46.5 121,-46.5 4,-46.5"/>
<polygon fill="#666666" stroke="#666666" points="4,-31.5 4,-31.5 121,-31.5 121,-31.5 4,-31.5"/>
<polygon fill="none" stroke="#666666" points="3.5,0 3.5,-75 120.5,-75 120.5,0 3.5,0"/>
</a>
</g>
</g>
<!-- Node2 -->
<g id="Node000002" class="node">
<title>Node2</title>
<g id="a_Node000002"><a xlink:href="classunilink_1_1builder_1_1BuilderInterface.html" target="_top" xlink:title="Generic Builder interface for fluent API pattern.">
<polygon fill="white" stroke="transparent" points="124,-332 0,-332 0,-111 124,-111 124,-332"/>
<text text-anchor="start" x="5" y="-319.5" font-family="Helvetica,sans-Serif" font-size="10.00">unilink::builder::Builder</text>
<text text-anchor="start" x="5" y="-308.5" font-family="Helvetica,sans-Serif" font-size="10.00">Interface&lt; T, Derived,</text>
<text text-anchor="start" x="42" y="-297.5" font-family="Helvetica,sans-Serif" font-size="10.00"> State &gt;</text>
<text text-anchor="start" x="60" y="-282.5" font-family="Helvetica,sans-Serif" font-size="10.00"> </text>
<text text-anchor="start" x="10" y="-267.5" font-family="Helvetica,sans-Serif" font-size="10.00">+</text>
<text text-anchor="start" x="29" y="-267.5" font-family="Helvetica,sans-Serif" font-size="10.00">build()</text>
<text text-anchor="start" x="10" y="-252.5" font-family="Helvetica,sans-Serif" font-size="10.00">+</text>
<text text-anchor="start" x="29" y="-252.5" font-family="Helvetica,sans-Serif" font-size="10.00">auto_start()</text>
<text text-anchor="start" x="10" y="-237.5" font-family="Helvetica,sans-Serif" font-size="10.00">+</text>
<text text-anchor="start" x="29" y="-237.5" font-family="Helvetica,sans-Serif" font-size="10.00">on_data()</text>
<text text-anchor="start" x="10" y="-222.5" font-family="Helvetica,sans-Serif" font-size="10.00">+</text>
<text text-anchor="start" x="29" y="-222.5" font-family="Helvetica,sans-Serif" font-size="10.00">on_data_batch()</text>
<text text-anchor="start" x="10" y="-207.5" font-family="Helvetica,sans-Serif" font-size="10.00">+</text>
<text text-anchor="start" x="29" y="-207.5" font-family="Helvetica,sans-Serif" font-size="10.00">on_data()</text>
<text text-anchor="start" x="10" y="-192.5" font-family="Helvetica,sans-Serif" font-size="10.00">+</text>
<text text-anchor="start" x="29" y="-192.5" font-family="Helvetica,sans-Serif" font-size="10.00">on_connect()</text>
<text text-anchor="start" x="10" y="-177.5" font-family="Helvetica,sans-Serif" font-size="10.00">+</text>
<text text-anchor="start" x="29" y="-177.5" font-family="Helvetica,sans-Serif" font-size="10.00">on_connect()</text>
<text text-anchor="start" x="10" y="-162.5" font-family="Helvetica,sans-Serif" font-size="10.00">+</text>
<text text-anchor="start" x="29" y="-162.5" font-family="Helvetica,sans-Serif" font-size="10.00">on_disconnect()</text>
<text text-anchor="start" x="10" y="-147.5" font-family="Helvetica,sans-Serif" font-size="10.00">+</text>
<text text-anchor="start" x="29" y="-147.5" font-family="Helvetica,sans-Serif" font-size="10.00">on_disconnect()</text>
<text text-anchor="start" x="10" y="-132.5" font-family="Helvetica,sans-Serif" font-size="10.00">+</text>
<text text-anchor="start" x="29" y="-132.5" font-family="Helvetica,sans-Serif" font-size="10.00">on_error()</text>
<text text-anchor="start" x="29" y="-117.5" font-family="Helvetica,sans-Serif" font-size="10.00">and 10 more...</text>
<polygon fill="#666666" stroke="#666666" points="0,-292.5 0,-292.5 124,-292.5 124,-292.5 0,-292.5"/>
<polygon fill="#666666" stroke="#666666" points="0,-277.5 0,-277.5 124,-277.5 124,-277.5 0,-277.5"/>
<polygon fill="none" stroke="#666666" points="0,-111 0,-332 124,-332 124,-111 0,-111"/>
</a>
</g>
</g>
<!-- Node2&#45;&gt;Node1 -->
<g id="edge1_Node000001_Node000002" class="edge">
<title>Node2&#45;&gt;Node1</title>
<g id="a_edge1_Node000001_Node000002"><a xlink:title=" ">
<path fill="none" stroke="#63b8ff" d="M62,-100.88C62,-91.74 62,-83.03 62,-75.16"/>
<polygon fill="none" stroke="#63b8ff" points="58.5,-100.95 62,-110.95 65.5,-100.95 58.5,-100.95"/>
</a>
</g>
</g>
</g>
</svg>
</svg>

<style type='text/css'>
<![CDATA[
[data-mouse-over-selected='false'] { opacity: 0.7; }
[data-mouse-over-selected='true']  { opacity: 1.0; }
]]>
</style>
<script type="application/ecmascript"><![CDATA[
document.addEventListener('DOMContentLoaded', (event) => {
  highlightEdges();
  highlightAdjacentNodes();
});
]]></script>
</svg>
