<?xml version="1.0" encoding="UTF-8" standalone="no"?>
<!DOCTYPE svg PUBLIC "-//W3C//DTD SVG 1.1//EN"
 "http://www.w3.org/Graphics/SVG/1.1/DTD/svg11.dtd">
<!-- Generated by graphviz version 2.43.0 (0)
 -->
<!-- Title: unilink::framer::PacketFramer Pages: 1 -->
<svg width="163pt" height="187pt"
 viewBox="0.00 0.00 163.00 187.00" xmlns="http://www.w3.org/2000/svg" xmlns:xlink="http://www.w3.org/1999/xlink">
<g id="graph0" class="graph" transform="scale(1 1) rotate(0) translate(4 183)">
<title>unilink::framer::PacketFramer</title>
<!-- Node1 -->
<g id="Node000001" class="node">
<title>Node1</title>
<g id="a_Node000001"><a xlink:title="Framer for binary packet protocols.">
<polygon fill="#999999" stroke="transparent" points="155,-79 0,-79 0,0 155,0 155,-79"/>
<text text-anchor="start" x="5.5" y="-66.5" font-family="Helvetica,sans-Serif" font-size="10.00">unilink::framer::PacketFramer</text>
<text text-anchor="start" x="76" y="-51.5" font-family="Helvetica,sans-Serif" font-size="10.00"> </text>
<text text-anchor="start" x="19.5" y="-36.5" font-family="Helvetica,sans-Serif" font-size="10.00">+</text>
<text text-anchor="start" x="47.5" y="-36.5" font-family="Helvetica,sans-Serif" font-size="10.00">PacketFramer()</text>
<text text-anchor="start" x="19.5" y="-21.5" font-family="Helvetica,sans-Serif" font-size="10.00">+</text>
<text text-anchor="start" x="47.5" y="-21.5" font-family="Helvetica,sans-Serif" font-size="10.00">push_bytes()</text>
<text text-anchor="start" x="19.5" y="-6.5" font-family="Helvetica,sans-Serif" font-size="10.00">+</text>
<text text-anchor="start" x="47.5" y="-6.5" font-family="Helvetica,sans-Serif" font-size="10.00">reset()</text>
<polygon fill="#666666" stroke="#666666" points="0.5,-61.5 0.5,-61.5 155.5,-61.5 155.5,-61.5 0.5,-61.5"/>
<polygon fill="#666666" stroke="#666666" points="0.5,-46.5 0.5,-46.5 155.5,-46.5 155.5,-46.5 0.5,-46.5"/>
<polygon fill="none" stroke="#666666" points="0,0 0,-79 155,-79 155,0 0,0"/>
</a>
</g>
</g>
<!-- Node2 -->
<g id="Node000002" class="node">
<title>Node2</title>
<g id="a_Node000002"><a xlink:href="classunilink_1_1framer_1_1IFramer.html" target="_top" xlink:title="Abstract base class for message framing strategies.">
<polygon fill="white" stroke="transparent" points="140.5,-179 14.5,-179 14.5,-115 140.5,-115 140.5,-179"/>
<text text-anchor="start" x="19.5" y="-167" font-family="Helvetica,sans-Serif" font-size="10.00">unilink::framer::IFramer</text>
<text text-anchor="start" x="75.5" y="-152" font-family="Helvetica,sans-Serif" font-size="10.00"> </text>
<text text-anchor="start" x="28.5" y="-137" font-family="Helvetica,sans-Serif" font-size="10.00">+</text>
<text text-anchor="start" x="51.5" y="-137" font-family="Helvetica,sans-Serif" font-size="10.00">push_bytes()</text>
<text text-anchor="start" x="28.5" y="-122" font-family="Helvetica,sans-Serif" font-size="10.00">+</text>
<text text-anchor="start" x="51.5" y="-122" font-family="Helvetica,sans-Serif" font-size="10.00">reset()</text>
<polygon fill="#666666" stroke="#666666" points="14.5,-162 14.5,-162 140.5,-162 140.5,-162 14.5,-162"/>
<polygon fill="#666666" stroke="#666666" points="14.5,-147 14.5,-147 140.5,-147 140.5,-147 14.5,-147"/>
<polygon fill="none" stroke="#666666" points="14.5,-115 14.5,-179 140.5,-179 140.5,-115 14.5,-115"/>
</a>
</g>
</g>
<!-- Node2&#45;&gt;Node1 -->
<g id="edge1_Node000001_Node000002" class="edge">
<title>Node2&#45;&gt;Node1</title>
<g id="a_edge1_Node000001_Node000002"><a xlink:title=" ">
<path fill="none" stroke="#63b8ff" d="M77.5,-104.89C77.5,-96.44 77.5,-87.58 77.5,-79.22"/>
<polygon fill="none" stroke="#63b8ff" points="74,-104.92 77.5,-114.92 81,-104.92 74,-104.92"/>
</a>
</g>
</g>
</g>
</svg>
