<?xml version="1.0" encoding="UTF-8" standalone="no"?>
<!DOCTYPE svg PUBLIC "-//W3C//DTD SVG 1.1//EN"
 "http://www.w3.org/Graphics/SVG/1.1/DTD/svg11.dtd">
<!-- Generated by graphviz version 2.43.0 (0)
 -->
<!-- Title: unilink::framer::IFramer Pages: 1 -->
<svg width="324pt" height="187pt"
 viewBox="0.00 0.00 324.00 187.00" xmlns="http://www.w3.org/2000/svg" xmlns:xlink="http://www.w3.org/1999/xlink">

<svg id="main" version="1.1" xmlns="http://www.w3.org/2000/svg" xmlns:xlink="http://www.w3.org/1999/xlink" xml:space="preserve" onload="init(evt)">
<style type="text/css"><![CDATA[
.node, .edge {opacity: 0.7;}
.node.selected, .edge.selected {opacity: 1;}
.edge:hover path { stroke: red; }
.edge:hover polygon { stroke: red; fill: red; }
]]></style>
<script type="application/ecmascript" xlink:href="svg.min.js"/>
<svg id="graph" class="graph">
<g id="graph0" class="graph" transform="scale(1 1) rotate(0) translate(4 183)">
<title>unilink::framer::IFramer</title>
<!-- Node1 -->
<g id="Node000001" class="node">
<title>Node1</title>
<g id="a_Node000001"><a xlink:title="Abstract base class for message framing strategies.">
<polygon fill="#999999" stroke="transparent" points="217.5,-179 91.5,-179 91.5,-115 217.5,-115 217.5,-179"/>
<text text-anchor="start" x="96.5" y="-167" font-family="Helvetica,sans-Serif" font-size="10.00">unilink::framer::IFramer</text>
<text text-anchor="start" x="152.5" y="-152" font-family="Helvetica,sans-Serif" font-size="10.00"> </text>
<text text-anchor="start" x="105.5" y="-137" font-family="Helvetica,sans-Serif" font-size="10.00">+</text>
<text text-anchor="start" x="128.5" y="-137" font-family="Helvetica,sans-Serif" font-size="10.00">push_bytes()</text>
<text text-anchor="start" x="105.5" y="-122" font-family="Helvetica,sans-Serif" font-size="10.00">+</text>
<text text-anchor="start" x="128.5" y="-122" font-family="Helvetica,sans-Serif" font-size="10.00">reset()</text>
<polygon fill="#666666" stroke="#666666" points="91.5,-162 91.5,-162 217.5,-162 217.5,-162 91.5,-162"/>
<polygon fill="#666666" stroke="#666666" points="91.5,-147 91.5,-147 217.5,-147 217.5,-147 91.5,-147"/>
<polygon fill="none" stroke="#666666" points="91.5,-115 91.5,-179 217.5,-179 217.5,-115 91.5,-115"/>
</a>
</g>
</g>
<!-- Node2 -->
<g id="Node000002" class="node">
<title>Node2</title>
<g id="a_Node000002"><a xlink:href="classunilink_1_1framer_1_1LineFramer.html" target="_top" xlink:title="Framer for text&#45;based protocols (e.g., ASCII, NMEA).">
<polygon fill="white" stroke="transparent" points="143,-79 0,-79 0,0 143,0 143,-79"/>
<text text-anchor="start" x="5.5" y="-66.5" font-family="Helvetica,sans-Serif" font-size="10.00">unilink::framer::LineFramer</text>
<text text-anchor="start" x="70" y="-51.5" font-family="Helvetica,sans-Serif" font-size="10.00"> </text>
<text text-anchor="start" x="19" y="-36.5" font-family="Helvetica,sans-Serif" font-size="10.00">+</text>
<text text-anchor="start" x="46.5" y="-36.5" font-family="Helvetica,sans-Serif" font-size="10.00">LineFramer()</text>
<text text-anchor="start" x="19" y="-21.5" font-family="Helvetica,sans-Serif" font-size="10.00">+</text>
<text text-anchor="start" x="46.5" y="-21.5" font-family="Helvetica,sans-Serif" font-size="10.00">push_bytes()</text>
<text text-anchor="start" x="19" y="-6.5" font-family="Helvetica,sans-Serif" font-size="10.00">+</text>
<text text-anchor="start" x="46.5" y="-6.5" font-family="Helvetica,sans-Serif" font-size="10.00">reset()</text>
<polygon fill="#666666" stroke="#666666" points="0.5,-61.5 0.5,-61.5 143.5,-61.5 143.5,-61.5 0.5,-61.5"/>
<polygon fill="#666666" stroke="#666666" points="0.5,-46.5 0.5,-46.5 143.5,-46.5 143.5,-46.5 0.5,-46.5"/>
<polygon fill="none" stroke="#666666" points="0,0 0,-79 143,-79 143,0 0,0"/>
</a>
</g>
</g>
<!-- Node1&#45;&gt;Node2 -->
<g id="edge1_Node000001_Node000002" class="edge">
<title>Node1&#45;&gt;Node2</title>
<g id="a_edge1_Node000001_Node000002"><a xlink:title=" ">
<path fill="none" stroke="#63b8ff" d="M123.68,-106.83C116.59,-97.81 109.04,-88.22 101.96,-79.22"/>
<polygon fill="none" stroke="#63b8ff" points="121.11,-109.22 130.05,-114.92 126.61,-104.89 121.11,-109.22"/>
</a>
</g>
</g>
<!-- Node3 -->
<g id="Node000003" class="node">
<title>Node3</title>
<g id="a_Node000003"><a xlink:href="classunilink_1_1framer_1_1PacketFramer.html" target="_top" xlink:title="Framer for binary packet protocols.">
<polygon fill="white" stroke="transparent" points="316,-79 161,-79 161,0 316,0 316,-79"/>
<text text-anchor="start" x="166.5" y="-66.5" font-family="Helvetica,sans-Serif" font-size="10.00">unilink::framer::PacketFramer</text>
<text text-anchor="start" x="237" y="-51.5" font-family="Helvetica,sans-Serif" font-size="10.00"> </text>
<text text-anchor="start" x="180.5" y="-36.5" font-family="Helvetica,sans-Serif" font-size="10.00">+</text>
<text text-anchor="start" x="208.5" y="-36.5" font-family="Helvetica,sans-Serif" font-size="10.00">PacketFramer()</text>
<text text-anchor="start" x="180.5" y="-21.5" font-family="Helvetica,sans-Serif" font-size="10.00">+</text>
<text text-anchor="start" x="208.5" y="-21.5" font-family="Helvetica,sans-Serif" font-size="10.00">push_bytes()</text>
<text text-anchor="start" x="180.5" y="-6.5" font-family="Helvetica,sans-Serif" font-size="10.00">+</text>
<text text-anchor="start" x="208.5" y="-6.5" font-family="Helvetica,sans-Serif" font-size="10.00">reset()</text>
<polygon fill="#666666" stroke="#666666" points="161.5,-61.5 161.5,-61.5 316.5,-61.5 316.5,-61.5 161.5,-61.5"/>
<polygon fill="#666666" stroke="#666666" points="161.5,-46.5 161.5,-46.5 316.5,-46.5 316.5,-46.5 161.5,-46.5"/>
<polygon fill="none" stroke="#666666" points="161,0 161,-79 316,-79 316,0 161,0"/>
</a>
</g>
</g>
<!-- Node1&#45;&gt;Node3 -->
<g id="edge2_Node000001_Node000003" class="edge">
<title>Node1&#45;&gt;Node3</title>
<g id="a_edge2_Node000001_Node000003"><a xlink:title=" ">
<path fill="none" stroke="#63b8ff" d="M185.69,-106.83C192.87,-97.81 200.5,-88.22 207.67,-79.22"/>
<polygon fill="none" stroke="#63b8ff" points="182.74,-104.91 179.25,-114.92 188.22,-109.27 182.74,-104.91"/>
</a>
</g>
</g>
</g>
</svg>
</svg>

<style type='text/css'>
<![CDATA[
[data-mouse-over-selected='false'] { opacity: 0.7; }
[data-mouse-over-selected='true']  { opacity: 1.0; }
]]>
</style>
<script type="application/ecmascript"><![CDATA[
document.addEventListener('DOMContentLoaded', (event) => {
  highlightEdges();
  highlightAdjacentNodes();
});
]]></script>
</svg>
