<?xml version="1.0" encoding="UTF-8" standalone="no"?>
<!DOCTYPE svg PUBLIC "-//W3C//DTD SVG 1.1//EN"
 "http://www.w3.org/Graphics/SVG/1.1/DTD/svg11.dtd">
<!-- Generated by graphviz version 2.43.0 (0)
 -->
<!-- Title: unilink::transport::BoostTcpAcceptor Pages: 1 -->
<svg width="127pt" height="164pt"
 viewBox="0.00 0.00 127.00 164.00" xmlns="http://www.w3.org/2000/svg" xmlns:xlink="http://www.w3.org/1999/xlink">
<g id="graph0" class="graph" transform="scale(1 1) rotate(0) translate(4 160)">
<title>unilink::transport::BoostTcpAcceptor</title>
<!-- Node1 -->
<g id="Node000001" class="node">
<title>Node1</title>
<g id="a_Node000001"><a xlink:title="Boost.Asio implementation of ITcpAcceptor interface. This is the real implementation used in producti...">
<polygon fill="#999999" stroke="transparent" points="111,-60 8,-60 8,0 111,0 111,-60"/>
<text text-anchor="start" x="13.5" y="-48" font-family="Helvetica,sans-Serif" font-size="10.00">unilink::transport</text>
<text text-anchor="start" x="13.5" y="-37" font-family="Helvetica,sans-Serif" font-size="10.00">::BoostTcpAcceptor</text>
<text text-anchor="start" x="58" y="-22" font-family="Helvetica,sans-Serif" font-size="10.00"> </text>
<text text-anchor="start" x="58" y="-7" font-family="Helvetica,sans-Serif" font-size="10.00"> </text>
<polygon fill="#666666" stroke="#666666" points="8.5,-32 8.5,-32 111.5,-32 111.5,-32 8.5,-32"/>
<polygon fill="#666666" stroke="#666666" points="8.5,-17 8.5,-17 111.5,-17 111.5,-17 8.5,-17"/>
<polygon fill="none" stroke="#666666" points="8,0 8,-60 111,-60 111,0 8,0"/>
</a>
</g>
</g>
<!-- Node2 -->
<g id="Node000002" class="node">
<title>Node2</title>
<g id="a_Node000002"><a xlink:href="classunilink_1_1interface_1_1TcpAcceptorInterface.html" target="_top" xlink:title="An interface abstracting Boost.Asio&#39;s tcp::acceptor for testability. This is an internal interface us...">
<polygon fill="white" stroke="transparent" points="119,-156 0,-156 0,-96 119,-96 119,-156"/>
<text text-anchor="start" x="5.5" y="-144" font-family="Helvetica,sans-Serif" font-size="10.00">unilink::interface</text>
<text text-anchor="start" x="5.5" y="-133" font-family="Helvetica,sans-Serif" font-size="10.00">::TcpAcceptorInterface</text>
<text text-anchor="start" x="58" y="-118" font-family="Helvetica,sans-Serif" font-size="10.00"> </text>
<text text-anchor="start" x="58" y="-103" font-family="Helvetica,sans-Serif" font-size="10.00"> </text>
<polygon fill="#666666" stroke="#666666" points="0.5,-128 0.5,-128 119.5,-128 119.5,-128 0.5,-128"/>
<polygon fill="#666666" stroke="#666666" points="0.5,-113 0.5,-113 119.5,-113 119.5,-113 0.5,-113"/>
<polygon fill="none" stroke="#666666" points="0,-96 0,-156 119,-156 119,-96 0,-96"/>
</a>
</g>
</g>
<!-- Node2&#45;&gt;Node1 -->
<g id="edge1_Node000001_Node000002" class="edge">
<title>Node2&#45;&gt;Node1</title>
<g id="a_edge1_Node000001_Node000002"><a xlink:title=" ">
<path fill="none" stroke="#63b8ff" d="M59.5,-85.63C59.5,-77.11 59.5,-68.25 59.5,-60.21"/>
<polygon fill="none" stroke="#63b8ff" points="56,-85.77 59.5,-95.77 63,-85.77 56,-85.77"/>
</a>
</g>
</g>
</g>
</svg>
