<?xml version="1.0" encoding="UTF-8" standalone="no"?>
<!DOCTYPE svg PUBLIC "-//W3C//DTD SVG 1.1//EN"
 "http://www.w3.org/Graphics/SVG/1.1/DTD/svg11.dtd">
<!-- Generated by graphviz version 2.43.0 (0)
 -->
<!-- Title: unilink::diagnostics::Logger::try_set_file_output_with_rotation Pages: 1 -->
<svg width="301pt" height="157pt"
 viewBox="0.00 0.00 301.00 156.50" xmlns="http://www.w3.org/2000/svg" xmlns:xlink="http://www.w3.org/1999/xlink">
<g id="graph0" class="graph" transform="scale(1 1) rotate(0) translate(4 152.5)">
<title>unilink::diagnostics::Logger::try_set_file_output_with_rotation</title>
<!-- Node1 -->
<g id="Node000001" class="node">
<title>Node1</title>
<g id="a_Node000001"><a xlink:title="Set file output with rotation and report whether it succeeded.">
<polygon fill="#999999" stroke="#666666" points="293,-100 170,-100 170,-59 293,-59 293,-100"/>
<text text-anchor="start" x="178" y="-88" font-family="Helvetica,sans-Serif" font-size="10.00">unilink::diagnostics</text>
<text text-anchor="start" x="178" y="-77" font-family="Helvetica,sans-Serif" font-size="10.00">::Logger::try_set_file</text>
<text text-anchor="middle" x="231.5" y="-66" font-family="Helvetica,sans-Serif" font-size="10.00">_output_with_rotation</text>
</a>
</g>
</g>
<!-- Node2 -->
<g id="Node000002" class="node">
<title>Node2</title>
<g id="a_Node000002"><a xlink:href="classunilink_1_1diagnostics_1_1Logger.html#ae27d90acc4c3646587ab4aa620bef18f" target="_top" xlink:title="Set file output.">
<polygon fill="white" stroke="#666666" points="134,-148.5 0,-148.5 0,-118.5 134,-118.5 134,-148.5"/>
<text text-anchor="start" x="8" y="-136.5" font-family="Helvetica,sans-Serif" font-size="10.00">unilink::diagnostics</text>
<text text-anchor="middle" x="67" y="-125.5" font-family="Helvetica,sans-Serif" font-size="10.00">::Logger::set_file_output</text>
</a>
</g>
</g>
<!-- Node1&#45;&gt;Node2 -->
<g id="edge1_Node000001_Node000002" class="edge">
<title>Node1&#45;&gt;Node2</title>
<g id="a_edge1_Node000001_Node000002"><a xlink:title=" ">
<path fill="none" stroke="#63b8ff" d="M160.2,-102.86C144.31,-108.14 127.85,-113.61 113.32,-118.44"/>
<polygon fill="#63b8ff" stroke="#63b8ff" points="161.6,-106.08 169.99,-99.61 159.4,-99.44 161.6,-106.08"/>
</a>
</g>
</g>
<!-- Node3 -->
<g id="Node000003" class="node">
<title>Node3</title>
<g id="a_Node000003"><a xlink:href="classunilink_1_1diagnostics_1_1Logger.html#ada26b971ae75266aff644f17ecb670e8" target="_top" xlink:title="Set file output with rotation.">
<polygon fill="white" stroke="#666666" points="134,-100 0,-100 0,-59 134,-59 134,-100"/>
<text text-anchor="start" x="8" y="-88" font-family="Helvetica,sans-Serif" font-size="10.00">unilink::diagnostics</text>
<text text-anchor="start" x="8" y="-77" font-family="Helvetica,sans-Serif" font-size="10.00">::Logger::set_file_output</text>
<text text-anchor="middle" x="67" y="-66" font-family="Helvetica,sans-Serif" font-size="10.00">_with_rotation</text>
</a>
</g>
</g>
<!-- Node1&#45;&gt;Node3 -->
<g id="edge2_Node000001_Node000003" class="edge">
<title>Node1&#45;&gt;Node3</title>
<g id="a_edge2_Node000001_Node000003"><a xlink:title=" ">
<path fill="none" stroke="#63b8ff" d="M159.97,-79.5C151.35,-79.5 142.57,-79.5 134.01,-79.5"/>
<polygon fill="#63b8ff" stroke="#63b8ff" points="159.99,-83 169.99,-79.5 159.99,-76 159.99,-83"/>
</a>
</g>
</g>
<!-- Node4 -->
<g id="Node000004" class="node">
<title>Node4</title>
<g id="a_Node000004"><a xlink:href="classunilink_1_1diagnostics_1_1Logger.html#abdb1069a2f3fcb4583b9c320d959eb5b" target="_top" xlink:title="Set file output and report whether it succeeded.">
<polygon fill="white" stroke="#666666" points="125,-41 9,-41 9,0 125,0 125,-41"/>
<text text-anchor="start" x="17" y="-29" font-family="Helvetica,sans-Serif" font-size="10.00">unilink::diagnostics</text>
<text text-anchor="start" x="17" y="-18" font-family="Helvetica,sans-Serif" font-size="10.00">::Logger::try_set_file</text>
<text text-anchor="middle" x="67" y="-7" font-family="Helvetica,sans-Serif" font-size="10.00">_output</text>
</a>
</g>
</g>
<!-- Node1&#45;&gt;Node4 -->
<g id="edge3_Node000001_Node000004" class="edge">
<title>Node1&#45;&gt;Node4</title>
<g id="a_edge3_Node000001_Node000004"><a xlink:title=" ">
<path fill="none" stroke="#63b8ff" d="M164.2,-55.43C151.03,-50.65 137.33,-45.67 124.53,-41.02"/>
<polygon fill="#63b8ff" stroke="#63b8ff" points="163.07,-58.74 173.67,-58.86 165.46,-52.16 163.07,-58.74"/>
</a>
</g>
</g>
</g>
</svg>
