<?xml version="1.0" encoding="UTF-8" standalone="no"?>
<!DOCTYPE svg PUBLIC "-//W3C//DTD SVG 1.1//EN"
 "http://www.w3.org/Graphics/SVG/1.1/DTD/svg11.dtd">
<!-- Generated by graphviz version 2.43.0 (0)
 -->
<!-- Title: unilink::diagnostics::ValidationException Pages: 1 -->
<svg width="121pt" height="249pt"
 viewBox="0.00 0.00 121.00 249.00" xmlns="http://www.w3.org/2000/svg" xmlns:xlink="http://www.w3.org/1999/xlink">
<g id="graph0" class="graph" transform="scale(1 1) rotate(0) translate(4 245)">
<title>unilink::diagnostics::ValidationException</title>
<!-- Node1 -->
<g id="Node000001" class="node">
<title>Node1</title>
<g id="a_Node000001"><a xlink:title="Exception thrown during input validation.">
<polygon fill="#999999" stroke="transparent" points="113,-60 0,-60 0,0 113,0 113,-60"/>
<text text-anchor="start" x="5.5" y="-48" font-family="Helvetica,sans-Serif" font-size="10.00">unilink::diagnostics</text>
<text text-anchor="start" x="5.5" y="-37" font-family="Helvetica,sans-Serif" font-size="10.00">::ValidationException</text>
<text text-anchor="start" x="55" y="-22" font-family="Helvetica,sans-Serif" font-size="10.00"> </text>
<text text-anchor="start" x="55" y="-7" font-family="Helvetica,sans-Serif" font-size="10.00"> </text>
<polygon fill="#666666" stroke="#666666" points="0.5,-32 0.5,-32 113.5,-32 113.5,-32 0.5,-32"/>
<polygon fill="#666666" stroke="#666666" points="0.5,-17 0.5,-17 113.5,-17 113.5,-17 0.5,-17"/>
<polygon fill="none" stroke="#666666" points="0,0 0,-60 113,-60 113,0 0,0"/>
</a>
</g>
</g>
<!-- Node2 -->
<g id="Node000002" class="node">
<title>Node2</title>
<g id="a_Node000002"><a xlink:href="classunilink_1_1diagnostics_1_1UnilinkException.html" target="_top" xlink:title="Base exception class for all unilink exceptions.">
<polygon fill="white" stroke="transparent" points="109,-156 4,-156 4,-96 109,-96 109,-156"/>
<text text-anchor="start" x="9.5" y="-144" font-family="Helvetica,sans-Serif" font-size="10.00">unilink::diagnostics</text>
<text text-anchor="start" x="12.5" y="-133" font-family="Helvetica,sans-Serif" font-size="10.00">::UnilinkException</text>
<text text-anchor="start" x="55" y="-118" font-family="Helvetica,sans-Serif" font-size="10.00"> </text>
<text text-anchor="start" x="55" y="-103" font-family="Helvetica,sans-Serif" font-size="10.00"> </text>
<polygon fill="#666666" stroke="#666666" points="4.5,-128 4.5,-128 109.5,-128 109.5,-128 4.5,-128"/>
<polygon fill="#666666" stroke="#666666" points="4.5,-113 4.5,-113 109.5,-113 109.5,-113 4.5,-113"/>
<polygon fill="none" stroke="#666666" points="4,-96 4,-156 109,-156 109,-96 4,-96"/>
</a>
</g>
</g>
<!-- Node2&#45;&gt;Node1 -->
<g id="edge1_Node000001_Node000002" class="edge">
<title>Node2&#45;&gt;Node1</title>
<g id="a_edge1_Node000001_Node000002"><a xlink:title=" ">
<path fill="none" stroke="#63b8ff" d="M56.5,-85.63C56.5,-77.11 56.5,-68.25 56.5,-60.21"/>
<polygon fill="none" stroke="#63b8ff" points="53,-85.77 56.5,-95.77 60,-85.77 53,-85.77"/>
</a>
</g>
</g>
<!-- Node3 -->
<g id="Node000003" class="node">
<title>Node3</title>
<g id="a_Node000003"><a xlink:title=" ">
<polygon fill="white" stroke="transparent" points="105.5,-241 7.5,-241 7.5,-192 105.5,-192 105.5,-241"/>
<text text-anchor="start" x="12.5" y="-228.5" font-family="Helvetica,sans-Serif" font-size="10.00">std::runtime_error</text>
<text text-anchor="start" x="54.5" y="-213.5" font-family="Helvetica,sans-Serif" font-size="10.00"> </text>
<text text-anchor="start" x="54.5" y="-198.5" font-family="Helvetica,sans-Serif" font-size="10.00"> </text>
<polygon fill="#bfbfbf" stroke="#bfbfbf" points="7.5,-223.5 7.5,-223.5 105.5,-223.5 105.5,-223.5 7.5,-223.5"/>
<polygon fill="#bfbfbf" stroke="#bfbfbf" points="7.5,-208.5 7.5,-208.5 105.5,-208.5 105.5,-208.5 7.5,-208.5"/>
<polygon fill="none" stroke="#bfbfbf" points="7.5,-192 7.5,-241 105.5,-241 105.5,-192 7.5,-192"/>
</a>
</g>
</g>
<!-- Node3&#45;&gt;Node2 -->
<g id="edge2_Node000002_Node000003" class="edge">
<title>Node3&#45;&gt;Node2</title>
<g id="a_edge2_Node000002_Node000003"><a xlink:title=" ">
<path fill="none" stroke="#63b8ff" d="M56.5,-181.55C56.5,-173.18 56.5,-164.28 56.5,-156.16"/>
<polygon fill="none" stroke="#63b8ff" points="53,-181.78 56.5,-191.78 60,-181.78 53,-181.78"/>
</a>
</g>
</g>
</g>
</svg>
