<?xml version="1.0" encoding="UTF-8" standalone="no"?>
<!DOCTYPE svg PUBLIC "-//W3C//DTD SVG 1.1//EN"
 "http://www.w3.org/Graphics/SVG/1.1/DTD/svg11.dtd">
<!-- Generated by graphviz version 2.43.0 (0)
 -->
<!-- Title: unilink::transport::UdsServerSession Pages: 1 -->
<svg width="181pt" height="164pt"
 viewBox="0.00 0.00 181.00 164.00" xmlns="http://www.w3.org/2000/svg" xmlns:xlink="http://www.w3.org/1999/xlink">
<g id="graph0" class="graph" transform="scale(1 1) rotate(0) translate(4 160)">
<title>unilink::transport::UdsServerSession</title>
<!-- Node1 -->
<g id="Node000001" class="node">
<title>Node1</title>
<g id="a_Node000001"><a xlink:title=" ">
<polygon fill="#999999" stroke="transparent" points="138.5,-60 34.5,-60 34.5,0 138.5,0 138.5,-60"/>
<text text-anchor="start" x="39.5" y="-48" font-family="Helvetica,sans-Serif" font-size="10.00">unilink::transport</text>
<text text-anchor="start" x="39.5" y="-37" font-family="Helvetica,sans-Serif" font-size="10.00">::UdsServerSession</text>
<text text-anchor="start" x="84.5" y="-22" font-family="Helvetica,sans-Serif" font-size="10.00"> </text>
<text text-anchor="start" x="84.5" y="-7" font-family="Helvetica,sans-Serif" font-size="10.00"> </text>
<polygon fill="#666666" stroke="#666666" points="34.5,-32 34.5,-32 138.5,-32 138.5,-32 34.5,-32"/>
<polygon fill="#666666" stroke="#666666" points="34.5,-17 34.5,-17 138.5,-17 138.5,-17 34.5,-17"/>
<polygon fill="none" stroke="#666666" points="34.5,0 34.5,-60 138.5,-60 138.5,0 34.5,0"/>
</a>
</g>
</g>
<!-- Node2 -->
<g id="Node000002" class="node">
<title>Node2</title>
<g id="a_Node000002"><a xlink:title=" ">
<polygon fill="white" stroke="transparent" points="173,-156 0,-156 0,-96 173,-96 173,-156"/>
<text text-anchor="start" x="5.5" y="-144" font-family="Helvetica,sans-Serif" font-size="10.00">std::enable_shared</text>
<text text-anchor="start" x="5.5" y="-133" font-family="Helvetica,sans-Serif" font-size="10.00">_from_this&lt; UdsServerSession &gt;</text>
<text text-anchor="start" x="85" y="-118" font-family="Helvetica,sans-Serif" font-size="10.00"> </text>
<text text-anchor="start" x="85" y="-103" font-family="Helvetica,sans-Serif" font-size="10.00"> </text>
<polygon fill="#bfbfbf" stroke="#bfbfbf" points="0.5,-128 0.5,-128 173.5,-128 173.5,-128 0.5,-128"/>
<polygon fill="#bfbfbf" stroke="#bfbfbf" points="0.5,-113 0.5,-113 173.5,-113 173.5,-113 0.5,-113"/>
<polygon fill="none" stroke="#bfbfbf" points="0,-96 0,-156 173,-156 173,-96 0,-96"/>
</a>
</g>
</g>
<!-- Node2&#45;&gt;Node1 -->
<g id="edge1_Node000001_Node000002" class="edge">
<title>Node2&#45;&gt;Node1</title>
<g id="a_edge1_Node000001_Node000002"><a xlink:title=" ">
<path fill="none" stroke="#63b8ff" d="M86.5,-85.63C86.5,-77.11 86.5,-68.25 86.5,-60.21"/>
<polygon fill="none" stroke="#63b8ff" points="83,-85.77 86.5,-95.77 90,-85.77 83,-85.77"/>
</a>
</g>
</g>
</g>
</svg>
