<?xml version="1.0" encoding="UTF-8" standalone="no"?>
<!DOCTYPE svg PUBLIC "-//W3C//DTD SVG 1.1//EN"
 "http://www.w3.org/Graphics/SVG/1.1/DTD/svg11.dtd">
<!-- Generated by graphviz version 2.43.0 (0)
 -->
<!-- Title: unilink::wrapper::ServerInterface Pages: 1 -->
<!--zoomable 513 -->

<svg id="main" version="1.1" xmlns="http://www.w3.org/2000/svg" xmlns:xlink="http://www.w3.org/1999/xlink" xml:space="preserve" onload="init(evt)">
<style type="text/css"><![CDATA[
.node, .edge {opacity: 0.7;}
.node.selected, .edge.selected {opacity: 1;}
.edge:hover path { stroke: red; }
.edge:hover polygon { stroke: red; fill: red; }
]]></style>

<defs>
  <circle id="rim" cx="0" cy="0" r="7"/>
  <circle id="rim2" cx="0" cy="0" r="3.5"/>
  <g id="zoomPlus">
    <use xlink:href="#rim" fill="#404040"><set attributeName="fill" to="#808080" begin="zoomplus.mouseover" end="zoomplus.mouseout"/></use>
    <path d="M-4,0h8M0,-4v8" fill="none" stroke="white" stroke-width="1.5" pointer-events="none"/>
  </g>
  <g id="zoomMin">
    <use xlink:href="#rim" fill="#404040"><set attributeName="fill" to="#808080" begin="zoomminus.mouseover" end="zoomminus.mouseout"/></use>
    <path d="M-4,0h8" fill="none" stroke="white" stroke-width="1.5" pointer-events="none"/>
  </g>
  <g id="arrowUp" transform="translate(30 24)">
    <use xlink:href="#rim"/>
    <path pointer-events="none" fill="none" stroke="white" stroke-width="1.5" d="M0,-3.0v7 M-2.5,-0.5L0,-3.0L2.5,-0.5"/>
  </g>
  <g id="arrowRight" transform="rotate(90) translate(36 -43)">
    <use xlink:href="#rim"/>
    <path pointer-events="none" fill="none" stroke="white" stroke-width="1.5" d="M0,-3.0v7 M-2.5,-0.5L0,-3.0L2.5,-0.5"/>
  </g>
  <g id="arrowDown" transform="rotate(180) translate(-30 -48)">
    <use xlink:href="#rim"/>
    <path pointer-events="none" fill="none" stroke="white" stroke-width="1.5" d="M0,-3.0v7 M-2.5,-0.5L0,-3.0L2.5,-0.5"/>
  </g>
  <g id="arrowLeft" transform="rotate(270) translate(-36 17)">
    <use xlink:href="#rim"/>
    <path pointer-events="none" fill="none" stroke="white" stroke-width="1.5" d="M0,-3.0v7 M-2.5,-0.5L0,-3.0L2.5,-0.5"/>
  </g>
  <g id="resetDef">
    <use xlink:href="#rim2" fill="#404040"><set attributeName="fill" to="#808080" begin="reset.mouseover" end="reset.mouseout"/></use>
  </g>
</defs>
<script type="application/ecmascript">
var viewWidth = 480;
var viewHeight = 513;
var sectionId = 'dynsection-0';
</script>
<script type="application/ecmascript" xlink:href="svg.min.js"/>
<svg id="graph" class="graph">
<g id="viewport">
<title>unilink::wrapper::ServerInterface</title>
<!-- Node1 -->
<g id="Node000001" class="node">
<title>Node1</title>
<g id="a_Node000001"><a xlink:title="Interface for 1:N server communication (e.g., TcpServer)">
<polygon fill="#999999" stroke="transparent" points="298,-505 171,-505 171,-295 298,-295 298,-505"/>
<text text-anchor="start" x="176.5" y="-493" font-family="Helvetica,sans-Serif" font-size="10.00">unilink::wrapper::Server</text>
<text text-anchor="start" x="213" y="-482" font-family="Helvetica,sans-Serif" font-size="10.00">Interface</text>
<text text-anchor="start" x="233" y="-467" font-family="Helvetica,sans-Serif" font-size="10.00"> </text>
<text text-anchor="start" x="177.5" y="-452" font-family="Helvetica,sans-Serif" font-size="10.00">+</text>
<text text-anchor="start" x="192.5" y="-452" font-family="Helvetica,sans-Serif" font-size="10.00">start_sync()</text>
<text text-anchor="start" x="177.5" y="-437" font-family="Helvetica,sans-Serif" font-size="10.00">+</text>
<text text-anchor="start" x="192.5" y="-437" font-family="Helvetica,sans-Serif" font-size="10.00">stop()</text>
<text text-anchor="start" x="177.5" y="-422" font-family="Helvetica,sans-Serif" font-size="10.00">+</text>
<text text-anchor="start" x="192.5" y="-422" font-family="Helvetica,sans-Serif" font-size="10.00">send_to()</text>
<text text-anchor="start" x="177.5" y="-407" font-family="Helvetica,sans-Serif" font-size="10.00">+</text>
<text text-anchor="start" x="192.5" y="-407" font-family="Helvetica,sans-Serif" font-size="10.00">broadcast()</text>
<text text-anchor="start" x="177.5" y="-392" font-family="Helvetica,sans-Serif" font-size="10.00">+</text>
<text text-anchor="start" x="192.5" y="-392" font-family="Helvetica,sans-Serif" font-size="10.00">send_to_blocking()</text>
<text text-anchor="start" x="177.5" y="-377" font-family="Helvetica,sans-Serif" font-size="10.00">+</text>
<text text-anchor="start" x="192.5" y="-377" font-family="Helvetica,sans-Serif" font-size="10.00">try_send_to()</text>
<text text-anchor="start" x="177.5" y="-362" font-family="Helvetica,sans-Serif" font-size="10.00">+</text>
<text text-anchor="start" x="192.5" y="-362" font-family="Helvetica,sans-Serif" font-size="10.00">try_broadcast()</text>
<text text-anchor="start" x="177.5" y="-347" font-family="Helvetica,sans-Serif" font-size="10.00">+</text>
<text text-anchor="start" x="192.5" y="-347" font-family="Helvetica,sans-Serif" font-size="10.00">broadcast_line()</text>
<text text-anchor="start" x="177.5" y="-332" font-family="Helvetica,sans-Serif" font-size="10.00">+</text>
<text text-anchor="start" x="192.5" y="-332" font-family="Helvetica,sans-Serif" font-size="10.00">send_to_line()</text>
<text text-anchor="start" x="177.5" y="-317" font-family="Helvetica,sans-Serif" font-size="10.00">+</text>
<text text-anchor="start" x="192.5" y="-317" font-family="Helvetica,sans-Serif" font-size="10.00">try_broadcast_line()</text>
<text text-anchor="start" x="192.5" y="-302" font-family="Helvetica,sans-Serif" font-size="10.00">and 6 more...</text>
<polygon fill="#666666" stroke="#666666" points="171.5,-477 171.5,-477 298.5,-477 298.5,-477 171.5,-477"/>
<polygon fill="#666666" stroke="#666666" points="171.5,-462 171.5,-462 298.5,-462 298.5,-462 171.5,-462"/>
<polygon fill="none" stroke="#666666" points="171,-295 171,-505 298,-505 298,-295 171,-295"/>
</a>
</g>
</g>
<!-- Node2 -->
<g id="Node000002" class="node">
<title>Node2</title>
<g id="a_Node000002"><a xlink:href="classunilink_1_1wrapper_1_1TcpServer.html" target="_top" xlink:title="Modernized TCP Server Wrapper.">
<polygon fill="white" stroke="transparent" points="143,-229 0,-229 0,-30 143,-30 143,-229"/>
<text text-anchor="start" x="5.5" y="-216.5" font-family="Helvetica,sans-Serif" font-size="10.00">unilink::wrapper::TcpServer</text>
<text text-anchor="start" x="70" y="-201.5" font-family="Helvetica,sans-Serif" font-size="10.00"> </text>
<text text-anchor="start" x="10.5" y="-186.5" font-family="Helvetica,sans-Serif" font-size="10.00">+</text>
<text text-anchor="start" x="29.5" y="-186.5" font-family="Helvetica,sans-Serif" font-size="10.00">stop()</text>
<text text-anchor="start" x="10.5" y="-171.5" font-family="Helvetica,sans-Serif" font-size="10.00">+</text>
<text text-anchor="start" x="29.5" y="-171.5" font-family="Helvetica,sans-Serif" font-size="10.00">broadcast()</text>
<text text-anchor="start" x="10.5" y="-156.5" font-family="Helvetica,sans-Serif" font-size="10.00">+</text>
<text text-anchor="start" x="29.5" y="-156.5" font-family="Helvetica,sans-Serif" font-size="10.00">send_to()</text>
<text text-anchor="start" x="10.5" y="-141.5" font-family="Helvetica,sans-Serif" font-size="10.00">+</text>
<text text-anchor="start" x="29.5" y="-141.5" font-family="Helvetica,sans-Serif" font-size="10.00">send_to_blocking()</text>
<text text-anchor="start" x="10.5" y="-126.5" font-family="Helvetica,sans-Serif" font-size="10.00">+</text>
<text text-anchor="start" x="29.5" y="-126.5" font-family="Helvetica,sans-Serif" font-size="10.00">try_send_to()</text>
<text text-anchor="start" x="10.5" y="-111.5" font-family="Helvetica,sans-Serif" font-size="10.00">+</text>
<text text-anchor="start" x="29.5" y="-111.5" font-family="Helvetica,sans-Serif" font-size="10.00">try_broadcast()</text>
<text text-anchor="start" x="10.5" y="-96.5" font-family="Helvetica,sans-Serif" font-size="10.00">+</text>
<text text-anchor="start" x="29.5" y="-96.5" font-family="Helvetica,sans-Serif" font-size="10.00">broadcast_line()</text>
<text text-anchor="start" x="10.5" y="-81.5" font-family="Helvetica,sans-Serif" font-size="10.00">+</text>
<text text-anchor="start" x="29.5" y="-81.5" font-family="Helvetica,sans-Serif" font-size="10.00">send_to_line()</text>
<text text-anchor="start" x="10.5" y="-66.5" font-family="Helvetica,sans-Serif" font-size="10.00">+</text>
<text text-anchor="start" x="29.5" y="-66.5" font-family="Helvetica,sans-Serif" font-size="10.00">try_broadcast_line()</text>
<text text-anchor="start" x="10.5" y="-51.5" font-family="Helvetica,sans-Serif" font-size="10.00">+</text>
<text text-anchor="start" x="29.5" y="-51.5" font-family="Helvetica,sans-Serif" font-size="10.00">try_send_to_line()</text>
<text text-anchor="start" x="29.5" y="-36.5" font-family="Helvetica,sans-Serif" font-size="10.00">and 6 more...</text>
<polygon fill="#666666" stroke="#666666" points="0.5,-211.5 0.5,-211.5 143.5,-211.5 143.5,-211.5 0.5,-211.5"/>
<polygon fill="#666666" stroke="#666666" points="0.5,-196.5 0.5,-196.5 143.5,-196.5 143.5,-196.5 0.5,-196.5"/>
<polygon fill="none" stroke="#666666" points="0,-30 0,-229 143,-229 143,-30 0,-30"/>
</a>
</g>
</g>
<!-- Node1&#45;&gt;Node2 -->
<g id="edge1_Node000001_Node000002" class="edge">
<title>Node1&#45;&gt;Node2</title>
<g id="a_edge1_Node000001_Node000002"><a xlink:title=" ">
<path fill="none" stroke="#63b8ff" d="M166.01,-286.18C154.55,-267.3 142.74,-247.84 131.51,-229.35"/>
<polygon fill="none" stroke="#63b8ff" points="163.07,-288.07 171.25,-294.81 169.05,-284.44 163.07,-288.07"/>
</a>
</g>
</g>
<!-- Node3 -->
<g id="Node000003" class="node">
<title>Node3</title>
<g id="a_Node000003"><a xlink:href="classunilink_1_1wrapper_1_1UdpServer.html" target="_top" xlink:title="UDP implementation of ServerInterface using virtual sessions.">
<polygon fill="white" stroke="transparent" points="307.5,-229 161.5,-229 161.5,-30 307.5,-30 307.5,-229"/>
<text text-anchor="start" x="166.5" y="-216.5" font-family="Helvetica,sans-Serif" font-size="10.00">unilink::wrapper::UdpServer</text>
<text text-anchor="start" x="232.5" y="-201.5" font-family="Helvetica,sans-Serif" font-size="10.00"> </text>
<text text-anchor="start" x="172" y="-186.5" font-family="Helvetica,sans-Serif" font-size="10.00">+</text>
<text text-anchor="start" x="191.5" y="-186.5" font-family="Helvetica,sans-Serif" font-size="10.00">stop()</text>
<text text-anchor="start" x="172" y="-171.5" font-family="Helvetica,sans-Serif" font-size="10.00">+</text>
<text text-anchor="start" x="191.5" y="-171.5" font-family="Helvetica,sans-Serif" font-size="10.00">broadcast()</text>
<text text-anchor="start" x="172" y="-156.5" font-family="Helvetica,sans-Serif" font-size="10.00">+</text>
<text text-anchor="start" x="191.5" y="-156.5" font-family="Helvetica,sans-Serif" font-size="10.00">send_to()</text>
<text text-anchor="start" x="172" y="-141.5" font-family="Helvetica,sans-Serif" font-size="10.00">+</text>
<text text-anchor="start" x="191.5" y="-141.5" font-family="Helvetica,sans-Serif" font-size="10.00">send_to_blocking()</text>
<text text-anchor="start" x="172" y="-126.5" font-family="Helvetica,sans-Serif" font-size="10.00">+</text>
<text text-anchor="start" x="191.5" y="-126.5" font-family="Helvetica,sans-Serif" font-size="10.00">try_send_to()</text>
<text text-anchor="start" x="172" y="-111.5" font-family="Helvetica,sans-Serif" font-size="10.00">+</text>
<text text-anchor="start" x="191.5" y="-111.5" font-family="Helvetica,sans-Serif" font-size="10.00">try_broadcast()</text>
<text text-anchor="start" x="172" y="-96.5" font-family="Helvetica,sans-Serif" font-size="10.00">+</text>
<text text-anchor="start" x="191.5" y="-96.5" font-family="Helvetica,sans-Serif" font-size="10.00">broadcast_line()</text>
<text text-anchor="start" x="172" y="-81.5" font-family="Helvetica,sans-Serif" font-size="10.00">+</text>
<text text-anchor="start" x="191.5" y="-81.5" font-family="Helvetica,sans-Serif" font-size="10.00">send_to_line()</text>
<text text-anchor="start" x="172" y="-66.5" font-family="Helvetica,sans-Serif" font-size="10.00">+</text>
<text text-anchor="start" x="191.5" y="-66.5" font-family="Helvetica,sans-Serif" font-size="10.00">try_broadcast_line()</text>
<text text-anchor="start" x="172" y="-51.5" font-family="Helvetica,sans-Serif" font-size="10.00">+</text>
<text text-anchor="start" x="191.5" y="-51.5" font-family="Helvetica,sans-Serif" font-size="10.00">try_send_to_line()</text>
<text text-anchor="start" x="191.5" y="-36.5" font-family="Helvetica,sans-Serif" font-size="10.00">and 6 more...</text>
<polygon fill="#666666" stroke="#666666" points="161.5,-211.5 161.5,-211.5 307.5,-211.5 307.5,-211.5 161.5,-211.5"/>
<polygon fill="#666666" stroke="#666666" points="161.5,-196.5 161.5,-196.5 307.5,-196.5 307.5,-196.5 161.5,-196.5"/>
<polygon fill="none" stroke="#666666" points="161.5,-30 161.5,-229 307.5,-229 307.5,-30 161.5,-30"/>
</a>
</g>
</g>
<!-- Node1&#45;&gt;Node3 -->
<g id="edge2_Node000001_Node000003" class="edge">
<title>Node1&#45;&gt;Node3</title>
<g id="a_edge2_Node000001_Node000003"><a xlink:title=" ">
<path fill="none" stroke="#63b8ff" d="M234.5,-284.65C234.5,-266.25 234.5,-247.34 234.5,-229.35"/>
<polygon fill="none" stroke="#63b8ff" points="231,-284.81 234.5,-294.81 238,-284.81 231,-284.81"/>
</a>
</g>
</g>
<!-- Node4 -->
<g id="Node000004" class="node">
<title>Node4</title>
<g id="a_Node000004"><a xlink:href="classunilink_1_1wrapper_1_1UdsServer.html" target="_top" xlink:title="Modernized UDS Server Wrapper.">
<polygon fill="white" stroke="transparent" points="471.5,-259 325.5,-259 325.5,0 471.5,0 471.5,-259"/>
<text text-anchor="start" x="330.5" y="-246.5" font-family="Helvetica,sans-Serif" font-size="10.00">unilink::wrapper::UdsServer</text>
<text text-anchor="start" x="396.5" y="-231.5" font-family="Helvetica,sans-Serif" font-size="10.00"> </text>
<text text-anchor="start" x="335" y="-216.5" font-family="Helvetica,sans-Serif" font-size="10.00">+</text>
<text text-anchor="start" x="353.5" y="-216.5" font-family="Helvetica,sans-Serif" font-size="10.00">stop()</text>
<text text-anchor="start" x="335" y="-201.5" font-family="Helvetica,sans-Serif" font-size="10.00">+</text>
<text text-anchor="start" x="353.5" y="-201.5" font-family="Helvetica,sans-Serif" font-size="10.00">broadcast()</text>
<text text-anchor="start" x="335" y="-186.5" font-family="Helvetica,sans-Serif" font-size="10.00">+</text>
<text text-anchor="start" x="353.5" y="-186.5" font-family="Helvetica,sans-Serif" font-size="10.00">send_to()</text>
<text text-anchor="start" x="335" y="-171.5" font-family="Helvetica,sans-Serif" font-size="10.00">+</text>
<text text-anchor="start" x="353.5" y="-171.5" font-family="Helvetica,sans-Serif" font-size="10.00">send_to_blocking()</text>
<text text-anchor="start" x="335" y="-156.5" font-family="Helvetica,sans-Serif" font-size="10.00">+</text>
<text text-anchor="start" x="353.5" y="-156.5" font-family="Helvetica,sans-Serif" font-size="10.00">try_send_to()</text>
<text text-anchor="start" x="335" y="-141.5" font-family="Helvetica,sans-Serif" font-size="10.00">+</text>
<text text-anchor="start" x="353.5" y="-141.5" font-family="Helvetica,sans-Serif" font-size="10.00">try_broadcast()</text>
<text text-anchor="start" x="335" y="-126.5" font-family="Helvetica,sans-Serif" font-size="10.00">+</text>
<text text-anchor="start" x="353.5" y="-126.5" font-family="Helvetica,sans-Serif" font-size="10.00">broadcast_line()</text>
<text text-anchor="start" x="335" y="-111.5" font-family="Helvetica,sans-Serif" font-size="10.00">+</text>
<text text-anchor="start" x="353.5" y="-111.5" font-family="Helvetica,sans-Serif" font-size="10.00">send_to_line()</text>
<text text-anchor="start" x="335" y="-96.5" font-family="Helvetica,sans-Serif" font-size="10.00">+</text>
<text text-anchor="start" x="353.5" y="-96.5" font-family="Helvetica,sans-Serif" font-size="10.00">try_broadcast_line()</text>
<text text-anchor="start" x="335" y="-81.5" font-family="Helvetica,sans-Serif" font-size="10.00">+</text>
<text text-anchor="start" x="353.5" y="-81.5" font-family="Helvetica,sans-Serif" font-size="10.00">try_send_to_line()</text>
<text text-anchor="start" x="335" y="-66.5" font-family="Helvetica,sans-Serif" font-size="10.00">+</text>
<text text-anchor="start" x="353.5" y="-66.5" font-family="Helvetica,sans-Serif" font-size="10.00">on_data_batch()</text>
<text text-anchor="start" x="335" y="-51.5" font-family="Helvetica,sans-Serif" font-size="10.00">+</text>
<text text-anchor="start" x="353.5" y="-51.5" font-family="Helvetica,sans-Serif" font-size="10.00">on_backpressure()</text>
<text text-anchor="start" x="335" y="-36.5" font-family="Helvetica,sans-Serif" font-size="10.00">+</text>
<text text-anchor="start" x="353.5" y="-36.5" font-family="Helvetica,sans-Serif" font-size="10.00">framer()</text>
<text text-anchor="start" x="335" y="-21.5" font-family="Helvetica,sans-Serif" font-size="10.00">+</text>
<text text-anchor="start" x="353.5" y="-21.5" font-family="Helvetica,sans-Serif" font-size="10.00">on_message()</text>
<text text-anchor="start" x="335" y="-6.5" font-family="Helvetica,sans-Serif" font-size="10.00">+</text>
<text text-anchor="start" x="353.5" y="-6.5" font-family="Helvetica,sans-Serif" font-size="10.00">on_message_batch()</text>
<polygon fill="#666666" stroke="#666666" points="325.5,-241.5 325.5,-241.5 471.5,-241.5 471.5,-241.5 325.5,-241.5"/>
<polygon fill="#666666" stroke="#666666" points="325.5,-226.5 325.5,-226.5 471.5,-226.5 471.5,-226.5 325.5,-226.5"/>
<polygon fill="none" stroke="#666666" points="325.5,0 325.5,-259 471.5,-259 471.5,0 325.5,0"/>
</a>
</g>
</g>
<!-- Node1&#45;&gt;Node4 -->
<g id="edge3_Node000001_Node000004" class="edge">
<title>Node1&#45;&gt;Node4</title>
<g id="a_edge3_Node000001_Node000004"><a xlink:title=" ">
<path fill="none" stroke="#63b8ff" d="M303.4,-286.2C310.65,-274.33 318.05,-262.22 325.35,-250.27"/>
<polygon fill="none" stroke="#63b8ff" points="300.37,-284.45 298.14,-294.81 306.34,-288.1 300.37,-284.45"/>
</a>
</g>
</g>
</g>
</svg>

<g id="navigator" transform="translate(0 0)" fill="#404254">
  <rect fill="#f2f5e9" fill-opacity="0.5" stroke="#606060" stroke-width=".5" x="0" y="0" width="60" height="60"/>
  <use id="zoomplus" xlink:href="#zoomPlus" x="17" y="9" onmousedown="handleZoom(evt,'in')"/>
  <use id="zoomminus" xlink:href="#zoomMin" x="42" y="9" onmousedown="handleZoom(evt,'out')"/>
  <use id="reset" xlink:href="#resetDef" x="30" y="36" onmousedown="handleReset()"/>
   <use id="arrowup" xlink:href="#arrowUp" x="0" y="0" onmousedown="handlePan(0,-1)"/>
  <use id="arrowright" xlink:href="#arrowRight" x="0" y="0" onmousedown="handlePan(1,0)"/>
  <use id="arrowdown" xlink:href="#arrowDown" x="0" y="0" onmousedown="handlePan(0,1)"/>
  <use id="arrowleft" xlink:href="#arrowLeft" x="0" y="0" onmousedown="handlePan(-1,0)"/>
</g>
<svg viewBox="0 0 15 15" width="100%" height="30px" preserveAspectRatio="xMaxYMin meet">
 <g id="arrow_out" transform="scale(0.3 0.3)">
  <a xlink:href="classunilink_1_1wrapper_1_1ServerInterface__inherit__graph_org.svg" target="_base">
   <rect id="button" ry="5" rx="5" y="6" x="6" height="38" width="38"
        fill="#f2f5e9" fill-opacity="0.5" stroke="#606060" stroke-width="1.0"/>
   <path id="arrow"
     d="M 11.500037,31.436501 C 11.940474,20.09759 22.043105,11.32322 32.158766,21.979434 L 37.068811,17.246167 C 37.068811,17.246167 37.088388,32 37.088388,32 L 22.160133,31.978069 C 22.160133,31.978069 26.997745,27.140456 26.997745,27.140456 C 18.528582,18.264221 13.291696,25.230495 11.500037,31.436501 z"
     style="fill:#404040;"/>
  </a>
 </g>
</svg>

<style type='text/css'>
<![CDATA[
[data-mouse-over-selected='false'] { opacity: 0.7; }
[data-mouse-over-selected='true']  { opacity: 1.0; }
]]>
</style>
<script type="application/ecmascript"><![CDATA[
document.addEventListener('DOMContentLoaded', (event) => {
  highlightEdges();
  highlightAdjacentNodes();
});
]]></script>
</svg>
