<?xml version="1.0" encoding="UTF-8" standalone="no"?>
<!DOCTYPE svg PUBLIC "-//W3C//DTD SVG 1.1//EN"
 "http://www.w3.org/Graphics/SVG/1.1/DTD/svg11.dtd">
<!-- Generated by graphviz version 2.43.0 (0)
 -->
<!-- Title: unilink::transport::BoostUdsAcceptor Pages: 1 -->
<svg width="130pt" height="164pt"
 viewBox="0.00 0.00 130.00 164.00" xmlns="http://www.w3.org/2000/svg" xmlns:xlink="http://www.w3.org/1999/xlink">
<g id="graph0" class="graph" transform="scale(1 1) rotate(0) translate(4 160)">
<title>unilink::transport::BoostUdsAcceptor</title>
<!-- Node1 -->
<g id="Node000001" class="node">
<title>Node1</title>
<g id="a_Node000001"><a xlink:title="Boost.Asio implementation of UdsAcceptorInterface interface.">
<polygon fill="#999999" stroke="transparent" points="114,-60 8,-60 8,0 114,0 114,-60"/>
<text text-anchor="start" x="13" y="-48" font-family="Helvetica,sans-Serif" font-size="10.00">unilink::transport</text>
<text text-anchor="start" x="13" y="-37" font-family="Helvetica,sans-Serif" font-size="10.00">::BoostUdsAcceptor</text>
<text text-anchor="start" x="59" y="-22" font-family="Helvetica,sans-Serif" font-size="10.00"> </text>
<text text-anchor="start" x="59" y="-7" font-family="Helvetica,sans-Serif" font-size="10.00"> </text>
<polygon fill="#666666" stroke="#666666" points="8,-32 8,-32 114,-32 114,-32 8,-32"/>
<polygon fill="#666666" stroke="#666666" points="8,-17 8,-17 114,-17 114,-17 8,-17"/>
<polygon fill="none" stroke="#666666" points="8,0 8,-60 114,-60 114,0 8,0"/>
</a>
</g>
</g>
<!-- Node2 -->
<g id="Node000002" class="node">
<title>Node2</title>
<g id="a_Node000002"><a xlink:href="classunilink_1_1interface_1_1UdsAcceptorInterface.html" target="_top" xlink:title="An interface abstracting Boost.Asio&#39;s local::stream_protocol::acceptor for testability....">
<polygon fill="white" stroke="transparent" points="122,-156 0,-156 0,-96 122,-96 122,-156"/>
<text text-anchor="start" x="5" y="-144" font-family="Helvetica,sans-Serif" font-size="10.00">unilink::interface</text>
<text text-anchor="start" x="5" y="-133" font-family="Helvetica,sans-Serif" font-size="10.00">::UdsAcceptorInterface</text>
<text text-anchor="start" x="59" y="-118" font-family="Helvetica,sans-Serif" font-size="10.00"> </text>
<text text-anchor="start" x="59" y="-103" font-family="Helvetica,sans-Serif" font-size="10.00"> </text>
<polygon fill="#666666" stroke="#666666" points="0,-128 0,-128 122,-128 122,-128 0,-128"/>
<polygon fill="#666666" stroke="#666666" points="0,-113 0,-113 122,-113 122,-113 0,-113"/>
<polygon fill="none" stroke="#666666" points="0,-96 0,-156 122,-156 122,-96 0,-96"/>
</a>
</g>
</g>
<!-- Node2&#45;&gt;Node1 -->
<g id="edge1_Node000001_Node000002" class="edge">
<title>Node2&#45;&gt;Node1</title>
<g id="a_edge1_Node000001_Node000002"><a xlink:title=" ">
<path fill="none" stroke="#63b8ff" d="M61,-85.63C61,-77.11 61,-68.25 61,-60.21"/>
<polygon fill="none" stroke="#63b8ff" points="57.5,-85.77 61,-95.77 64.5,-85.77 57.5,-85.77"/>
</a>
</g>
</g>
</g>
</svg>
