<?xml version="1.0" encoding="UTF-8" standalone="no"?>
<!DOCTYPE svg PUBLIC "-//W3C//DTD SVG 1.1//EN"
 "http://www.w3.org/Graphics/SVG/1.1/DTD/svg11.dtd">
<!-- Generated by graphviz version 2.43.0 (0)
 -->
<!-- Title: unilink::builder::UdpServerBuilder&lt; State &gt; Pages: 1 -->
<svg width="148pt" height="355pt"
 viewBox="0.00 0.00 148.00 355.00" xmlns="http://www.w3.org/2000/svg" xmlns:xlink="http://www.w3.org/1999/xlink">
<g id="graph0" class="graph" transform="scale(1 1) rotate(0) translate(4 351)">
<title>unilink::builder::UdpServerBuilder&lt; State &gt;</title>
<!-- Node1 -->
<g id="Node000001" class="node">
<title>Node1</title>
<g id="a_Node000001"><a xlink:title="Modernized Builder for UdpServer.">
<polygon fill="#999999" stroke="transparent" points="140,-90 0,-90 0,0 140,0 140,-90"/>
<text text-anchor="start" x="5" y="-78" font-family="Helvetica,sans-Serif" font-size="10.00">unilink::builder::UdpServer</text>
<text text-anchor="start" x="28.5" y="-67" font-family="Helvetica,sans-Serif" font-size="10.00">Builder&lt; State &gt;</text>
<text text-anchor="start" x="68" y="-52" font-family="Helvetica,sans-Serif" font-size="10.00"> </text>
<text text-anchor="start" x="16" y="-37" font-family="Helvetica,sans-Serif" font-size="10.00">+</text>
<text text-anchor="start" x="41" y="-37" font-family="Helvetica,sans-Serif" font-size="10.00">build()</text>
<text text-anchor="start" x="16" y="-22" font-family="Helvetica,sans-Serif" font-size="10.00">+</text>
<text text-anchor="start" x="41" y="-22" font-family="Helvetica,sans-Serif" font-size="10.00">auto_start()</text>
<text text-anchor="start" x="16" y="-7" font-family="Helvetica,sans-Serif" font-size="10.00">+</text>
<text text-anchor="start" x="41" y="-7" font-family="Helvetica,sans-Serif" font-size="10.00">idle_timeout()</text>
<polygon fill="#666666" stroke="#666666" points="0,-62 0,-62 140,-62 140,-62 0,-62"/>
<polygon fill="#666666" stroke="#666666" points="0,-47 0,-47 140,-47 140,-47 0,-47"/>
<polygon fill="none" stroke="#666666" points="0,0 0,-90 140,-90 140,0 0,0"/>
</a>
</g>
</g>
<!-- Node2 -->
<g id="Node000002" class="node">
<title>Node2</title>
<g id="a_Node000002"><a xlink:href="classunilink_1_1builder_1_1BuilderInterface.html" target="_top" xlink:title="Generic Builder interface for fluent API pattern.">
<polygon fill="white" stroke="transparent" points="132,-347 8,-347 8,-126 132,-126 132,-347"/>
<text text-anchor="start" x="13" y="-334.5" font-family="Helvetica,sans-Serif" font-size="10.00">unilink::builder::Builder</text>
<text text-anchor="start" x="13" y="-323.5" font-family="Helvetica,sans-Serif" font-size="10.00">Interface&lt; T, Derived,</text>
<text text-anchor="start" x="50" y="-312.5" font-family="Helvetica,sans-Serif" font-size="10.00"> State &gt;</text>
<text text-anchor="start" x="68" y="-297.5" font-family="Helvetica,sans-Serif" font-size="10.00"> </text>
<text text-anchor="start" x="18" y="-282.5" font-family="Helvetica,sans-Serif" font-size="10.00">+</text>
<text text-anchor="start" x="37" y="-282.5" font-family="Helvetica,sans-Serif" font-size="10.00">build()</text>
<text text-anchor="start" x="18" y="-267.5" font-family="Helvetica,sans-Serif" font-size="10.00">+</text>
<text text-anchor="start" x="37" y="-267.5" font-family="Helvetica,sans-Serif" font-size="10.00">auto_start()</text>
<text text-anchor="start" x="18" y="-252.5" font-family="Helvetica,sans-Serif" font-size="10.00">+</text>
<text text-anchor="start" x="37" y="-252.5" font-family="Helvetica,sans-Serif" font-size="10.00">on_data()</text>
<text text-anchor="start" x="18" y="-237.5" font-family="Helvetica,sans-Serif" font-size="10.00">+</text>
<text text-anchor="start" x="37" y="-237.5" font-family="Helvetica,sans-Serif" font-size="10.00">on_data_batch()</text>
<text text-anchor="start" x="18" y="-222.5" font-family="Helvetica,sans-Serif" font-size="10.00">+</text>
<text text-anchor="start" x="37" y="-222.5" font-family="Helvetica,sans-Serif" font-size="10.00">on_data()</text>
<text text-anchor="start" x="18" y="-207.5" font-family="Helvetica,sans-Serif" font-size="10.00">+</text>
<text text-anchor="start" x="37" y="-207.5" font-family="Helvetica,sans-Serif" font-size="10.00">on_connect()</text>
<text text-anchor="start" x="18" y="-192.5" font-family="Helvetica,sans-Serif" font-size="10.00">+</text>
<text text-anchor="start" x="37" y="-192.5" font-family="Helvetica,sans-Serif" font-size="10.00">on_connect()</text>
<text text-anchor="start" x="18" y="-177.5" font-family="Helvetica,sans-Serif" font-size="10.00">+</text>
<text text-anchor="start" x="37" y="-177.5" font-family="Helvetica,sans-Serif" font-size="10.00">on_disconnect()</text>
<text text-anchor="start" x="18" y="-162.5" font-family="Helvetica,sans-Serif" font-size="10.00">+</text>
<text text-anchor="start" x="37" y="-162.5" font-family="Helvetica,sans-Serif" font-size="10.00">on_disconnect()</text>
<text text-anchor="start" x="18" y="-147.5" font-family="Helvetica,sans-Serif" font-size="10.00">+</text>
<text text-anchor="start" x="37" y="-147.5" font-family="Helvetica,sans-Serif" font-size="10.00">on_error()</text>
<text text-anchor="start" x="37" y="-132.5" font-family="Helvetica,sans-Serif" font-size="10.00">and 10 more...</text>
<polygon fill="#666666" stroke="#666666" points="8,-307.5 8,-307.5 132,-307.5 132,-307.5 8,-307.5"/>
<polygon fill="#666666" stroke="#666666" points="8,-292.5 8,-292.5 132,-292.5 132,-292.5 8,-292.5"/>
<polygon fill="none" stroke="#666666" points="8,-126 8,-347 132,-347 132,-126 8,-126"/>
</a>
</g>
</g>
<!-- Node2&#45;&gt;Node1 -->
<g id="edge1_Node000001_Node000002" class="edge">
<title>Node2&#45;&gt;Node1</title>
<g id="a_edge1_Node000001_Node000002"><a xlink:title=" ">
<path fill="none" stroke="#63b8ff" d="M70,-115.58C70,-106.61 70,-97.97 70,-90.01"/>
<polygon fill="none" stroke="#63b8ff" points="66.5,-115.82 70,-125.82 73.5,-115.82 66.5,-115.82"/>
</a>
</g>
</g>
</g>
</svg>
