<?xml version="1.0" encoding="UTF-8" standalone="no"?>
<!DOCTYPE svg PUBLIC "-//W3C//DTD SVG 1.1//EN"
 "http://www.w3.org/Graphics/SVG/1.1/DTD/svg11.dtd">
<!-- Generated by graphviz version 2.43.0 (0)
 -->
<!-- Title: unilink::diagnostics::UnilinkException Pages: 1 -->
<svg width="653pt" height="249pt"
 viewBox="0.00 0.00 653.00 249.00" xmlns="http://www.w3.org/2000/svg" xmlns:xlink="http://www.w3.org/1999/xlink">
<g id="graph0" class="graph" transform="scale(1 1) rotate(0) translate(4 245)">
<title>unilink::diagnostics::UnilinkException</title>
<!-- Node1 -->
<g id="Node000001" class="node">
<title>Node1</title>
<g id="a_Node000001"><a xlink:title="Base exception class for all unilink exceptions.">
<polygon fill="#999999" stroke="transparent" points="384,-156 279,-156 279,-96 384,-96 384,-156"/>
<text text-anchor="start" x="284.5" y="-144" font-family="Helvetica,sans-Serif" font-size="10.00">unilink::diagnostics</text>
<text text-anchor="start" x="287.5" y="-133" font-family="Helvetica,sans-Serif" font-size="10.00">::UnilinkException</text>
<text text-anchor="start" x="330" y="-118" font-family="Helvetica,sans-Serif" font-size="10.00"> </text>
<text text-anchor="start" x="330" y="-103" font-family="Helvetica,sans-Serif" font-size="10.00"> </text>
<polygon fill="#666666" stroke="#666666" points="279.5,-128 279.5,-128 384.5,-128 384.5,-128 279.5,-128"/>
<polygon fill="#666666" stroke="#666666" points="279.5,-113 279.5,-113 384.5,-113 384.5,-113 279.5,-113"/>
<polygon fill="none" stroke="#666666" points="279,-96 279,-156 384,-156 384,-96 279,-96"/>
</a>
</g>
</g>
<!-- Node3 -->
<g id="Node000003" class="node">
<title>Node3</title>
<g id="a_Node000003"><a xlink:href="classunilink_1_1diagnostics_1_1BuilderException.html" target="_top" xlink:title="Exception thrown during builder operations.">
<polygon fill="white" stroke="transparent" points="105,-60 0,-60 0,0 105,0 105,-60"/>
<text text-anchor="start" x="5.5" y="-48" font-family="Helvetica,sans-Serif" font-size="10.00">unilink::diagnostics</text>
<text text-anchor="start" x="8.5" y="-37" font-family="Helvetica,sans-Serif" font-size="10.00">::BuilderException</text>
<text text-anchor="start" x="51" y="-22" font-family="Helvetica,sans-Serif" font-size="10.00"> </text>
<text text-anchor="start" x="51" y="-7" font-family="Helvetica,sans-Serif" font-size="10.00"> </text>
<polygon fill="#666666" stroke="#666666" points="0.5,-32 0.5,-32 105.5,-32 105.5,-32 0.5,-32"/>
<polygon fill="#666666" stroke="#666666" points="0.5,-17 0.5,-17 105.5,-17 105.5,-17 0.5,-17"/>
<polygon fill="none" stroke="#666666" points="0,0 0,-60 105,-60 105,0 0,0"/>
</a>
</g>
</g>
<!-- Node1&#45;&gt;Node3 -->
<g id="edge2_Node000001_Node000003" class="edge">
<title>Node1&#45;&gt;Node3</title>
<g id="a_edge2_Node000001_Node000003"><a xlink:title=" ">
<path fill="none" stroke="#63b8ff" d="M268.95,-108.88C225.15,-96.96 165.57,-79.47 114.5,-60 111.39,-58.81 108.22,-57.54 105.04,-56.21"/>
<polygon fill="none" stroke="#63b8ff" points="268.04,-112.26 278.6,-111.49 269.86,-105.5 268.04,-112.26"/>
</a>
</g>
</g>
<!-- Node4 -->
<g id="Node000004" class="node">
<title>Node4</title>
<g id="a_Node000004"><a xlink:href="classunilink_1_1diagnostics_1_1ConfigurationException.html" target="_top" xlink:title="Exception thrown during configuration operations.">
<polygon fill="white" stroke="transparent" points="253.5,-60 123.5,-60 123.5,0 253.5,0 253.5,-60"/>
<text text-anchor="start" x="128.5" y="-48" font-family="Helvetica,sans-Serif" font-size="10.00">unilink::diagnostics</text>
<text text-anchor="start" x="128.5" y="-37" font-family="Helvetica,sans-Serif" font-size="10.00">::ConfigurationException</text>
<text text-anchor="start" x="186.5" y="-22" font-family="Helvetica,sans-Serif" font-size="10.00"> </text>
<text text-anchor="start" x="186.5" y="-7" font-family="Helvetica,sans-Serif" font-size="10.00"> </text>
<polygon fill="#666666" stroke="#666666" points="123.5,-32 123.5,-32 253.5,-32 253.5,-32 123.5,-32"/>
<polygon fill="#666666" stroke="#666666" points="123.5,-17 123.5,-17 253.5,-17 253.5,-17 123.5,-17"/>
<polygon fill="none" stroke="#666666" points="123.5,0 123.5,-60 253.5,-60 253.5,0 123.5,0"/>
</a>
</g>
</g>
<!-- Node1&#45;&gt;Node4 -->
<g id="edge3_Node000001_Node000004" class="edge">
<title>Node1&#45;&gt;Node4</title>
<g id="a_edge3_Node000001_Node000004"><a xlink:title=" ">
<path fill="none" stroke="#63b8ff" d="M278.39,-90.09C263.43,-80.26 247.33,-69.67 232.93,-60.21"/>
<polygon fill="none" stroke="#63b8ff" points="276.76,-93.2 287.04,-95.77 280.6,-87.36 276.76,-93.2"/>
</a>
</g>
</g>
<!-- Node5 -->
<g id="Node000005" class="node">
<title>Node5</title>
<g id="a_Node000005"><a xlink:href="classunilink_1_1diagnostics_1_1ConnectionException.html" target="_top" xlink:title="Exception thrown during connection operations.">
<polygon fill="white" stroke="transparent" points="391,-60 272,-60 272,0 391,0 391,-60"/>
<text text-anchor="start" x="277.5" y="-48" font-family="Helvetica,sans-Serif" font-size="10.00">unilink::diagnostics</text>
<text text-anchor="start" x="277.5" y="-37" font-family="Helvetica,sans-Serif" font-size="10.00">::ConnectionException</text>
<text text-anchor="start" x="330" y="-22" font-family="Helvetica,sans-Serif" font-size="10.00"> </text>
<text text-anchor="start" x="330" y="-7" font-family="Helvetica,sans-Serif" font-size="10.00"> </text>
<polygon fill="#666666" stroke="#666666" points="272.5,-32 272.5,-32 391.5,-32 391.5,-32 272.5,-32"/>
<polygon fill="#666666" stroke="#666666" points="272.5,-17 272.5,-17 391.5,-17 391.5,-17 272.5,-17"/>
<polygon fill="none" stroke="#666666" points="272,0 272,-60 391,-60 391,0 272,0"/>
</a>
</g>
</g>
<!-- Node1&#45;&gt;Node5 -->
<g id="edge4_Node000001_Node000005" class="edge">
<title>Node1&#45;&gt;Node5</title>
<g id="a_edge4_Node000001_Node000005"><a xlink:title=" ">
<path fill="none" stroke="#63b8ff" d="M331.5,-85.63C331.5,-77.11 331.5,-68.25 331.5,-60.21"/>
<polygon fill="none" stroke="#63b8ff" points="328,-85.77 331.5,-95.77 335,-85.77 328,-85.77"/>
</a>
</g>
</g>
<!-- Node6 -->
<g id="Node000006" class="node">
<title>Node6</title>
<g id="a_Node000006"><a xlink:href="classunilink_1_1diagnostics_1_1MemoryException.html" target="_top" xlink:title="Exception thrown during memory operations.">
<polygon fill="white" stroke="transparent" points="514,-60 409,-60 409,0 514,0 514,-60"/>
<text text-anchor="start" x="414.5" y="-48" font-family="Helvetica,sans-Serif" font-size="10.00">unilink::diagnostics</text>
<text text-anchor="start" x="414.5" y="-37" font-family="Helvetica,sans-Serif" font-size="10.00">::MemoryException</text>
<text text-anchor="start" x="460" y="-22" font-family="Helvetica,sans-Serif" font-size="10.00"> </text>
<text text-anchor="start" x="460" y="-7" font-family="Helvetica,sans-Serif" font-size="10.00"> </text>
<polygon fill="#666666" stroke="#666666" points="409.5,-32 409.5,-32 514.5,-32 514.5,-32 409.5,-32"/>
<polygon fill="#666666" stroke="#666666" points="409.5,-17 409.5,-17 514.5,-17 514.5,-17 409.5,-17"/>
<polygon fill="none" stroke="#666666" points="409,0 409,-60 514,-60 514,0 409,0"/>
</a>
</g>
</g>
<!-- Node1&#45;&gt;Node6 -->
<g id="edge5_Node000001_Node000006" class="edge">
<title>Node1&#45;&gt;Node6</title>
<g id="a_edge5_Node000001_Node000006"><a xlink:title=" ">
<path fill="none" stroke="#63b8ff" d="M380.17,-89.81C393.65,-80.06 408.14,-69.58 421.1,-60.21"/>
<polygon fill="none" stroke="#63b8ff" points="377.97,-87.08 371.92,-95.77 382.07,-92.75 377.97,-87.08"/>
</a>
</g>
</g>
<!-- Node7 -->
<g id="Node000007" class="node">
<title>Node7</title>
<g id="a_Node000007"><a xlink:href="classunilink_1_1diagnostics_1_1ValidationException.html" target="_top" xlink:title="Exception thrown during input validation.">
<polygon fill="white" stroke="transparent" points="645,-60 532,-60 532,0 645,0 645,-60"/>
<text text-anchor="start" x="537.5" y="-48" font-family="Helvetica,sans-Serif" font-size="10.00">unilink::diagnostics</text>
<text text-anchor="start" x="537.5" y="-37" font-family="Helvetica,sans-Serif" font-size="10.00">::ValidationException</text>
<text text-anchor="start" x="587" y="-22" font-family="Helvetica,sans-Serif" font-size="10.00"> </text>
<text text-anchor="start" x="587" y="-7" font-family="Helvetica,sans-Serif" font-size="10.00"> </text>
<polygon fill="#666666" stroke="#666666" points="532.5,-32 532.5,-32 645.5,-32 645.5,-32 532.5,-32"/>
<polygon fill="#666666" stroke="#666666" points="532.5,-17 532.5,-17 645.5,-17 645.5,-17 532.5,-17"/>
<polygon fill="none" stroke="#666666" points="532,0 532,-60 645,-60 645,0 532,0"/>
</a>
</g>
</g>
<!-- Node1&#45;&gt;Node7 -->
<g id="edge6_Node000001_Node000007" class="edge">
<title>Node1&#45;&gt;Node7</title>
<g id="a_edge6_Node000001_Node000007"><a xlink:title=" ">
<path fill="none" stroke="#63b8ff" d="M393.98,-105.48C431.79,-93.26 480.78,-76.72 523.5,-60 526.26,-58.92 529.08,-57.79 531.91,-56.62"/>
<polygon fill="none" stroke="#63b8ff" points="392.58,-102.25 384.13,-108.65 394.72,-108.92 392.58,-102.25"/>
</a>
</g>
</g>
<!-- Node2 -->
<g id="Node000002" class="node">
<title>Node2</title>
<g id="a_Node000002"><a xlink:title=" ">
<polygon fill="white" stroke="transparent" points="380.5,-241 282.5,-241 282.5,-192 380.5,-192 380.5,-241"/>
<text text-anchor="start" x="287.5" y="-228.5" font-family="Helvetica,sans-Serif" font-size="10.00">std::runtime_error</text>
<text text-anchor="start" x="329.5" y="-213.5" font-family="Helvetica,sans-Serif" font-size="10.00"> </text>
<text text-anchor="start" x="329.5" y="-198.5" font-family="Helvetica,sans-Serif" font-size="10.00"> </text>
<polygon fill="#bfbfbf" stroke="#bfbfbf" points="282.5,-223.5 282.5,-223.5 380.5,-223.5 380.5,-223.5 282.5,-223.5"/>
<polygon fill="#bfbfbf" stroke="#bfbfbf" points="282.5,-208.5 282.5,-208.5 380.5,-208.5 380.5,-208.5 282.5,-208.5"/>
<polygon fill="none" stroke="#bfbfbf" points="282.5,-192 282.5,-241 380.5,-241 380.5,-192 282.5,-192"/>
</a>
</g>
</g>
<!-- Node2&#45;&gt;Node1 -->
<g id="edge1_Node000001_Node000002" class="edge">
<title>Node2&#45;&gt;Node1</title>
<g id="a_edge1_Node000001_Node000002"><a xlink:title=" ">
<path fill="none" stroke="#63b8ff" d="M331.5,-181.55C331.5,-173.18 331.5,-164.28 331.5,-156.16"/>
<polygon fill="none" stroke="#63b8ff" points="328,-181.78 331.5,-191.78 335,-181.78 328,-181.78"/>
</a>
</g>
</g>
</g>
</svg>
