<?xml version="1.0" encoding="UTF-8" standalone="no"?>
<!DOCTYPE svg PUBLIC "-//W3C//DTD SVG 1.1//EN"
 "http://www.w3.org/Graphics/SVG/1.1/DTD/svg11.dtd">
<!-- Generated by graphviz version 2.43.0 (0)
 -->
<!-- Title: unilink/transport Pages: 1 -->
<!--zoomable 94 -->

<svg id="main" version="1.1" xmlns="http://www.w3.org/2000/svg" xmlns:xlink="http://www.w3.org/1999/xlink" xml:space="preserve" onload="init(evt)">
<style type="text/css"><![CDATA[
.node, .edge {opacity: 0.7;}
.node.selected, .edge.selected {opacity: 1;}
.edge:hover path { stroke: red; }
.edge:hover polygon { stroke: red; fill: red; }
]]></style>

<defs>
  <circle id="rim" cx="0" cy="0" r="7"/>
  <circle id="rim2" cx="0" cy="0" r="3.5"/>
  <g id="zoomPlus">
    <use xlink:href="#rim" fill="#404040"><set attributeName="fill" to="#808080" begin="zoomplus.mouseover" end="zoomplus.mouseout"/></use>
    <path d="M-4,0h8M0,-4v8" fill="none" stroke="white" stroke-width="1.5" pointer-events="none"/>
  </g>
  <g id="zoomMin">
    <use xlink:href="#rim" fill="#404040"><set attributeName="fill" to="#808080" begin="zoomminus.mouseover" end="zoomminus.mouseout"/></use>
    <path d="M-4,0h8" fill="none" stroke="white" stroke-width="1.5" pointer-events="none"/>
  </g>
  <g id="arrowUp" transform="translate(30 24)">
    <use xlink:href="#rim"/>
    <path pointer-events="none" fill="none" stroke="white" stroke-width="1.5" d="M0,-3.0v7 M-2.5,-0.5L0,-3.0L2.5,-0.5"/>
  </g>
  <g id="arrowRight" transform="rotate(90) translate(36 -43)">
    <use xlink:href="#rim"/>
    <path pointer-events="none" fill="none" stroke="white" stroke-width="1.5" d="M0,-3.0v7 M-2.5,-0.5L0,-3.0L2.5,-0.5"/>
  </g>
  <g id="arrowDown" transform="rotate(180) translate(-30 -48)">
    <use xlink:href="#rim"/>
    <path pointer-events="none" fill="none" stroke="white" stroke-width="1.5" d="M0,-3.0v7 M-2.5,-0.5L0,-3.0L2.5,-0.5"/>
  </g>
  <g id="arrowLeft" transform="rotate(270) translate(-36 17)">
    <use xlink:href="#rim"/>
    <path pointer-events="none" fill="none" stroke="white" stroke-width="1.5" d="M0,-3.0v7 M-2.5,-0.5L0,-3.0L2.5,-0.5"/>
  </g>
  <g id="resetDef">
    <use xlink:href="#rim2" fill="#404040"><set attributeName="fill" to="#808080" begin="reset.mouseover" end="reset.mouseout"/></use>
  </g>
</defs>
<script type="application/ecmascript">
var viewWidth = 512;
var viewHeight = 94;
var sectionId = 'dynsection-0';
</script>
<script type="application/ecmascript" xlink:href="svg.min.js"/>
<svg id="graph" class="graph">
<g id="viewport">
<title>unilink/transport</title>
<g id="clust1" class="cluster">
<title>clusterdir_01bf74387278440e5975a3401ebbafc5</title>
<g id="a_clust1"><a xlink:href="dir_01bf74387278440e5975a3401ebbafc5.html" target="_top" xlink:title="unilink">
<polygon fill="#edf3f7" stroke="#404040" stroke-dasharray="5,2" points="8,-8 8,-78 496,-78 496,-8 8,-8"/>
<text text-anchor="middle" x="252" y="-66" font-family="Helvetica,sans-Serif" font-size="10.00">unilink</text>
</a>
</g>
</g>
<g id="clust2" class="cluster">
<title>clusterdir_6805bbe5203d162cccfebf519c6277b3</title>
<g id="a_clust2"><a xlink:href="dir_6805bbe5203d162cccfebf519c6277b3.html" target="_top">
<polygon fill="#edf3f7" stroke="#404040" stroke-width="2" points="16,-16 16,-51 488,-51 488,-16 16,-16"/>
</a>
</g>
</g>
<!-- dir_6805bbe5203d162cccfebf519c6277b3 -->
<g id="node1" class="node">
<title>dir_6805bbe5203d162cccfebf519c6277b3</title>
<text text-anchor="middle" x="449" y="-31" font-family="Helvetica,sans-Serif" font-size="10.00">transport</text>
</g>
<!-- dir_3680fe53f95a060c8b5288c2d75cc259 -->
<g id="node2" class="node">
<title>dir_3680fe53f95a060c8b5288c2d75cc259</title>
<g id="a_node2"><a xlink:href="dir_3680fe53f95a060c8b5288c2d75cc259.html" target="_top" xlink:title="base">
<polygon fill="#a2c5d6" stroke="#404040" points="400,-43 360,-43 360,-24 400,-24 400,-43"/>
<text text-anchor="middle" x="380" y="-31" font-family="Helvetica,sans-Serif" font-size="10.00">base</text>
</a>
</g>
</g>
<!-- dir_7e27faa736fcb952df78a4af4270f7f7 -->
<g id="node3" class="node">
<title>dir_7e27faa736fcb952df78a4af4270f7f7</title>
<g id="a_node3"><a xlink:href="dir_7e27faa736fcb952df78a4af4270f7f7.html" target="_top" xlink:title="serial">
<polygon fill="#a2c5d6" stroke="#404040" points="342,-43 298,-43 298,-24 342,-24 342,-43"/>
<text text-anchor="middle" x="320" y="-31" font-family="Helvetica,sans-Serif" font-size="10.00">serial</text>
</a>
</g>
</g>
<!-- dir_dc3c3f3456ea5bb4d799cb32b8415404 -->
<g id="node4" class="node">
<title>dir_dc3c3f3456ea5bb4d799cb32b8415404</title>
<g id="a_node4"><a xlink:href="dir_dc3c3f3456ea5bb4d799cb32b8415404.html" target="_top" xlink:title="tcp_client">
<polygon fill="#a2c5d6" stroke="#404040" points="280,-43 216,-43 216,-24 280,-24 280,-43"/>
<text text-anchor="middle" x="248" y="-31" font-family="Helvetica,sans-Serif" font-size="10.00">tcp_client</text>
</a>
</g>
</g>
<!-- dir_76cdf79349c4dfba6dfb8c83b46a558c -->
<g id="node5" class="node">
<title>dir_76cdf79349c4dfba6dfb8c83b46a558c</title>
<g id="a_node5"><a xlink:href="dir_76cdf79349c4dfba6dfb8c83b46a558c.html" target="_top" xlink:title="tcp_server">
<polygon fill="#a2c5d6" stroke="#404040" points="198,-43 130,-43 130,-24 198,-24 198,-43"/>
<text text-anchor="middle" x="164" y="-31" font-family="Helvetica,sans-Serif" font-size="10.00">tcp_server</text>
</a>
</g>
</g>
<!-- dir_676d4dda5f39dd7641cb335c7b655474 -->
<g id="node6" class="node">
<title>dir_676d4dda5f39dd7641cb335c7b655474</title>
<g id="a_node6"><a xlink:href="dir_676d4dda5f39dd7641cb335c7b655474.html" target="_top" xlink:title="udp">
<polygon fill="#a2c5d6" stroke="#404040" points="111.5,-43 76.5,-43 76.5,-24 111.5,-24 111.5,-43"/>
<text text-anchor="middle" x="94" y="-31" font-family="Helvetica,sans-Serif" font-size="10.00">udp</text>
</a>
</g>
</g>
<!-- dir_72d0d79c8f89e6dd9fe36b02081d221e -->
<g id="node7" class="node">
<title>dir_72d0d79c8f89e6dd9fe36b02081d221e</title>
<g id="a_node7"><a xlink:href="dir_72d0d79c8f89e6dd9fe36b02081d221e.html" target="_top" xlink:title="uds">
<polygon fill="#a2c5d6" stroke="#404040" points="58,-43 24,-43 24,-24 58,-24 58,-43"/>
<text text-anchor="middle" x="41" y="-31" font-family="Helvetica,sans-Serif" font-size="10.00">uds</text>
</a>
</g>
</g>
</g>
</svg>

<g id="navigator" transform="translate(0 0)" fill="#404254">
  <rect fill="#f2f5e9" fill-opacity="0.5" stroke="#606060" stroke-width=".5" x="0" y="0" width="60" height="60"/>
  <use id="zoomplus" xlink:href="#zoomPlus" x="17" y="9" onmousedown="handleZoom(evt,'in')"/>
  <use id="zoomminus" xlink:href="#zoomMin" x="42" y="9" onmousedown="handleZoom(evt,'out')"/>
  <use id="reset" xlink:href="#resetDef" x="30" y="36" onmousedown="handleReset()"/>
   <use id="arrowup" xlink:href="#arrowUp" x="0" y="0" onmousedown="handlePan(0,-1)"/>
  <use id="arrowright" xlink:href="#arrowRight" x="0" y="0" onmousedown="handlePan(1,0)"/>
  <use id="arrowdown" xlink:href="#arrowDown" x="0" y="0" onmousedown="handlePan(0,1)"/>
  <use id="arrowleft" xlink:href="#arrowLeft" x="0" y="0" onmousedown="handlePan(-1,0)"/>
</g>
<svg viewBox="0 0 15 15" width="100%" height="30px" preserveAspectRatio="xMaxYMin meet">
 <g id="arrow_out" transform="scale(0.3 0.3)">
  <a xlink:href="dir_6805bbe5203d162cccfebf519c6277b3_dep_org.svg" target="_base">
   <rect id="button" ry="5" rx="5" y="6" x="6" height="38" width="38"
        fill="#f2f5e9" fill-opacity="0.5" stroke="#606060" stroke-width="1.0"/>
   <path id="arrow"
     d="M 11.500037,31.436501 C 11.940474,20.09759 22.043105,11.32322 32.158766,21.979434 L 37.068811,17.246167 C 37.068811,17.246167 37.088388,32 37.088388,32 L 22.160133,31.978069 C 22.160133,31.978069 26.997745,27.140456 26.997745,27.140456 C 18.528582,18.264221 13.291696,25.230495 11.500037,31.436501 z"
     style="fill:#404040;"/>
  </a>
 </g>
</svg>

<style type='text/css'>
<![CDATA[
[data-mouse-over-selected='false'] { opacity: 0.7; }
[data-mouse-over-selected='true']  { opacity: 1.0; }
]]>
</style>
<script type="application/ecmascript"><![CDATA[
document.addEventListener('DOMContentLoaded', (event) => {
  highlightEdges();
  highlightAdjacentNodes();
});
]]></script>
</svg>
