<?xml version="1.0" encoding="UTF-8" standalone="no"?>
<!DOCTYPE svg PUBLIC "-//W3C//DTD SVG 1.1//EN"
 "http://www.w3.org/Graphics/SVG/1.1/DTD/svg11.dtd">
<!-- Generated by graphviz version 2.43.0 (0)
 -->
<!-- Title: Graphical Class Hierarchy Pages: 1 -->
<svg width="320pt" height="326pt"
 viewBox="0.00 0.00 320.00 326.00" xmlns="http://www.w3.org/2000/svg" xmlns:xlink="http://www.w3.org/1999/xlink">
<g id="graph0" class="graph" transform="scale(1 1) rotate(0) translate(4 322)">
<title>Graphical Class Hierarchy</title>
<!-- Node0 -->
<g id="Node000000" class="node">
<title>Node0</title>
<g id="a_Node000000"><a xlink:href="classunilink_1_1builder_1_1BuilderInterface.html" target="_top" xlink:title="Generic Builder interface for fluent API pattern.">
<polygon fill="white" stroke="#666666" points="130,-179.5 0,-179.5 0,-138.5 130,-138.5 130,-179.5"/>
<text text-anchor="start" x="8" y="-167.5" font-family="Helvetica,sans-Serif" font-size="10.00">unilink::builder::Builder</text>
<text text-anchor="start" x="8" y="-156.5" font-family="Helvetica,sans-Serif" font-size="10.00">Interface&lt; T, Derived,</text>
<text text-anchor="middle" x="65" y="-145.5" font-family="Helvetica,sans-Serif" font-size="10.00"> State &gt;</text>
</a>
</g>
</g>
<!-- Node1 -->
<g id="Node000001" class="node">
<title>Node1</title>
<g id="a_Node000001"><a xlink:href="classunilink_1_1builder_1_1SerialBuilder.html" target="_top" xlink:title="Modernized Builder for Serial.">
<polygon fill="white" stroke="#666666" points="300.5,-318 177.5,-318 177.5,-288 300.5,-288 300.5,-318"/>
<text text-anchor="start" x="185.5" y="-306" font-family="Helvetica,sans-Serif" font-size="10.00">unilink::builder::Serial</text>
<text text-anchor="middle" x="239" y="-295" font-family="Helvetica,sans-Serif" font-size="10.00">Builder&lt; State &gt;</text>
</a>
</g>
</g>
<!-- Node0&#45;&gt;Node1 -->
<g id="edge10_Node000000_Node000001" class="edge">
<title>Node0&#45;&gt;Node1</title>
<g id="a_edge10_Node000000_Node000001"><a xlink:title=" ">
<path fill="none" stroke="#63b8ff" d="M83.75,-188.54C101.44,-215.64 130.98,-255.1 166,-279 171.01,-282.42 176.54,-285.38 182.24,-287.94"/>
<polygon fill="#63b8ff" stroke="#63b8ff" points="86.54,-186.41 78.21,-179.86 80.64,-190.17 86.54,-186.41"/>
</a>
</g>
</g>
<!-- Node2 -->
<g id="Node000002" class="node">
<title>Node2</title>
<g id="a_Node000002"><a xlink:href="classunilink_1_1builder_1_1TcpClientBuilder.html" target="_top" xlink:title="Modernized Builder for TcpClient.">
<polygon fill="white" stroke="#666666" points="309,-270 169,-270 169,-240 309,-240 309,-270"/>
<text text-anchor="start" x="177" y="-258" font-family="Helvetica,sans-Serif" font-size="10.00">unilink::builder::TcpClient</text>
<text text-anchor="middle" x="239" y="-247" font-family="Helvetica,sans-Serif" font-size="10.00">Builder&lt; State &gt;</text>
</a>
</g>
</g>
<!-- Node0&#45;&gt;Node2 -->
<g id="edge11_Node000000_Node000002" class="edge">
<title>Node0&#45;&gt;Node2</title>
<g id="a_edge11_Node000000_Node000002"><a xlink:title=" ">
<path fill="none" stroke="#63b8ff" d="M98.08,-185.93C116.94,-200.76 141.78,-218.61 166,-231 172.45,-234.3 179.45,-237.29 186.47,-239.95"/>
<polygon fill="#63b8ff" stroke="#63b8ff" points="100.12,-183.08 90.12,-179.58 95.75,-188.55 100.12,-183.08"/>
</a>
</g>
</g>
<!-- Node3 -->
<g id="Node000003" class="node">
<title>Node3</title>
<g id="a_Node000003"><a xlink:href="classunilink_1_1builder_1_1TcpServerBuilder.html" target="_top" xlink:title="Modernized Builder for TcpServer with C++20 Concepts.">
<polygon fill="white" stroke="#666666" points="310.5,-222 167.5,-222 167.5,-192 310.5,-192 310.5,-222"/>
<text text-anchor="start" x="175.5" y="-210" font-family="Helvetica,sans-Serif" font-size="10.00">unilink::builder::TcpServer</text>
<text text-anchor="middle" x="239" y="-199" font-family="Helvetica,sans-Serif" font-size="10.00">Builder&lt; State &gt;</text>
</a>
</g>
</g>
<!-- Node0&#45;&gt;Node3 -->
<g id="edge12_Node000000_Node000003" class="edge">
<title>Node0&#45;&gt;Node3</title>
<g id="a_edge12_Node000000_Node000003"><a xlink:title=" ">
<path fill="none" stroke="#63b8ff" d="M139.73,-179.58C154.61,-183.73 169.99,-188.02 184.04,-191.94"/>
<polygon fill="#63b8ff" stroke="#63b8ff" points="140.62,-176.19 130.05,-176.87 138.74,-182.93 140.62,-176.19"/>
</a>
</g>
</g>
<!-- Node4 -->
<g id="Node000004" class="node">
<title>Node4</title>
<g id="a_Node000004"><a xlink:href="classunilink_1_1builder_1_1UdpClientBuilder.html" target="_top" xlink:title="Modernized Builder for UdpClient.">
<polygon fill="white" stroke="#666666" points="310.5,-174 167.5,-174 167.5,-144 310.5,-144 310.5,-174"/>
<text text-anchor="start" x="175.5" y="-162" font-family="Helvetica,sans-Serif" font-size="10.00">unilink::builder::UdpClient</text>
<text text-anchor="middle" x="239" y="-151" font-family="Helvetica,sans-Serif" font-size="10.00">Builder&lt; State &gt;</text>
</a>
</g>
</g>
<!-- Node0&#45;&gt;Node4 -->
<g id="edge13_Node000000_Node000004" class="edge">
<title>Node0&#45;&gt;Node4</title>
<g id="a_edge13_Node000000_Node000004"><a xlink:title=" ">
<path fill="none" stroke="#63b8ff" d="M140.12,-159C149.12,-159 158.3,-159 167.25,-159"/>
<polygon fill="#63b8ff" stroke="#63b8ff" points="140.05,-155.5 130.05,-159 140.05,-162.5 140.05,-155.5"/>
</a>
</g>
</g>
<!-- Node5 -->
<g id="Node000005" class="node">
<title>Node5</title>
<g id="a_Node000005"><a xlink:href="classunilink_1_1builder_1_1UdpServerBuilder.html" target="_top" xlink:title="Modernized Builder for UdpServer.">
<polygon fill="white" stroke="#666666" points="312,-126 166,-126 166,-96 312,-96 312,-126"/>
<text text-anchor="start" x="174" y="-114" font-family="Helvetica,sans-Serif" font-size="10.00">unilink::builder::UdpServer</text>
<text text-anchor="middle" x="239" y="-103" font-family="Helvetica,sans-Serif" font-size="10.00">Builder&lt; State &gt;</text>
</a>
</g>
</g>
<!-- Node0&#45;&gt;Node5 -->
<g id="edge14_Node000000_Node000005" class="edge">
<title>Node0&#45;&gt;Node5</title>
<g id="a_edge14_Node000000_Node000005"><a xlink:title=" ">
<path fill="none" stroke="#63b8ff" d="M139.73,-138.42C154.61,-134.27 169.99,-129.98 184.04,-126.06"/>
<polygon fill="#63b8ff" stroke="#63b8ff" points="138.74,-135.07 130.05,-141.13 140.62,-141.81 138.74,-135.07"/>
</a>
</g>
</g>
<!-- Node6 -->
<g id="Node000006" class="node">
<title>Node6</title>
<g id="a_Node000006"><a xlink:href="classunilink_1_1builder_1_1UdsClientBuilder.html" target="_top" xlink:title="Modernized Builder for UdsClient.">
<polygon fill="white" stroke="#666666" points="310.5,-78 167.5,-78 167.5,-48 310.5,-48 310.5,-78"/>
<text text-anchor="start" x="175.5" y="-66" font-family="Helvetica,sans-Serif" font-size="10.00">unilink::builder::UdsClient</text>
<text text-anchor="middle" x="239" y="-55" font-family="Helvetica,sans-Serif" font-size="10.00">Builder&lt; State &gt;</text>
</a>
</g>
</g>
<!-- Node0&#45;&gt;Node6 -->
<g id="edge15_Node000000_Node000006" class="edge">
<title>Node0&#45;&gt;Node6</title>
<g id="a_edge15_Node000000_Node000006"><a xlink:title=" ">
<path fill="none" stroke="#63b8ff" d="M98.08,-132.07C116.94,-117.24 141.78,-99.39 166,-87 172.45,-83.7 179.45,-80.71 186.47,-78.05"/>
<polygon fill="#63b8ff" stroke="#63b8ff" points="95.75,-129.45 90.12,-138.42 100.12,-134.92 95.75,-129.45"/>
</a>
</g>
</g>
<!-- Node7 -->
<g id="Node000007" class="node">
<title>Node7</title>
<g id="a_Node000007"><a xlink:href="classunilink_1_1builder_1_1UdsServerBuilder.html" target="_top" xlink:title="Modernized Builder for UdsServer.">
<polygon fill="white" stroke="#666666" points="312,-30 166,-30 166,0 312,0 312,-30"/>
<text text-anchor="start" x="174" y="-18" font-family="Helvetica,sans-Serif" font-size="10.00">unilink::builder::UdsServer</text>
<text text-anchor="middle" x="239" y="-7" font-family="Helvetica,sans-Serif" font-size="10.00">Builder&lt; State &gt;</text>
</a>
</g>
</g>
<!-- Node0&#45;&gt;Node7 -->
<g id="edge16_Node000000_Node000007" class="edge">
<title>Node0&#45;&gt;Node7</title>
<g id="a_edge16_Node000000_Node000007"><a xlink:title=" ">
<path fill="none" stroke="#63b8ff" d="M83.75,-129.46C101.44,-102.36 130.98,-62.9 166,-39 171.01,-35.58 176.54,-32.62 182.24,-30.06"/>
<polygon fill="#63b8ff" stroke="#63b8ff" points="80.64,-127.83 78.21,-138.14 86.54,-131.59 80.64,-127.83"/>
</a>
</g>
</g>
</g>
</svg>
