<?xml version="1.0" encoding="UTF-8" standalone="no"?>
<!DOCTYPE svg PUBLIC "-//W3C//DTD SVG 1.1//EN"
 "http://www.w3.org/Graphics/SVG/1.1/DTD/svg11.dtd">
<!-- Generated by graphviz version 2.43.0 (0)
 -->
<!-- Title: Graphical Class Hierarchy Pages: 1 -->
<svg width="334pt" height="138pt"
 viewBox="0.00 0.00 334.00 138.00" xmlns="http://www.w3.org/2000/svg" xmlns:xlink="http://www.w3.org/1999/xlink">
<g id="graph0" class="graph" transform="scale(1 1) rotate(0) translate(4 134)">
<title>Graphical Class Hierarchy</title>
<!-- Node0 -->
<g id="Node000000" class="node">
<title>Node0</title>
<g id="a_Node000000"><a xlink:href="classunilink_1_1wrapper_1_1ChannelInterface.html" target="_top" xlink:title="Common interface for 1:1 point&#45;to&#45;point communication (e.g., TcpClient, Serial, Udp)">
<polygon fill="white" stroke="#666666" points="141,-79.5 0,-79.5 0,-49.5 141,-49.5 141,-79.5"/>
<text text-anchor="start" x="8" y="-67.5" font-family="Helvetica,sans-Serif" font-size="10.00">unilink::wrapper::Channel</text>
<text text-anchor="middle" x="70.5" y="-56.5" font-family="Helvetica,sans-Serif" font-size="10.00">Interface</text>
</a>
</g>
</g>
<!-- Node1 -->
<g id="Node000001" class="node">
<title>Node1</title>
<g id="a_Node000001"><a xlink:href="classunilink_1_1wrapper_1_1Serial.html" target="_top" xlink:title="Modernized Serial Wrapper.">
<polygon fill="white" stroke="#666666" points="316,-130 187,-130 187,-111 316,-111 316,-130"/>
<text text-anchor="middle" x="251.5" y="-118" font-family="Helvetica,sans-Serif" font-size="10.00">unilink::wrapper::Serial</text>
</a>
</g>
</g>
<!-- Node0&#45;&gt;Node1 -->
<g id="edge39_Node000000_Node000001" class="edge">
<title>Node0&#45;&gt;Node1</title>
<g id="a_edge39_Node000000_Node000001"><a xlink:title=" ">
<path fill="none" stroke="#63b8ff" d="M119.86,-83.13C137.68,-89.67 158.13,-96.81 177,-102.5 187.06,-105.54 198.01,-108.43 208.32,-110.98"/>
<polygon fill="#63b8ff" stroke="#63b8ff" points="120.84,-79.76 110.25,-79.57 118.41,-86.33 120.84,-79.76"/>
</a>
</g>
</g>
<!-- Node2 -->
<g id="Node000002" class="node">
<title>Node2</title>
<g id="a_Node000002"><a xlink:href="classunilink_1_1wrapper_1_1TcpClient.html" target="_top" xlink:title="Modernized TCP Client Wrapper.">
<polygon fill="white" stroke="#666666" points="324.5,-93 178.5,-93 178.5,-74 324.5,-74 324.5,-93"/>
<text text-anchor="middle" x="251.5" y="-81" font-family="Helvetica,sans-Serif" font-size="10.00">unilink::wrapper::TcpClient</text>
</a>
</g>
</g>
<!-- Node0&#45;&gt;Node2 -->
<g id="edge40_Node000000_Node000002" class="edge">
<title>Node0&#45;&gt;Node2</title>
<g id="a_edge40_Node000000_Node000002"><a xlink:title=" ">
<path fill="none" stroke="#63b8ff" d="M151.3,-72.97C160.3,-73.93 169.42,-74.89 178.31,-75.84"/>
<polygon fill="#63b8ff" stroke="#63b8ff" points="151.53,-69.48 141.22,-71.9 150.79,-76.44 151.53,-69.48"/>
</a>
</g>
</g>
<!-- Node3 -->
<g id="Node000003" class="node">
<title>Node3</title>
<g id="a_Node000003"><a xlink:href="classunilink_1_1wrapper_1_1UdpClient.html" target="_top" xlink:title="Modernized UDP Wrapper.">
<polygon fill="white" stroke="#666666" points="326,-56 177,-56 177,-37 326,-37 326,-56"/>
<text text-anchor="middle" x="251.5" y="-44" font-family="Helvetica,sans-Serif" font-size="10.00">unilink::wrapper::UdpClient</text>
</a>
</g>
</g>
<!-- Node0&#45;&gt;Node3 -->
<g id="edge41_Node000000_Node000003" class="edge">
<title>Node0&#45;&gt;Node3</title>
<g id="a_edge41_Node000000_Node000003"><a xlink:title=" ">
<path fill="none" stroke="#63b8ff" d="M151.45,-56.46C159.9,-55.61 168.46,-54.75 176.83,-53.91"/>
<polygon fill="#63b8ff" stroke="#63b8ff" points="150.82,-53.01 141.22,-57.49 151.52,-59.97 150.82,-53.01"/>
</a>
</g>
</g>
<!-- Node4 -->
<g id="Node000004" class="node">
<title>Node4</title>
<g id="a_Node000004"><a xlink:href="classunilink_1_1wrapper_1_1UdsClient.html" target="_top" xlink:title="Modernized UDS Client Wrapper.">
<polygon fill="white" stroke="#666666" points="326,-19 177,-19 177,0 326,0 326,-19"/>
<text text-anchor="middle" x="251.5" y="-7" font-family="Helvetica,sans-Serif" font-size="10.00">unilink::wrapper::UdsClient</text>
</a>
</g>
</g>
<!-- Node0&#45;&gt;Node4 -->
<g id="edge42_Node000000_Node000004" class="edge">
<title>Node0&#45;&gt;Node4</title>
<g id="a_edge42_Node000000_Node000004"><a xlink:title=" ">
<path fill="none" stroke="#63b8ff" d="M122.91,-46.08C140.03,-40.19 159.25,-33.81 177,-28.5 188.11,-25.17 200.27,-21.89 211.44,-19.01"/>
<polygon fill="#63b8ff" stroke="#63b8ff" points="121.41,-42.9 113.11,-49.49 123.7,-49.51 121.41,-42.9"/>
</a>
</g>
</g>
</g>
</svg>
