<?xml version="1.0" encoding="UTF-8" standalone="no"?>
<!DOCTYPE svg PUBLIC "-//W3C//DTD SVG 1.1//EN"
 "http://www.w3.org/Graphics/SVG/1.1/DTD/svg11.dtd">
<!-- Generated by graphviz version 2.43.0 (0)
 -->
<!-- Title: Graphical Class Hierarchy Pages: 1 -->
<svg width="431pt" height="230pt"
 viewBox="0.00 0.00 431.00 230.00" xmlns="http://www.w3.org/2000/svg" xmlns:xlink="http://www.w3.org/1999/xlink">
<g id="graph0" class="graph" transform="scale(1 1) rotate(0) translate(4 226)">
<title>Graphical Class Hierarchy</title>
<!-- Node0 -->
<g id="Node000000" class="node">
<title>Node0</title>
<g id="a_Node000000"><a xlink:title=" ">
<polygon fill="#e0e0e0" stroke="#999999" points="104,-120.5 0,-120.5 0,-101.5 104,-101.5 104,-120.5"/>
<text text-anchor="middle" x="52" y="-108.5" font-family="Helvetica,sans-Serif" font-size="10.00">std::runtime_error</text>
</a>
</g>
</g>
<!-- Node1 -->
<g id="Node000001" class="node">
<title>Node1</title>
<g id="a_Node000001"><a xlink:href="classunilink_1_1diagnostics_1_1UnilinkException.html" target="_top" xlink:title="Base exception class for all unilink exceptions.">
<polygon fill="white" stroke="#666666" points="251,-126 140,-126 140,-96 251,-96 251,-126"/>
<text text-anchor="start" x="148" y="-114" font-family="Helvetica,sans-Serif" font-size="10.00">unilink::diagnostics</text>
<text text-anchor="middle" x="195.5" y="-103" font-family="Helvetica,sans-Serif" font-size="10.00">::UnilinkException</text>
</a>
</g>
</g>
<!-- Node0&#45;&gt;Node1 -->
<g id="edge3_Node000000_Node000001" class="edge">
<title>Node0&#45;&gt;Node1</title>
<g id="a_edge3_Node000000_Node000001"><a xlink:title=" ">
<path fill="none" stroke="#63b8ff" d="M114.26,-111C122.71,-111 131.34,-111 139.67,-111"/>
<polygon fill="#63b8ff" stroke="#63b8ff" points="114.08,-107.5 104.08,-111 114.08,-114.5 114.08,-107.5"/>
</a>
</g>
</g>
<!-- Node2 -->
<g id="Node000002" class="node">
<title>Node2</title>
<g id="a_Node000002"><a xlink:href="classunilink_1_1diagnostics_1_1BuilderException.html" target="_top" xlink:title="Exception thrown during builder operations.">
<polygon fill="white" stroke="#666666" points="410.5,-222 299.5,-222 299.5,-192 410.5,-192 410.5,-222"/>
<text text-anchor="start" x="307.5" y="-210" font-family="Helvetica,sans-Serif" font-size="10.00">unilink::diagnostics</text>
<text text-anchor="middle" x="355" y="-199" font-family="Helvetica,sans-Serif" font-size="10.00">::BuilderException</text>
</a>
</g>
</g>
<!-- Node1&#45;&gt;Node2 -->
<g id="edge4_Node000001_Node000002" class="edge">
<title>Node1&#45;&gt;Node2</title>
<g id="a_edge4_Node000001_Node000002"><a xlink:title=" ">
<path fill="none" stroke="#63b8ff" d="M219.46,-132.79C236.89,-148.43 262.05,-169.11 287,-183 292.94,-186.31 299.42,-189.3 305.93,-191.96"/>
<polygon fill="#63b8ff" stroke="#63b8ff" points="221.76,-130.16 212.02,-126.01 217.05,-135.33 221.76,-130.16"/>
</a>
</g>
</g>
<!-- Node3 -->
<g id="Node000003" class="node">
<title>Node3</title>
<g id="a_Node000003"><a xlink:href="classunilink_1_1diagnostics_1_1ConfigurationException.html" target="_top" xlink:title="Exception thrown during configuration operations.">
<polygon fill="white" stroke="#666666" points="423,-174 287,-174 287,-144 423,-144 423,-174"/>
<text text-anchor="start" x="295" y="-162" font-family="Helvetica,sans-Serif" font-size="10.00">unilink::diagnostics</text>
<text text-anchor="middle" x="355" y="-151" font-family="Helvetica,sans-Serif" font-size="10.00">::ConfigurationException</text>
</a>
</g>
</g>
<!-- Node1&#45;&gt;Node3 -->
<g id="edge5_Node000001_Node000003" class="edge">
<title>Node1&#45;&gt;Node3</title>
<g id="a_edge5_Node000001_Node000003"><a xlink:title=" ">
<path fill="none" stroke="#63b8ff" d="M255.78,-129.07C271.93,-133.99 289.25,-139.27 304.77,-144"/>
<polygon fill="#63b8ff" stroke="#63b8ff" points="256.49,-125.62 245.9,-126.06 254.45,-132.32 256.49,-125.62"/>
</a>
</g>
</g>
<!-- Node4 -->
<g id="Node000004" class="node">
<title>Node4</title>
<g id="a_Node000004"><a xlink:href="classunilink_1_1diagnostics_1_1ConnectionException.html" target="_top" xlink:title="Exception thrown during connection operations.">
<polygon fill="white" stroke="#666666" points="417.5,-126 292.5,-126 292.5,-96 417.5,-96 417.5,-126"/>
<text text-anchor="start" x="300.5" y="-114" font-family="Helvetica,sans-Serif" font-size="10.00">unilink::diagnostics</text>
<text text-anchor="middle" x="355" y="-103" font-family="Helvetica,sans-Serif" font-size="10.00">::ConnectionException</text>
</a>
</g>
</g>
<!-- Node1&#45;&gt;Node4 -->
<g id="edge6_Node000001_Node000004" class="edge">
<title>Node1&#45;&gt;Node4</title>
<g id="a_edge6_Node000001_Node000004"><a xlink:title=" ">
<path fill="none" stroke="#63b8ff" d="M261.3,-111C271.6,-111 282.22,-111 292.44,-111"/>
<polygon fill="#63b8ff" stroke="#63b8ff" points="261.14,-107.5 251.14,-111 261.14,-114.5 261.14,-107.5"/>
</a>
</g>
</g>
<!-- Node5 -->
<g id="Node000005" class="node">
<title>Node5</title>
<g id="a_Node000005"><a xlink:href="classunilink_1_1diagnostics_1_1MemoryException.html" target="_top" xlink:title="Exception thrown during memory operations.">
<polygon fill="white" stroke="#666666" points="410.5,-78 299.5,-78 299.5,-48 410.5,-48 410.5,-78"/>
<text text-anchor="start" x="307.5" y="-66" font-family="Helvetica,sans-Serif" font-size="10.00">unilink::diagnostics</text>
<text text-anchor="middle" x="355" y="-55" font-family="Helvetica,sans-Serif" font-size="10.00">::MemoryException</text>
</a>
</g>
</g>
<!-- Node1&#45;&gt;Node5 -->
<g id="edge7_Node000001_Node000005" class="edge">
<title>Node1&#45;&gt;Node5</title>
<g id="a_edge7_Node000001_Node000005"><a xlink:title=" ">
<path fill="none" stroke="#63b8ff" d="M255.78,-92.93C271.93,-88.01 289.25,-82.73 304.77,-78"/>
<polygon fill="#63b8ff" stroke="#63b8ff" points="254.45,-89.68 245.9,-95.94 256.49,-96.38 254.45,-89.68"/>
</a>
</g>
</g>
<!-- Node6 -->
<g id="Node000006" class="node">
<title>Node6</title>
<g id="a_Node000006"><a xlink:href="classunilink_1_1diagnostics_1_1ValidationException.html" target="_top" xlink:title="Exception thrown during input validation.">
<polygon fill="white" stroke="#666666" points="414.5,-30 295.5,-30 295.5,0 414.5,0 414.5,-30"/>
<text text-anchor="start" x="303.5" y="-18" font-family="Helvetica,sans-Serif" font-size="10.00">unilink::diagnostics</text>
<text text-anchor="middle" x="355" y="-7" font-family="Helvetica,sans-Serif" font-size="10.00">::ValidationException</text>
</a>
</g>
</g>
<!-- Node1&#45;&gt;Node6 -->
<g id="edge8_Node000001_Node000006" class="edge">
<title>Node1&#45;&gt;Node6</title>
<g id="a_edge8_Node000001_Node000006"><a xlink:title=" ">
<path fill="none" stroke="#63b8ff" d="M219.46,-89.21C236.89,-73.57 262.05,-52.89 287,-39 292.94,-35.69 299.42,-32.7 305.93,-30.04"/>
<polygon fill="#63b8ff" stroke="#63b8ff" points="217.05,-86.67 212.02,-95.99 221.76,-91.84 217.05,-86.67"/>
</a>
</g>
</g>
</g>
</svg>
