<?xml version="1.0" encoding="UTF-8" standalone="no"?>
<!DOCTYPE svg PUBLIC "-//W3C//DTD SVG 1.1//EN"
 "http://www.w3.org/Graphics/SVG/1.1/DTD/svg11.dtd">
<!-- Generated by graphviz version 2.43.0 (0)
 -->
<!-- Title: Graphical Class Hierarchy Pages: 1 -->
<svg width="263pt" height="374pt"
 viewBox="0.00 0.00 263.00 374.00" xmlns="http://www.w3.org/2000/svg" xmlns:xlink="http://www.w3.org/1999/xlink">
<g id="graph0" class="graph" transform="scale(1 1) rotate(0) translate(4 370)">
<title>Graphical Class Hierarchy</title>
<!-- Node0 -->
<g id="Node000000" class="node">
<title>Node0</title>
<g id="a_Node000000"><a xlink:href="classunilink_1_1interface_1_1Channel.html" target="_top" xlink:title=" ">
<polygon fill="white" stroke="#666666" points="104,-258 5,-258 5,-228 104,-228 104,-258"/>
<text text-anchor="start" x="13" y="-246" font-family="Helvetica,sans-Serif" font-size="10.00">unilink::interface</text>
<text text-anchor="middle" x="54.5" y="-235" font-family="Helvetica,sans-Serif" font-size="10.00">::Channel</text>
</a>
</g>
</g>
<!-- Node1 -->
<g id="Node000001" class="node">
<title>Node1</title>
<g id="a_Node000001"><a xlink:href="classunilink_1_1transport_1_1Serial.html" target="_top" xlink:title="Serial Transport implementation.">
<polygon fill="white" stroke="#666666" points="250,-366 150,-366 150,-336 250,-336 250,-366"/>
<text text-anchor="start" x="158" y="-354" font-family="Helvetica,sans-Serif" font-size="10.00">unilink::transport</text>
<text text-anchor="middle" x="200" y="-343" font-family="Helvetica,sans-Serif" font-size="10.00">::Serial</text>
</a>
</g>
</g>
<!-- Node0&#45;&gt;Node1 -->
<g id="edge20_Node000000_Node000001" class="edge">
<title>Node0&#45;&gt;Node1</title>
<g id="a_edge20_Node000000_Node000001"><a xlink:title=" ">
<path fill="none" stroke="#63b8ff" d="M76.02,-266.14C93.12,-284.41 118.83,-309.63 145,-327 149.87,-330.23 155.25,-333.22 160.67,-335.9"/>
<polygon fill="#63b8ff" stroke="#63b8ff" points="78.14,-263.28 68.8,-258.29 72.99,-268.02 78.14,-263.28"/>
</a>
</g>
</g>
<!-- Node3 -->
<g id="Node000003" class="node">
<title>Node3</title>
<g id="a_Node000003"><a xlink:href="classunilink_1_1transport_1_1TcpClient.html" target="_top" xlink:title=" ">
<polygon fill="white" stroke="#666666" points="250,-318 150,-318 150,-288 250,-288 250,-318"/>
<text text-anchor="start" x="158" y="-306" font-family="Helvetica,sans-Serif" font-size="10.00">unilink::transport</text>
<text text-anchor="middle" x="200" y="-295" font-family="Helvetica,sans-Serif" font-size="10.00">::TcpClient</text>
</a>
</g>
</g>
<!-- Node0&#45;&gt;Node3 -->
<g id="edge21_Node000000_Node000003" class="edge">
<title>Node0&#45;&gt;Node3</title>
<g id="a_edge21_Node000000_Node000003"><a xlink:title=" ">
<path fill="none" stroke="#63b8ff" d="M101.2,-262.11C121.11,-270.43 144.11,-280.05 162.8,-287.86"/>
<polygon fill="#63b8ff" stroke="#63b8ff" points="102.29,-258.77 91.71,-258.14 99.59,-265.23 102.29,-258.77"/>
</a>
</g>
</g>
<!-- Node4 -->
<g id="Node000004" class="node">
<title>Node4</title>
<g id="a_Node000004"><a xlink:href="classunilink_1_1transport_1_1TcpServer.html" target="_top" xlink:title="Thread&#45;safe TCP Server implementation.">
<polygon fill="white" stroke="#666666" points="250,-270 150,-270 150,-240 250,-240 250,-270"/>
<text text-anchor="start" x="158" y="-258" font-family="Helvetica,sans-Serif" font-size="10.00">unilink::transport</text>
<text text-anchor="middle" x="200" y="-247" font-family="Helvetica,sans-Serif" font-size="10.00">::TcpServer</text>
</a>
</g>
</g>
<!-- Node0&#45;&gt;Node4 -->
<g id="edge22_Node000000_Node000004" class="edge">
<title>Node0&#45;&gt;Node4</title>
<g id="a_edge22_Node000000_Node000004"><a xlink:title=" ">
<path fill="none" stroke="#63b8ff" d="M114.33,-247.92C126.18,-248.91 138.51,-249.94 149.98,-250.9"/>
<polygon fill="#63b8ff" stroke="#63b8ff" points="114.34,-244.41 104.08,-247.06 113.76,-251.38 114.34,-244.41"/>
</a>
</g>
</g>
<!-- Node6 -->
<g id="Node000006" class="node">
<title>Node6</title>
<g id="a_Node000006"><a xlink:href="classunilink_1_1transport_1_1UdpChannel.html" target="_top" xlink:title="UDP Transport implementation with 1:N support.">
<polygon fill="white" stroke="#666666" points="250,-222 150,-222 150,-192 250,-192 250,-222"/>
<text text-anchor="start" x="158" y="-210" font-family="Helvetica,sans-Serif" font-size="10.00">unilink::transport</text>
<text text-anchor="middle" x="200" y="-199" font-family="Helvetica,sans-Serif" font-size="10.00">::UdpChannel</text>
</a>
</g>
</g>
<!-- Node0&#45;&gt;Node6 -->
<g id="edge23_Node000000_Node000006" class="edge">
<title>Node0&#45;&gt;Node6</title>
<g id="a_edge23_Node000000_Node000006"><a xlink:title=" ">
<path fill="none" stroke="#63b8ff" d="M113.97,-228.33C125.93,-225.33 138.4,-222.2 149.98,-219.3"/>
<polygon fill="#63b8ff" stroke="#63b8ff" points="112.93,-224.98 104.08,-230.81 114.63,-231.77 112.93,-224.98"/>
</a>
</g>
</g>
<!-- Node7 -->
<g id="Node000007" class="node">
<title>Node7</title>
<g id="a_Node000007"><a xlink:href="classunilink_1_1transport_1_1UdsClient.html" target="_top" xlink:title="Thread&#45;safe UDS Client implementation.">
<polygon fill="white" stroke="#666666" points="250,-174 150,-174 150,-144 250,-144 250,-174"/>
<text text-anchor="start" x="158" y="-162" font-family="Helvetica,sans-Serif" font-size="10.00">unilink::transport</text>
<text text-anchor="middle" x="200" y="-151" font-family="Helvetica,sans-Serif" font-size="10.00">::UdsClient</text>
</a>
</g>
</g>
<!-- Node0&#45;&gt;Node7 -->
<g id="edge24_Node000000_Node000007" class="edge">
<title>Node0&#45;&gt;Node7</title>
<g id="a_edge24_Node000000_Node000007"><a xlink:title=" ">
<path fill="none" stroke="#63b8ff" d="M86.56,-222.09C111.79,-205.12 143.43,-183.86 145,-183 150.66,-179.88 156.8,-176.84 162.85,-174.03"/>
<polygon fill="#63b8ff" stroke="#63b8ff" points="84.31,-219.38 77.97,-227.87 88.22,-225.19 84.31,-219.38"/>
</a>
</g>
</g>
<!-- Node8 -->
<g id="Node000008" class="node">
<title>Node8</title>
<g id="a_Node000008"><a xlink:href="classunilink_1_1transport_1_1UdsServer.html" target="_top" xlink:title="Thread&#45;safe UDS Server implementation.">
<polygon fill="white" stroke="#666666" points="250,-126 150,-126 150,-96 250,-96 250,-126"/>
<text text-anchor="start" x="158" y="-114" font-family="Helvetica,sans-Serif" font-size="10.00">unilink::transport</text>
<text text-anchor="middle" x="200" y="-103" font-family="Helvetica,sans-Serif" font-size="10.00">::UdsServer</text>
</a>
</g>
</g>
<!-- Node0&#45;&gt;Node8 -->
<g id="edge25_Node000000_Node000008" class="edge">
<title>Node0&#45;&gt;Node8</title>
<g id="a_edge25_Node000000_Node000008"><a xlink:title=" ">
<path fill="none" stroke="#63b8ff" d="M92.1,-222.12C98.2,-217.63 104.12,-212.55 109,-207 132.62,-180.13 119.13,-159.72 145,-135 148.56,-131.6 152.68,-128.63 157.03,-126.05"/>
<polygon fill="#63b8ff" stroke="#63b8ff" points="90.02,-219.3 83.76,-227.85 93.98,-225.07 90.02,-219.3"/>
</a>
</g>
</g>
<!-- Node2 -->
<g id="Node000002" class="node">
<title>Node2</title>
<g id="a_Node000002"><a xlink:title=" ">
<polygon fill="#e0e0e0" stroke="#999999" points="109,-198 0,-198 0,-168 109,-168 109,-198"/>
<text text-anchor="start" x="8" y="-186" font-family="Helvetica,sans-Serif" font-size="10.00">std::enable_shared</text>
<text text-anchor="middle" x="54.5" y="-175" font-family="Helvetica,sans-Serif" font-size="10.00">_from_this</text>
</a>
</g>
</g>
<!-- Node2&#45;&gt;Node1 -->
<g id="edge26_Node000002_Node000001" class="edge">
<title>Node2&#45;&gt;Node1</title>
<g id="a_edge26_Node000002_Node000001"><a xlink:title=" ">
<path fill="none" stroke="#63b8ff" d="M93.74,-204.07C99.41,-208.44 104.77,-213.43 109,-219 139.63,-259.28 110.99,-289.54 145,-327 148.1,-330.42 151.78,-333.38 155.74,-335.93"/>
<polygon fill="#63b8ff" stroke="#63b8ff" points="95.48,-201.01 85.28,-198.12 91.45,-206.74 95.48,-201.01"/>
</a>
</g>
</g>
<!-- Node2&#45;&gt;Node3 -->
<g id="edge27_Node000002_Node000003" class="edge">
<title>Node2&#45;&gt;Node3</title>
<g id="a_edge27_Node000002_Node000003"><a xlink:title=" ">
<path fill="none" stroke="#63b8ff" d="M91.37,-203.92C97.64,-208.45 103.81,-213.53 109,-219 130.41,-241.55 121.71,-258.39 145,-279 148.84,-282.4 153.24,-285.39 157.84,-287.99"/>
<polygon fill="#63b8ff" stroke="#63b8ff" points="93.09,-200.85 82.85,-198.12 89.15,-206.64 93.09,-200.85"/>
</a>
</g>
</g>
<!-- Node2&#45;&gt;Node4 -->
<g id="edge28_Node000002_Node000004" class="edge">
<title>Node2&#45;&gt;Node4</title>
<g id="a_edge28_Node000002_Node000004"><a xlink:title=" ">
<path fill="none" stroke="#63b8ff" d="M91.39,-203.03C107.62,-211.89 127.13,-222.25 145,-231 151.08,-233.98 157.62,-237.01 163.97,-239.88"/>
<polygon fill="#63b8ff" stroke="#63b8ff" points="92.71,-199.76 82.25,-198.02 89.34,-205.9 92.71,-199.76"/>
</a>
</g>
</g>
<!-- Node2&#45;&gt;Node6 -->
<g id="edge30_Node000002_Node000006" class="edge">
<title>Node2&#45;&gt;Node6</title>
<g id="a_edge30_Node000002_Node000006"><a xlink:title=" ">
<path fill="none" stroke="#63b8ff" d="M119.38,-193.68C129.51,-195.38 139.86,-197.11 149.59,-198.74"/>
<polygon fill="#63b8ff" stroke="#63b8ff" points="119.78,-190.2 109.34,-192 118.63,-197.11 119.78,-190.2"/>
</a>
</g>
</g>
<!-- Node2&#45;&gt;Node7 -->
<g id="edge31_Node000002_Node000007" class="edge">
<title>Node2&#45;&gt;Node7</title>
<g id="a_edge31_Node000002_Node000007"><a xlink:title=" ">
<path fill="none" stroke="#63b8ff" d="M119.38,-172.32C129.51,-170.62 139.86,-168.89 149.59,-167.26"/>
<polygon fill="#63b8ff" stroke="#63b8ff" points="118.63,-168.89 109.34,-174 119.78,-175.8 118.63,-168.89"/>
</a>
</g>
</g>
<!-- Node2&#45;&gt;Node8 -->
<g id="edge32_Node000002_Node000008" class="edge">
<title>Node2&#45;&gt;Node8</title>
<g id="a_edge32_Node000002_Node000008"><a xlink:title=" ">
<path fill="none" stroke="#63b8ff" d="M91.39,-162.97C107.62,-154.11 127.13,-143.75 145,-135 151.08,-132.02 157.62,-128.99 163.97,-126.12"/>
<polygon fill="#63b8ff" stroke="#63b8ff" points="89.34,-160.1 82.25,-167.98 92.71,-166.24 89.34,-160.1"/>
</a>
</g>
</g>
<!-- Node5 -->
<g id="Node000005" class="node">
<title>Node5</title>
<g id="a_Node000005"><a xlink:href="classunilink_1_1transport_1_1TcpServerSession.html" target="_top" xlink:title=" ">
<polygon fill="white" stroke="#666666" points="253.5,-78 146.5,-78 146.5,-48 253.5,-48 253.5,-78"/>
<text text-anchor="start" x="154.5" y="-66" font-family="Helvetica,sans-Serif" font-size="10.00">unilink::transport</text>
<text text-anchor="middle" x="200" y="-55" font-family="Helvetica,sans-Serif" font-size="10.00">::TcpServerSession</text>
</a>
</g>
</g>
<!-- Node2&#45;&gt;Node5 -->
<g id="edge29_Node000002_Node000005" class="edge">
<title>Node2&#45;&gt;Node5</title>
<g id="a_edge29_Node000002_Node000005"><a xlink:title=" ">
<path fill="none" stroke="#63b8ff" d="M72.69,-159.77C89.3,-138.6 116.14,-107.58 145,-87 149.59,-83.72 154.71,-80.75 159.9,-78.1"/>
<polygon fill="#63b8ff" stroke="#63b8ff" points="69.75,-157.85 66.43,-167.9 75.3,-162.11 69.75,-157.85"/>
</a>
</g>
</g>
<!-- Node9 -->
<g id="Node000009" class="node">
<title>Node9</title>
<g id="a_Node000009"><a xlink:href="classunilink_1_1transport_1_1UdsServerSession.html" target="_top" xlink:title=" ">
<polygon fill="white" stroke="#666666" points="255,-30 145,-30 145,0 255,0 255,-30"/>
<text text-anchor="start" x="153" y="-18" font-family="Helvetica,sans-Serif" font-size="10.00">unilink::transport</text>
<text text-anchor="middle" x="200" y="-7" font-family="Helvetica,sans-Serif" font-size="10.00">::UdsServerSession</text>
</a>
</g>
</g>
<!-- Node2&#45;&gt;Node9 -->
<g id="edge33_Node000002_Node000009" class="edge">
<title>Node2&#45;&gt;Node9</title>
<g id="a_edge33_Node000002_Node000009"><a xlink:title=" ">
<path fill="none" stroke="#63b8ff" d="M65.24,-158.58C78.86,-127.17 106.34,-72.66 145,-39 148.87,-35.63 153.29,-32.66 157.89,-30.07"/>
<polygon fill="#63b8ff" stroke="#63b8ff" points="61.97,-157.33 61.31,-167.91 68.42,-160.05 61.97,-157.33"/>
</a>
</g>
</g>
</g>
</svg>
