<?xml version="1.0" encoding="UTF-8" standalone="no"?>
<!DOCTYPE svg PUBLIC "-//W3C//DTD SVG 1.1//EN"
 "http://www.w3.org/Graphics/SVG/1.1/DTD/svg11.dtd">
<!-- Generated by graphviz version 2.43.0 (0)
 -->
<!-- Title: Graphical Class Hierarchy Pages: 1 -->
<svg width="337pt" height="64pt"
 viewBox="0.00 0.00 337.00 64.00" xmlns="http://www.w3.org/2000/svg" xmlns:xlink="http://www.w3.org/1999/xlink">
<g id="graph0" class="graph" transform="scale(1 1) rotate(0) translate(4 60)">
<title>Graphical Class Hierarchy</title>
<!-- Node0 -->
<g id="Node000000" class="node">
<title>Node0</title>
<g id="a_Node000000"><a xlink:href="classunilink_1_1framer_1_1IFramer.html" target="_top" xlink:title="Abstract base class for message framing strategies.">
<polygon fill="white" stroke="#666666" points="132,-37 0,-37 0,-18 132,-18 132,-37"/>
<text text-anchor="middle" x="66" y="-25" font-family="Helvetica,sans-Serif" font-size="10.00">unilink::framer::IFramer</text>
</a>
</g>
</g>
<!-- Node1 -->
<g id="Node000001" class="node">
<title>Node1</title>
<g id="a_Node000001"><a xlink:href="classunilink_1_1framer_1_1LineFramer.html" target="_top" xlink:title="Framer for text&#45;based protocols (e.g., ASCII, NMEA).">
<polygon fill="white" stroke="#666666" points="323,-56 174,-56 174,-37 323,-37 323,-56"/>
<text text-anchor="middle" x="248.5" y="-44" font-family="Helvetica,sans-Serif" font-size="10.00">unilink::framer::LineFramer</text>
</a>
</g>
</g>
<!-- Node0&#45;&gt;Node1 -->
<g id="edge18_Node000000_Node000001" class="edge">
<title>Node0&#45;&gt;Node1</title>
<g id="a_edge18_Node000000_Node000001"><a xlink:title=" ">
<path fill="none" stroke="#63b8ff" d="M142.12,-35.41C152.61,-36.51 163.39,-37.65 173.86,-38.75"/>
<polygon fill="#63b8ff" stroke="#63b8ff" points="142.48,-31.93 132.16,-34.36 141.74,-38.89 142.48,-31.93"/>
</a>
</g>
</g>
<!-- Node2 -->
<g id="Node000002" class="node">
<title>Node2</title>
<g id="a_Node000002"><a xlink:href="classunilink_1_1framer_1_1PacketFramer.html" target="_top" xlink:title="Framer for binary packet protocols.">
<polygon fill="white" stroke="#666666" points="329,-19 168,-19 168,0 329,0 329,-19"/>
<text text-anchor="middle" x="248.5" y="-7" font-family="Helvetica,sans-Serif" font-size="10.00">unilink::framer::PacketFramer</text>
</a>
</g>
</g>
<!-- Node0&#45;&gt;Node2 -->
<g id="edge19_Node000000_Node000002" class="edge">
<title>Node0&#45;&gt;Node2</title>
<g id="a_edge19_Node000000_Node000002"><a xlink:title=" ">
<path fill="none" stroke="#63b8ff" d="M142.37,-19.98C150.82,-19.14 159.45,-18.28 167.95,-17.43"/>
<polygon fill="#63b8ff" stroke="#63b8ff" points="141.77,-16.53 132.16,-21 142.46,-23.49 141.77,-16.53"/>
</a>
</g>
</g>
</g>
</svg>
