<?xml version="1.0" encoding="UTF-8" standalone="no"?>
<!DOCTYPE svg PUBLIC "-//W3C//DTD SVG 1.1//EN"
 "http://www.w3.org/Graphics/SVG/1.1/DTD/svg11.dtd">
<!-- Generated by graphviz version 2.43.0 (0)
 -->
<!-- Title: Graphical Class Hierarchy Pages: 1 -->
<svg width="329pt" height="101pt"
 viewBox="0.00 0.00 329.00 101.00" xmlns="http://www.w3.org/2000/svg" xmlns:xlink="http://www.w3.org/1999/xlink">
<g id="graph0" class="graph" transform="scale(1 1) rotate(0) translate(4 97)">
<title>Graphical Class Hierarchy</title>
<!-- Node0 -->
<g id="Node000000" class="node">
<title>Node0</title>
<g id="a_Node000000"><a xlink:href="classunilink_1_1wrapper_1_1ServerInterface.html" target="_top" xlink:title="Interface for 1:N server communication (e.g., TcpServer)">
<polygon fill="white" stroke="#666666" points="133,-61.5 0,-61.5 0,-31.5 133,-31.5 133,-61.5"/>
<text text-anchor="start" x="8" y="-49.5" font-family="Helvetica,sans-Serif" font-size="10.00">unilink::wrapper::Server</text>
<text text-anchor="middle" x="66.5" y="-38.5" font-family="Helvetica,sans-Serif" font-size="10.00">Interface</text>
</a>
</g>
</g>
<!-- Node1 -->
<g id="Node000001" class="node">
<title>Node1</title>
<g id="a_Node000001"><a xlink:href="classunilink_1_1wrapper_1_1TcpServer.html" target="_top" xlink:title="Modernized TCP Server Wrapper.">
<polygon fill="white" stroke="#666666" points="319.5,-93 170.5,-93 170.5,-74 319.5,-74 319.5,-93"/>
<text text-anchor="middle" x="245" y="-81" font-family="Helvetica,sans-Serif" font-size="10.00">unilink::wrapper::TcpServer</text>
</a>
</g>
</g>
<!-- Node0&#45;&gt;Node1 -->
<g id="edge43_Node000000_Node000001" class="edge">
<title>Node0&#45;&gt;Node1</title>
<g id="a_edge43_Node000000_Node000001"><a xlink:title=" ">
<path fill="none" stroke="#63b8ff" d="M143.02,-62.33C161.94,-66.3 181.65,-70.43 198.58,-73.98"/>
<polygon fill="#63b8ff" stroke="#63b8ff" points="143.73,-58.9 133.22,-60.28 142.29,-65.75 143.73,-58.9"/>
</a>
</g>
</g>
<!-- Node2 -->
<g id="Node000002" class="node">
<title>Node2</title>
<g id="a_Node000002"><a xlink:href="classunilink_1_1wrapper_1_1UdpServer.html" target="_top" xlink:title="UDP implementation of ServerInterface using virtual sessions.">
<polygon fill="white" stroke="#666666" points="321,-56 169,-56 169,-37 321,-37 321,-56"/>
<text text-anchor="middle" x="245" y="-44" font-family="Helvetica,sans-Serif" font-size="10.00">unilink::wrapper::UdpServer</text>
</a>
</g>
</g>
<!-- Node0&#45;&gt;Node2 -->
<g id="edge44_Node000000_Node000002" class="edge">
<title>Node0&#45;&gt;Node2</title>
<g id="a_edge44_Node000000_Node000002"><a xlink:title=" ">
<path fill="none" stroke="#63b8ff" d="M143.37,-46.5C151.77,-46.5 160.32,-46.5 168.71,-46.5"/>
<polygon fill="#63b8ff" stroke="#63b8ff" points="143.22,-43 133.22,-46.5 143.22,-50 143.22,-43"/>
</a>
</g>
</g>
<!-- Node3 -->
<g id="Node000003" class="node">
<title>Node3</title>
<g id="a_Node000003"><a xlink:href="classunilink_1_1wrapper_1_1UdsServer.html" target="_top" xlink:title="Modernized UDS Server Wrapper.">
<polygon fill="white" stroke="#666666" points="321,-19 169,-19 169,0 321,0 321,-19"/>
<text text-anchor="middle" x="245" y="-7" font-family="Helvetica,sans-Serif" font-size="10.00">unilink::wrapper::UdsServer</text>
</a>
</g>
</g>
<!-- Node0&#45;&gt;Node3 -->
<g id="edge45_Node000000_Node000003" class="edge">
<title>Node0&#45;&gt;Node3</title>
<g id="a_edge45_Node000000_Node000003"><a xlink:title=" ">
<path fill="none" stroke="#63b8ff" d="M143.02,-30.67C161.94,-26.7 181.65,-22.57 198.58,-19.02"/>
<polygon fill="#63b8ff" stroke="#63b8ff" points="142.29,-27.25 133.22,-32.72 143.73,-34.1 142.29,-27.25"/>
</a>
</g>
</g>
</g>
</svg>
