<?xml version="1.0" encoding="UTF-8" standalone="no"?>
<!DOCTYPE svg PUBLIC "-//W3C//DTD SVG 1.1//EN"
 "http://www.w3.org/Graphics/SVG/1.1/DTD/svg11.dtd">
<!-- Generated by graphviz version 2.43.0 (0)
 -->
<!-- Title: unilink::transport::UdpChannel::Impl Pages: 1 -->
<svg width="288pt" height="175pt"
 viewBox="0.00 0.00 287.50 175.00" xmlns="http://www.w3.org/2000/svg" xmlns:xlink="http://www.w3.org/1999/xlink">

<svg id="main" version="1.1" xmlns="http://www.w3.org/2000/svg" xmlns:xlink="http://www.w3.org/1999/xlink" xml:space="preserve" onload="init(evt)">
<style type="text/css"><![CDATA[
.node, .edge {opacity: 0.7;}
.node.selected, .edge.selected {opacity: 1;}
.edge:hover path { stroke: red; }
.edge:hover polygon { stroke: red; fill: red; }
]]></style>
<script type="application/ecmascript" xlink:href="svg.min.js"/>
<svg id="graph" class="graph">
<g id="graph0" class="graph" transform="scale(1 1) rotate(0) translate(4 171)">
<title>unilink::transport::UdpChannel::Impl</title>
<!-- Node1 -->
<g id="Node000001" class="node">
<title>Node1</title>
<g id="a_Node000001"><a xlink:title=" ">
<polygon fill="#999999" stroke="transparent" points="193.5,-60 89.5,-60 89.5,0 193.5,0 193.5,-60"/>
<text text-anchor="start" x="94.5" y="-48" font-family="Helvetica,sans-Serif" font-size="10.00">unilink::transport</text>
<text text-anchor="start" x="94.5" y="-37" font-family="Helvetica,sans-Serif" font-size="10.00">::UdpChannel::Impl</text>
<text text-anchor="start" x="139.5" y="-22" font-family="Helvetica,sans-Serif" font-size="10.00"> </text>
<text text-anchor="start" x="139.5" y="-7" font-family="Helvetica,sans-Serif" font-size="10.00"> </text>
<polygon fill="#666666" stroke="#666666" points="89.5,-32 89.5,-32 193.5,-32 193.5,-32 89.5,-32"/>
<polygon fill="#666666" stroke="#666666" points="89.5,-17 89.5,-17 193.5,-17 193.5,-17 89.5,-17"/>
<polygon fill="none" stroke="#666666" points="89.5,0 89.5,-60 193.5,-60 193.5,0 89.5,0"/>
</a>
</g>
</g>
<!-- Node2 -->
<g id="Node000002" class="node">
<title>Node2</title>
<g id="a_Node000002"><a xlink:href="structunilink_1_1config_1_1UdpConfig.html" target="_top" xlink:title=" ">
<polygon fill="white" stroke="transparent" points="135,-161.5 0,-161.5 0,-112.5 135,-112.5 135,-161.5"/>
<text text-anchor="start" x="5.5" y="-149" font-family="Helvetica,sans-Serif" font-size="10.00">unilink::config::UdpConfig</text>
<text text-anchor="start" x="66" y="-134" font-family="Helvetica,sans-Serif" font-size="10.00"> </text>
<text text-anchor="start" x="66" y="-119" font-family="Helvetica,sans-Serif" font-size="10.00"> </text>
<polygon fill="#bfbfbf" stroke="#bfbfbf" points="0.5,-144 0.5,-144 135.5,-144 135.5,-144 0.5,-144"/>
<polygon fill="#bfbfbf" stroke="#bfbfbf" points="0.5,-129 0.5,-129 135.5,-129 135.5,-129 0.5,-129"/>
<polygon fill="none" stroke="#bfbfbf" points="0,-112.5 0,-161.5 135,-161.5 135,-112.5 0,-112.5"/>
</a>
</g>
</g>
<!-- Node2&#45;&gt;Node1 -->
<g id="edge1_Node000001_Node000002" class="edge">
<title>Node2&#45;&gt;Node1</title>
<g id="a_edge1_Node000001_Node000002"><a xlink:title=" ">
<path fill="none" stroke="#63b8ff" d="M84.11,-112.44C92.89,-99.98 103.89,-84.36 113.91,-70.15"/>
<polygon fill="none" stroke="#63b8ff" points="114.07,-69.92 114.26,-62.71 120.99,-60.11 120.8,-67.32 114.07,-69.92"/>
</a>
</g>
<text text-anchor="middle" x="123.5" y="-81" font-family="Helvetica,sans-Serif" font-size="10.00" fill="grey"> +cfg_</text>
</g>
<!-- Node3 -->
<g id="Node000003" class="node">
<title>Node3</title>
<g id="a_Node000003"><a xlink:href="structunilink_1_1diagnostics_1_1RuntimeStatsCounters.html" target="_top" xlink:title=" ">
<polygon fill="white" stroke="transparent" points="279.5,-167 153.5,-167 153.5,-107 279.5,-107 279.5,-167"/>
<text text-anchor="start" x="158.5" y="-155" font-family="Helvetica,sans-Serif" font-size="10.00">unilink::diagnostics</text>
<text text-anchor="start" x="158.5" y="-144" font-family="Helvetica,sans-Serif" font-size="10.00">::RuntimeStatsCounters</text>
<text text-anchor="start" x="214.5" y="-129" font-family="Helvetica,sans-Serif" font-size="10.00"> </text>
<text text-anchor="start" x="214.5" y="-114" font-family="Helvetica,sans-Serif" font-size="10.00"> </text>
<polygon fill="#bfbfbf" stroke="#bfbfbf" points="153.5,-139 153.5,-139 279.5,-139 279.5,-139 153.5,-139"/>
<polygon fill="#bfbfbf" stroke="#bfbfbf" points="153.5,-124 153.5,-124 279.5,-124 279.5,-124 153.5,-124"/>
<polygon fill="none" stroke="#bfbfbf" points="153.5,-107 153.5,-167 279.5,-167 279.5,-107 153.5,-107"/>
</a>
</g>
</g>
<!-- Node3&#45;&gt;Node1 -->
<g id="edge2_Node000001_Node000003" class="edge">
<title>Node3&#45;&gt;Node1</title>
<g id="a_edge2_Node000001_Node000003"><a xlink:title=" ">
<path fill="none" stroke="#63b8ff" d="M195.61,-106.75C187.48,-95.37 178.05,-82.17 169.36,-70"/>
<polygon fill="none" stroke="#63b8ff" points="169.25,-69.86 162.51,-67.3 162.28,-60.09 169.02,-62.65 169.25,-69.86"/>
</a>
</g>
<text text-anchor="middle" x="201" y="-81" font-family="Helvetica,sans-Serif" font-size="10.00" fill="grey"> +stats_</text>
</g>
</g>
</svg>
</svg>

<style type='text/css'>
<![CDATA[
[data-mouse-over-selected='false'] { opacity: 0.7; }
[data-mouse-over-selected='true']  { opacity: 1.0; }
]]>
</style>
<script type="application/ecmascript"><![CDATA[
document.addEventListener('DOMContentLoaded', (event) => {
  highlightEdges();
  highlightAdjacentNodes();
});
]]></script>
</svg>
