<?xml version="1.0" encoding="UTF-8" standalone="no"?>
<!DOCTYPE svg PUBLIC "-//W3C//DTD SVG 1.1//EN"
 "http://www.w3.org/Graphics/SVG/1.1/DTD/svg11.dtd">
<!-- Generated by graphviz version 2.43.0 (0)
 -->
<!-- Title: unilink::diagnostics::Logger::Impl Pages: 1 -->
<svg width="248pt" height="175pt"
 viewBox="0.00 0.00 248.00 175.00" xmlns="http://www.w3.org/2000/svg" xmlns:xlink="http://www.w3.org/1999/xlink">

<svg id="main" version="1.1" xmlns="http://www.w3.org/2000/svg" xmlns:xlink="http://www.w3.org/1999/xlink" xml:space="preserve" onload="init(evt)">
<style type="text/css"><![CDATA[
.node, .edge {opacity: 0.7;}
.node.selected, .edge.selected {opacity: 1;}
.edge:hover path { stroke: red; }
.edge:hover polygon { stroke: red; fill: red; }
]]></style>
<script type="application/ecmascript" xlink:href="svg.min.js"/>
<svg id="graph" class="graph">
<g id="graph0" class="graph" transform="scale(1 1) rotate(0) translate(4 171)">
<title>unilink::diagnostics::Logger::Impl</title>
<!-- Node1 -->
<g id="Node000001" class="node">
<title>Node1</title>
<g id="a_Node000001"><a xlink:title=" ">
<polygon fill="#999999" stroke="transparent" points="167.5,-60 62.5,-60 62.5,0 167.5,0 167.5,-60"/>
<text text-anchor="start" x="68" y="-48" font-family="Helvetica,sans-Serif" font-size="10.00">unilink::diagnostics</text>
<text text-anchor="start" x="82" y="-37" font-family="Helvetica,sans-Serif" font-size="10.00">::Logger::Impl</text>
<text text-anchor="start" x="113.5" y="-22" font-family="Helvetica,sans-Serif" font-size="10.00"> </text>
<text text-anchor="start" x="113.5" y="-7" font-family="Helvetica,sans-Serif" font-size="10.00"> </text>
<polygon fill="#666666" stroke="#666666" points="63,-32 63,-32 168,-32 168,-32 63,-32"/>
<polygon fill="#666666" stroke="#666666" points="63,-17 63,-17 168,-17 168,-17 63,-17"/>
<polygon fill="none" stroke="#666666" points="62.5,0 62.5,-60 167.5,-60 167.5,0 62.5,0"/>
</a>
</g>
</g>
<!-- Node2 -->
<g id="Node000002" class="node">
<title>Node2</title>
<g id="a_Node000002"><a xlink:href="structunilink_1_1diagnostics_1_1LogRotationConfig.html" target="_top" xlink:title="Log rotation configuration.">
<polygon fill="white" stroke="transparent" points="106,-167 0,-167 0,-107 106,-107 106,-167"/>
<text text-anchor="start" x="5" y="-155" font-family="Helvetica,sans-Serif" font-size="10.00">unilink::diagnostics</text>
<text text-anchor="start" x="5" y="-144" font-family="Helvetica,sans-Serif" font-size="10.00">::LogRotationConfig</text>
<text text-anchor="start" x="51" y="-129" font-family="Helvetica,sans-Serif" font-size="10.00"> </text>
<text text-anchor="start" x="51" y="-114" font-family="Helvetica,sans-Serif" font-size="10.00"> </text>
<polygon fill="#666666" stroke="#666666" points="0,-139 0,-139 106,-139 106,-139 0,-139"/>
<polygon fill="#666666" stroke="#666666" points="0,-124 0,-124 106,-124 106,-124 0,-124"/>
<polygon fill="none" stroke="#666666" points="0,-107 0,-167 106,-167 106,-107 0,-107"/>
</a>
</g>
</g>
<!-- Node2&#45;&gt;Node1 -->
<g id="edge1_Node000001_Node000002" class="edge">
<title>Node2&#45;&gt;Node1</title>
<g id="a_edge1_Node000001_Node000002"><a xlink:title=" ">
<path fill="none" stroke="#63b8ff" d="M55.5,-106.74C57.23,-97.14 60.13,-86.7 65,-78 66.61,-75.13 68.45,-72.33 70.46,-69.61"/>
<polygon fill="none" stroke="#63b8ff" points="70.63,-69.42 71.42,-62.25 78.34,-60.23 77.55,-67.39 70.63,-69.42"/>
</a>
</g>
<text text-anchor="middle" x="110" y="-81" font-family="Helvetica,sans-Serif" font-size="10.00" fill="grey"> +rotation_config_</text>
</g>
<!-- Node3 -->
<g id="Node000003" class="node">
<title>Node3</title>
<g id="a_Node000003"><a xlink:href="structunilink_1_1diagnostics_1_1AsyncLogConfig.html" target="_top" xlink:title="Async logging configuration.">
<polygon fill="white" stroke="transparent" points="229.5,-167 124.5,-167 124.5,-107 229.5,-107 229.5,-167"/>
<text text-anchor="start" x="130" y="-155" font-family="Helvetica,sans-Serif" font-size="10.00">unilink::diagnostics</text>
<text text-anchor="start" x="135.5" y="-144" font-family="Helvetica,sans-Serif" font-size="10.00">::AsyncLogConfig</text>
<text text-anchor="start" x="175.5" y="-129" font-family="Helvetica,sans-Serif" font-size="10.00"> </text>
<text text-anchor="start" x="175.5" y="-114" font-family="Helvetica,sans-Serif" font-size="10.00"> </text>
<polygon fill="#666666" stroke="#666666" points="125,-139 125,-139 230,-139 230,-139 125,-139"/>
<polygon fill="#666666" stroke="#666666" points="125,-124 125,-124 230,-124 230,-124 125,-124"/>
<polygon fill="none" stroke="#666666" points="124.5,-107 124.5,-167 229.5,-167 229.5,-107 124.5,-107"/>
</a>
</g>
</g>
<!-- Node3&#45;&gt;Node1 -->
<g id="edge2_Node000001_Node000003" class="edge">
<title>Node3&#45;&gt;Node1</title>
<g id="a_edge2_Node000001_Node000003"><a xlink:title=" ">
<path fill="none" stroke="#63b8ff" d="M168.13,-106.78C164.67,-97.28 160.26,-86.9 155,-78 153.37,-75.24 151.57,-72.49 149.67,-69.77"/>
<polygon fill="none" stroke="#63b8ff" points="149.67,-69.76 142.86,-67.38 142.45,-60.18 149.25,-62.56 149.67,-69.76"/>
</a>
</g>
<text text-anchor="middle" x="200" y="-81" font-family="Helvetica,sans-Serif" font-size="10.00" fill="grey"> +async_config_</text>
</g>
</g>
</svg>
</svg>

<style type='text/css'>
<![CDATA[
[data-mouse-over-selected='false'] { opacity: 0.7; }
[data-mouse-over-selected='true']  { opacity: 1.0; }
]]>
</style>
<script type="application/ecmascript"><![CDATA[
document.addEventListener('DOMContentLoaded', (event) => {
  highlightEdges();
  highlightAdjacentNodes();
});
]]></script>
</svg>
