<?xml version="1.0" encoding="UTF-8" standalone="no"?>
<!DOCTYPE svg PUBLIC "-//W3C//DTD SVG 1.1//EN"
 "http://www.w3.org/Graphics/SVG/1.1/DTD/svg11.dtd">
<!-- Generated by graphviz version 2.43.0 (0)
 -->
<!-- Title: unilink::transport::TcpClient::Impl Pages: 1 -->
<svg width="282pt" height="175pt"
 viewBox="0.00 0.00 281.50 175.00" xmlns="http://www.w3.org/2000/svg" xmlns:xlink="http://www.w3.org/1999/xlink">
<g id="graph0" class="graph" transform="scale(1 1) rotate(0) translate(4 171)">
<title>unilink::transport::TcpClient::Impl</title>
<!-- Node1 -->
<g id="Node000001" class="node">
<title>Node1</title>
<g id="a_Node000001"><a xlink:title=" ">
<polygon fill="#999999" stroke="transparent" points="184.5,-60 90.5,-60 90.5,0 184.5,0 184.5,-60"/>
<text text-anchor="start" x="95.5" y="-48" font-family="Helvetica,sans-Serif" font-size="10.00">unilink::transport</text>
<text text-anchor="start" x="98" y="-37" font-family="Helvetica,sans-Serif" font-size="10.00">::TcpClient::Impl</text>
<text text-anchor="start" x="135.5" y="-22" font-family="Helvetica,sans-Serif" font-size="10.00"> </text>
<text text-anchor="start" x="135.5" y="-7" font-family="Helvetica,sans-Serif" font-size="10.00"> </text>
<polygon fill="#666666" stroke="#666666" points="90.5,-32 90.5,-32 184.5,-32 184.5,-32 90.5,-32"/>
<polygon fill="#666666" stroke="#666666" points="90.5,-17 90.5,-17 184.5,-17 184.5,-17 90.5,-17"/>
<polygon fill="none" stroke="#666666" points="90.5,0 90.5,-60 184.5,-60 184.5,0 90.5,0"/>
</a>
</g>
</g>
<!-- Node2 -->
<g id="Node000002" class="node">
<title>Node2</title>
<g id="a_Node000002"><a xlink:href="structunilink_1_1config_1_1TcpClientConfig.html" target="_top" xlink:title=" ">
<polygon fill="white" stroke="transparent" points="129,-167 0,-167 0,-107 129,-107 129,-167"/>
<text text-anchor="start" x="5.5" y="-155" font-family="Helvetica,sans-Serif" font-size="10.00">unilink::config::TcpClient</text>
<text text-anchor="start" x="49.5" y="-144" font-family="Helvetica,sans-Serif" font-size="10.00">Config</text>
<text text-anchor="start" x="63" y="-129" font-family="Helvetica,sans-Serif" font-size="10.00"> </text>
<text text-anchor="start" x="63" y="-114" font-family="Helvetica,sans-Serif" font-size="10.00"> </text>
<polygon fill="#bfbfbf" stroke="#bfbfbf" points="0.5,-139 0.5,-139 129.5,-139 129.5,-139 0.5,-139"/>
<polygon fill="#bfbfbf" stroke="#bfbfbf" points="0.5,-124 0.5,-124 129.5,-124 129.5,-124 0.5,-124"/>
<polygon fill="none" stroke="#bfbfbf" points="0,-107 0,-167 129,-167 129,-107 0,-107"/>
</a>
</g>
</g>
<!-- Node2&#45;&gt;Node1 -->
<g id="edge1_Node000001_Node000002" class="edge">
<title>Node2&#45;&gt;Node1</title>
<g id="a_edge1_Node000001_Node000002"><a xlink:title=" ">
<path fill="none" stroke="#63b8ff" d="M84.83,-106.75C92.74,-95.37 101.92,-82.17 110.38,-70"/>
<polygon fill="none" stroke="#63b8ff" points="110.42,-69.94 110.57,-62.73 117.27,-60.09 117.13,-67.3 110.42,-69.94"/>
</a>
</g>
<text text-anchor="middle" x="119.5" y="-81" font-family="Helvetica,sans-Serif" font-size="10.00" fill="grey"> +cfg_</text>
</g>
<!-- Node3 -->
<g id="Node000003" class="node">
<title>Node3</title>
<g id="a_Node000003"><a xlink:href="structunilink_1_1diagnostics_1_1RuntimeStatsCounters.html" target="_top" xlink:title=" ">
<polygon fill="white" stroke="transparent" points="273.5,-167 147.5,-167 147.5,-107 273.5,-107 273.5,-167"/>
<text text-anchor="start" x="152.5" y="-155" font-family="Helvetica,sans-Serif" font-size="10.00">unilink::diagnostics</text>
<text text-anchor="start" x="152.5" y="-144" font-family="Helvetica,sans-Serif" font-size="10.00">::RuntimeStatsCounters</text>
<text text-anchor="start" x="208.5" y="-129" font-family="Helvetica,sans-Serif" font-size="10.00"> </text>
<text text-anchor="start" x="208.5" y="-114" font-family="Helvetica,sans-Serif" font-size="10.00"> </text>
<polygon fill="#bfbfbf" stroke="#bfbfbf" points="147.5,-139 147.5,-139 273.5,-139 273.5,-139 147.5,-139"/>
<polygon fill="#bfbfbf" stroke="#bfbfbf" points="147.5,-124 147.5,-124 273.5,-124 273.5,-124 147.5,-124"/>
<polygon fill="none" stroke="#bfbfbf" points="147.5,-107 147.5,-167 273.5,-167 273.5,-107 147.5,-107"/>
</a>
</g>
</g>
<!-- Node3&#45;&gt;Node1 -->
<g id="edge2_Node000001_Node000003" class="edge">
<title>Node3&#45;&gt;Node1</title>
<g id="a_edge2_Node000001_Node000003"><a xlink:title=" ">
<path fill="none" stroke="#63b8ff" d="M190.17,-106.75C182.26,-95.37 173.08,-82.17 164.62,-70"/>
<polygon fill="none" stroke="#63b8ff" points="164.58,-69.94 157.87,-67.3 157.73,-60.09 164.43,-62.73 164.58,-69.94"/>
</a>
</g>
<text text-anchor="middle" x="196" y="-81" font-family="Helvetica,sans-Serif" font-size="10.00" fill="grey"> +stats_</text>
</g>
</g>
</svg>
