<?xml version="1.0" encoding="UTF-8" standalone="no"?>
<!DOCTYPE svg PUBLIC "-//W3C//DTD SVG 1.1//EN"
 "http://www.w3.org/Graphics/SVG/1.1/DTD/svg11.dtd">
<!-- Generated by graphviz version 2.43.0 (0)
 -->
<!-- Title: unilink::transport::UdsServer::Impl Pages: 1 -->
<svg width="438pt" height="293pt"
 viewBox="0.00 0.00 437.50 293.00" xmlns="http://www.w3.org/2000/svg" xmlns:xlink="http://www.w3.org/1999/xlink">

<svg id="main" version="1.1" xmlns="http://www.w3.org/2000/svg" xmlns:xlink="http://www.w3.org/1999/xlink" xml:space="preserve" onload="init(evt)">
<style type="text/css"><![CDATA[
.node, .edge {opacity: 0.7;}
.node.selected, .edge.selected {opacity: 1;}
.edge:hover path { stroke: red; }
.edge:hover polygon { stroke: red; fill: red; }
]]></style>
<script type="application/ecmascript" xlink:href="svg.min.js"/>
<svg id="graph" class="graph">
<g id="graph0" class="graph" transform="scale(1 1) rotate(0) translate(4 289)">
<title>unilink::transport::UdsServer::Impl</title>
<!-- Node1 -->
<g id="Node000001" class="node">
<title>Node1</title>
<g id="a_Node000001"><a xlink:title=" ">
<polygon fill="#999999" stroke="transparent" points="267,-60 172,-60 172,0 267,0 267,-60"/>
<text text-anchor="start" x="177.5" y="-48" font-family="Helvetica,sans-Serif" font-size="10.00">unilink::transport</text>
<text text-anchor="start" x="177.5" y="-37" font-family="Helvetica,sans-Serif" font-size="10.00">::UdsServer::Impl</text>
<text text-anchor="start" x="218" y="-22" font-family="Helvetica,sans-Serif" font-size="10.00"> </text>
<text text-anchor="start" x="218" y="-7" font-family="Helvetica,sans-Serif" font-size="10.00"> </text>
<polygon fill="#666666" stroke="#666666" points="172.5,-32 172.5,-32 267.5,-32 267.5,-32 172.5,-32"/>
<polygon fill="#666666" stroke="#666666" points="172.5,-17 172.5,-17 267.5,-17 267.5,-17 172.5,-17"/>
<polygon fill="none" stroke="#666666" points="172,0 172,-60 267,-60 267,0 172,0"/>
</a>
</g>
</g>
<!-- Node2 -->
<g id="Node000002" class="node">
<title>Node2</title>
<g id="a_Node000002"><a xlink:href="structunilink_1_1config_1_1UdsServerConfig.html" target="_top" xlink:title="Configuration for UDS Server.">
<polygon fill="white" stroke="transparent" points="135,-172.5 0,-172.5 0,-112.5 135,-112.5 135,-172.5"/>
<text text-anchor="start" x="5.5" y="-160.5" font-family="Helvetica,sans-Serif" font-size="10.00">unilink::config::UdsServer</text>
<text text-anchor="start" x="52.5" y="-149.5" font-family="Helvetica,sans-Serif" font-size="10.00">Config</text>
<text text-anchor="start" x="66" y="-134.5" font-family="Helvetica,sans-Serif" font-size="10.00"> </text>
<text text-anchor="start" x="66" y="-119.5" font-family="Helvetica,sans-Serif" font-size="10.00"> </text>
<polygon fill="#666666" stroke="#666666" points="0.5,-144.5 0.5,-144.5 135.5,-144.5 135.5,-144.5 0.5,-144.5"/>
<polygon fill="#666666" stroke="#666666" points="0.5,-129.5 0.5,-129.5 135.5,-129.5 135.5,-129.5 0.5,-129.5"/>
<polygon fill="none" stroke="#666666" points="0,-112.5 0,-172.5 135,-172.5 135,-112.5 0,-112.5"/>
</a>
</g>
</g>
<!-- Node2&#45;&gt;Node1 -->
<g id="edge1_Node000001_Node000002" class="edge">
<title>Node2&#45;&gt;Node1</title>
<g id="a_edge1_Node000001_Node000002"><a xlink:title=" ">
<path fill="none" stroke="#63b8ff" d="M107.44,-112.47C126.47,-98.63 149.44,-81.93 169.61,-67.27"/>
<polygon fill="none" stroke="#63b8ff" points="169.86,-67.09 172.36,-60.32 179.57,-60.03 177.07,-66.79 169.86,-67.09"/>
</a>
</g>
<text text-anchor="middle" x="169.5" y="-81" font-family="Helvetica,sans-Serif" font-size="10.00" fill="grey"> +cfg_</text>
</g>
<!-- Node3 -->
<g id="Node000003" class="node">
<title>Node3</title>
<g id="a_Node000003"><a xlink:href="classunilink_1_1concurrency_1_1ThreadSafeState.html" target="_top" xlink:title=" ">
<polygon fill="white" stroke="transparent" points="285.5,-178 153.5,-178 153.5,-107 285.5,-107 285.5,-178"/>
<text text-anchor="start" x="158.5" y="-165.5" font-family="Helvetica,sans-Serif" font-size="10.00">unilink::concurrency</text>
<text text-anchor="start" x="158.5" y="-154.5" font-family="Helvetica,sans-Serif" font-size="10.00">::ThreadSafeState&lt; base</text>
<text text-anchor="start" x="187.5" y="-143.5" font-family="Helvetica,sans-Serif" font-size="10.00">::LinkState &gt;</text>
<text text-anchor="start" x="217.5" y="-128.5" font-family="Helvetica,sans-Serif" font-size="10.00"> </text>
<text text-anchor="start" x="217.5" y="-113.5" font-family="Helvetica,sans-Serif" font-size="10.00"> </text>
<polygon fill="#666666" stroke="#666666" points="153.5,-138.5 153.5,-138.5 285.5,-138.5 285.5,-138.5 153.5,-138.5"/>
<polygon fill="#666666" stroke="#666666" points="153.5,-123.5 153.5,-123.5 285.5,-123.5 285.5,-123.5 153.5,-123.5"/>
<polygon fill="none" stroke="#666666" points="153.5,-107 153.5,-178 285.5,-178 285.5,-107 153.5,-107"/>
</a>
</g>
</g>
<!-- Node3&#45;&gt;Node1 -->
<g id="edge2_Node000001_Node000003" class="edge">
<title>Node3&#45;&gt;Node1</title>
<g id="a_edge2_Node000001_Node000003"><a xlink:title=" ">
<path fill="none" stroke="#63b8ff" d="M219.5,-106.84C219.5,-95.99 219.5,-83.9 219.5,-72.62"/>
<polygon fill="none" stroke="#63b8ff" points="219.5,-72.33 215.5,-66.33 219.5,-60.33 223.5,-66.33 219.5,-72.33"/>
</a>
</g>
<text text-anchor="middle" x="240.5" y="-81" font-family="Helvetica,sans-Serif" font-size="10.00" fill="grey"> +state_</text>
</g>
<!-- Node4 -->
<g id="Node000004" class="node">
<title>Node4</title>
<g id="a_Node000004"><a xlink:href="classunilink_1_1concurrency_1_1ThreadSafeState.html" target="_top" xlink:title="Thread&#45;safe state management class.">
<polygon fill="white" stroke="transparent" points="303.5,-285 135.5,-285 135.5,-225 303.5,-225 303.5,-285"/>
<text text-anchor="start" x="140.5" y="-273" font-family="Helvetica,sans-Serif" font-size="10.00">unilink::concurrency</text>
<text text-anchor="start" x="140.5" y="-262" font-family="Helvetica,sans-Serif" font-size="10.00">::ThreadSafeState&lt; StateType &gt;</text>
<text text-anchor="start" x="217.5" y="-247" font-family="Helvetica,sans-Serif" font-size="10.00"> </text>
<text text-anchor="start" x="217.5" y="-232" font-family="Helvetica,sans-Serif" font-size="10.00"> </text>
<polygon fill="#666666" stroke="#666666" points="135.5,-257 135.5,-257 303.5,-257 303.5,-257 135.5,-257"/>
<polygon fill="#666666" stroke="#666666" points="135.5,-242 135.5,-242 303.5,-242 303.5,-242 135.5,-242"/>
<polygon fill="none" stroke="#666666" points="135.5,-225 135.5,-285 303.5,-285 303.5,-225 135.5,-225"/>
</a>
</g>
</g>
<!-- Node4&#45;&gt;Node3 -->
<g id="edge3_Node000003_Node000004" class="edge">
<title>Node4&#45;&gt;Node3</title>
<g id="a_edge3_Node000003_Node000004"><a xlink:title=" ">
<path fill="none" stroke="orange" d="M219.5,-214.82C219.5,-202.89 219.5,-189.86 219.5,-178.24"/>
<polygon fill="orange" stroke="orange" points="216,-214.97 219.5,-224.97 223,-214.97 216,-214.97"/>
</a>
</g>
<text text-anchor="middle" x="270" y="-199" font-family="Helvetica,sans-Serif" font-size="10.00" fill="grey"> &lt; base::LinkState &gt;</text>
</g>
<!-- Node5 -->
<g id="Node000005" class="node">
<title>Node5</title>
<g id="a_Node000005"><a xlink:href="structunilink_1_1diagnostics_1_1RuntimeStatsCounters.html" target="_top" xlink:title=" ">
<polygon fill="white" stroke="transparent" points="429.5,-172.5 303.5,-172.5 303.5,-112.5 429.5,-112.5 429.5,-172.5"/>
<text text-anchor="start" x="308.5" y="-160.5" font-family="Helvetica,sans-Serif" font-size="10.00">unilink::diagnostics</text>
<text text-anchor="start" x="308.5" y="-149.5" font-family="Helvetica,sans-Serif" font-size="10.00">::RuntimeStatsCounters</text>
<text text-anchor="start" x="364.5" y="-134.5" font-family="Helvetica,sans-Serif" font-size="10.00"> </text>
<text text-anchor="start" x="364.5" y="-119.5" font-family="Helvetica,sans-Serif" font-size="10.00"> </text>
<polygon fill="#bfbfbf" stroke="#bfbfbf" points="303.5,-144.5 303.5,-144.5 429.5,-144.5 429.5,-144.5 303.5,-144.5"/>
<polygon fill="#bfbfbf" stroke="#bfbfbf" points="303.5,-129.5 303.5,-129.5 429.5,-129.5 429.5,-129.5 303.5,-129.5"/>
<polygon fill="none" stroke="#bfbfbf" points="303.5,-112.5 303.5,-172.5 429.5,-172.5 429.5,-112.5 303.5,-112.5"/>
</a>
</g>
</g>
<!-- Node5&#45;&gt;Node1 -->
<g id="edge4_Node000001_Node000005" class="edge">
<title>Node5&#45;&gt;Node1</title>
<g id="a_edge4_Node000001_Node000005"><a xlink:title=" ">
<path fill="none" stroke="#63b8ff" d="M327.88,-112.47C309.47,-98.63 287.25,-81.93 267.75,-67.27"/>
<polygon fill="none" stroke="#63b8ff" points="267.71,-67.24 260.51,-66.83 258.12,-60.03 265.32,-60.44 267.71,-67.24"/>
</a>
</g>
<text text-anchor="middle" x="313" y="-81" font-family="Helvetica,sans-Serif" font-size="10.00" fill="grey"> +stats_</text>
</g>
</g>
</svg>
</svg>

<style type='text/css'>
<![CDATA[
[data-mouse-over-selected='false'] { opacity: 0.7; }
[data-mouse-over-selected='true']  { opacity: 1.0; }
]]>
</style>
<script type="application/ecmascript"><![CDATA[
document.addEventListener('DOMContentLoaded', (event) => {
  highlightEdges();
  highlightAdjacentNodes();
});
]]></script>
</svg>
