<?xml version="1.0" encoding="UTF-8" standalone="no"?>
<!DOCTYPE svg PUBLIC "-//W3C//DTD SVG 1.1//EN"
 "http://www.w3.org/Graphics/SVG/1.1/DTD/svg11.dtd">
<!-- Generated by graphviz version 2.43.0 (0)
 -->
<!-- Title: unilink::transport::UdsClient::Impl Pages: 1 -->
<svg width="284pt" height="175pt"
 viewBox="0.00 0.00 284.00 175.00" xmlns="http://www.w3.org/2000/svg" xmlns:xlink="http://www.w3.org/1999/xlink">

<svg id="main" version="1.1" xmlns="http://www.w3.org/2000/svg" xmlns:xlink="http://www.w3.org/1999/xlink" xml:space="preserve" onload="init(evt)">
<style type="text/css"><![CDATA[
.node, .edge {opacity: 0.7;}
.node.selected, .edge.selected {opacity: 1;}
.edge:hover path { stroke: red; }
.edge:hover polygon { stroke: red; fill: red; }
]]></style>
<script type="application/ecmascript" xlink:href="svg.min.js"/>
<svg id="graph" class="graph">
<g id="graph0" class="graph" transform="scale(1 1) rotate(0) translate(4 171)">
<title>unilink::transport::UdsClient::Impl</title>
<!-- Node1 -->
<g id="Node000001" class="node">
<title>Node1</title>
<g id="a_Node000001"><a xlink:title=" ">
<polygon fill="#999999" stroke="transparent" points="186,-60 92,-60 92,0 186,0 186,-60"/>
<text text-anchor="start" x="97" y="-48" font-family="Helvetica,sans-Serif" font-size="10.00">unilink::transport</text>
<text text-anchor="start" x="98" y="-37" font-family="Helvetica,sans-Serif" font-size="10.00">::UdsClient::Impl</text>
<text text-anchor="start" x="137" y="-22" font-family="Helvetica,sans-Serif" font-size="10.00"> </text>
<text text-anchor="start" x="137" y="-7" font-family="Helvetica,sans-Serif" font-size="10.00"> </text>
<polygon fill="#666666" stroke="#666666" points="92,-32 92,-32 186,-32 186,-32 92,-32"/>
<polygon fill="#666666" stroke="#666666" points="92,-17 92,-17 186,-17 186,-17 92,-17"/>
<polygon fill="none" stroke="#666666" points="92,0 92,-60 186,-60 186,0 92,0"/>
</a>
</g>
</g>
<!-- Node2 -->
<g id="Node000002" class="node">
<title>Node2</title>
<g id="a_Node000002"><a xlink:href="structunilink_1_1config_1_1UdsClientConfig.html" target="_top" xlink:title="Configuration for UDS Client.">
<polygon fill="white" stroke="transparent" points="132,-167 0,-167 0,-107 132,-107 132,-167"/>
<text text-anchor="start" x="5" y="-155" font-family="Helvetica,sans-Serif" font-size="10.00">unilink::config::UdsClient</text>
<text text-anchor="start" x="50.5" y="-144" font-family="Helvetica,sans-Serif" font-size="10.00">Config</text>
<text text-anchor="start" x="64" y="-129" font-family="Helvetica,sans-Serif" font-size="10.00"> </text>
<text text-anchor="start" x="64" y="-114" font-family="Helvetica,sans-Serif" font-size="10.00"> </text>
<polygon fill="#666666" stroke="#666666" points="0,-139 0,-139 132,-139 132,-139 0,-139"/>
<polygon fill="#666666" stroke="#666666" points="0,-124 0,-124 132,-124 132,-124 0,-124"/>
<polygon fill="none" stroke="#666666" points="0,-107 0,-167 132,-167 132,-107 0,-107"/>
</a>
</g>
</g>
<!-- Node2&#45;&gt;Node1 -->
<g id="edge1_Node000001_Node000002" class="edge">
<title>Node2&#45;&gt;Node1</title>
<g id="a_edge1_Node000001_Node000002"><a xlink:title=" ">
<path fill="none" stroke="#63b8ff" d="M86.33,-106.75C94.24,-95.37 103.42,-82.17 111.88,-70"/>
<polygon fill="none" stroke="#63b8ff" points="111.92,-69.94 112.07,-62.73 118.77,-60.09 118.63,-67.3 111.92,-69.94"/>
</a>
</g>
<text text-anchor="middle" x="121" y="-81" font-family="Helvetica,sans-Serif" font-size="10.00" fill="grey"> +cfg_</text>
</g>
<!-- Node3 -->
<g id="Node000003" class="node">
<title>Node3</title>
<g id="a_Node000003"><a xlink:href="structunilink_1_1diagnostics_1_1RuntimeStatsCounters.html" target="_top" xlink:title=" ">
<polygon fill="white" stroke="transparent" points="276,-167 150,-167 150,-107 276,-107 276,-167"/>
<text text-anchor="start" x="155" y="-155" font-family="Helvetica,sans-Serif" font-size="10.00">unilink::diagnostics</text>
<text text-anchor="start" x="155" y="-144" font-family="Helvetica,sans-Serif" font-size="10.00">::RuntimeStatsCounters</text>
<text text-anchor="start" x="211" y="-129" font-family="Helvetica,sans-Serif" font-size="10.00"> </text>
<text text-anchor="start" x="211" y="-114" font-family="Helvetica,sans-Serif" font-size="10.00"> </text>
<polygon fill="#bfbfbf" stroke="#bfbfbf" points="150,-139 150,-139 276,-139 276,-139 150,-139"/>
<polygon fill="#bfbfbf" stroke="#bfbfbf" points="150,-124 150,-124 276,-124 276,-124 150,-124"/>
<polygon fill="none" stroke="#bfbfbf" points="150,-107 150,-167 276,-167 276,-107 150,-107"/>
</a>
</g>
</g>
<!-- Node3&#45;&gt;Node1 -->
<g id="edge2_Node000001_Node000003" class="edge">
<title>Node3&#45;&gt;Node1</title>
<g id="a_edge2_Node000001_Node000003"><a xlink:title=" ">
<path fill="none" stroke="#63b8ff" d="M192.39,-106.75C184.37,-95.37 175.06,-82.17 166.49,-70"/>
<polygon fill="none" stroke="#63b8ff" points="166.42,-69.9 159.69,-67.3 159.5,-60.09 166.23,-62.69 166.42,-69.9"/>
</a>
</g>
<text text-anchor="middle" x="198.5" y="-81" font-family="Helvetica,sans-Serif" font-size="10.00" fill="grey"> +stats_</text>
</g>
</g>
</svg>
</svg>

<style type='text/css'>
<![CDATA[
[data-mouse-over-selected='false'] { opacity: 0.7; }
[data-mouse-over-selected='true']  { opacity: 1.0; }
]]>
</style>
<script type="application/ecmascript"><![CDATA[
document.addEventListener('DOMContentLoaded', (event) => {
  highlightEdges();
  highlightAdjacentNodes();
});
]]></script>
</svg>
