<?xml version="1.0" encoding="UTF-8" standalone="no"?>
<!DOCTYPE svg PUBLIC "-//W3C//DTD SVG 1.1//EN"
 "http://www.w3.org/Graphics/SVG/1.1/DTD/svg11.dtd">
<!-- Generated by graphviz version 2.43.0 (0)
 -->
<!-- Title: unilink::transport::TcpServer::Impl Pages: 1 -->
<svg width="434pt" height="293pt"
 viewBox="0.00 0.00 434.00 293.00" xmlns="http://www.w3.org/2000/svg" xmlns:xlink="http://www.w3.org/1999/xlink">
<g id="graph0" class="graph" transform="scale(1 1) rotate(0) translate(4 289)">
<title>unilink::transport::TcpServer::Impl</title>
<!-- Node1 -->
<g id="Node000001" class="node">
<title>Node1</title>
<g id="a_Node000001"><a xlink:title=" ">
<polygon fill="#999999" stroke="transparent" points="263,-60 169,-60 169,0 263,0 263,-60"/>
<text text-anchor="start" x="174" y="-48" font-family="Helvetica,sans-Serif" font-size="10.00">unilink::transport</text>
<text text-anchor="start" x="175" y="-37" font-family="Helvetica,sans-Serif" font-size="10.00">::TcpServer::Impl</text>
<text text-anchor="start" x="214" y="-22" font-family="Helvetica,sans-Serif" font-size="10.00"> </text>
<text text-anchor="start" x="214" y="-7" font-family="Helvetica,sans-Serif" font-size="10.00"> </text>
<polygon fill="#666666" stroke="#666666" points="169,-32 169,-32 263,-32 263,-32 169,-32"/>
<polygon fill="#666666" stroke="#666666" points="169,-17 169,-17 263,-17 263,-17 169,-17"/>
<polygon fill="none" stroke="#666666" points="169,0 169,-60 263,-60 263,0 169,0"/>
</a>
</g>
</g>
<!-- Node2 -->
<g id="Node000002" class="node">
<title>Node2</title>
<g id="a_Node000002"><a xlink:href="structunilink_1_1config_1_1TcpServerConfig.html" target="_top" xlink:title=" ">
<polygon fill="white" stroke="transparent" points="132,-172.5 0,-172.5 0,-112.5 132,-112.5 132,-172.5"/>
<text text-anchor="start" x="5" y="-160.5" font-family="Helvetica,sans-Serif" font-size="10.00">unilink::config::TcpServer</text>
<text text-anchor="start" x="50.5" y="-149.5" font-family="Helvetica,sans-Serif" font-size="10.00">Config</text>
<text text-anchor="start" x="64" y="-134.5" font-family="Helvetica,sans-Serif" font-size="10.00"> </text>
<text text-anchor="start" x="64" y="-119.5" font-family="Helvetica,sans-Serif" font-size="10.00"> </text>
<polygon fill="#bfbfbf" stroke="#bfbfbf" points="0,-144.5 0,-144.5 132,-144.5 132,-144.5 0,-144.5"/>
<polygon fill="#bfbfbf" stroke="#bfbfbf" points="0,-129.5 0,-129.5 132,-129.5 132,-129.5 0,-129.5"/>
<polygon fill="none" stroke="#bfbfbf" points="0,-112.5 0,-172.5 132,-172.5 132,-112.5 0,-112.5"/>
</a>
</g>
</g>
<!-- Node2&#45;&gt;Node1 -->
<g id="edge1_Node000001_Node000002" class="edge">
<title>Node2&#45;&gt;Node1</title>
<g id="a_edge1_Node000001_Node000002"><a xlink:title=" ">
<path fill="none" stroke="#63b8ff" d="M105.41,-112.47C124.2,-98.63 146.86,-81.93 166.77,-67.27"/>
<polygon fill="none" stroke="#63b8ff" points="166.93,-67.15 169.39,-60.37 176.59,-60.03 174.13,-66.81 166.93,-67.15"/>
</a>
</g>
<text text-anchor="middle" x="166" y="-81" font-family="Helvetica,sans-Serif" font-size="10.00" fill="grey"> +cfg_</text>
</g>
<!-- Node3 -->
<g id="Node000003" class="node">
<title>Node3</title>
<g id="a_Node000003"><a xlink:href="classunilink_1_1concurrency_1_1ThreadSafeState.html" target="_top" xlink:title=" ">
<polygon fill="white" stroke="transparent" points="282,-178 150,-178 150,-107 282,-107 282,-178"/>
<text text-anchor="start" x="155" y="-165.5" font-family="Helvetica,sans-Serif" font-size="10.00">unilink::concurrency</text>
<text text-anchor="start" x="155" y="-154.5" font-family="Helvetica,sans-Serif" font-size="10.00">::ThreadSafeState&lt; base</text>
<text text-anchor="start" x="184" y="-143.5" font-family="Helvetica,sans-Serif" font-size="10.00">::LinkState &gt;</text>
<text text-anchor="start" x="214" y="-128.5" font-family="Helvetica,sans-Serif" font-size="10.00"> </text>
<text text-anchor="start" x="214" y="-113.5" font-family="Helvetica,sans-Serif" font-size="10.00"> </text>
<polygon fill="#666666" stroke="#666666" points="150,-138.5 150,-138.5 282,-138.5 282,-138.5 150,-138.5"/>
<polygon fill="#666666" stroke="#666666" points="150,-123.5 150,-123.5 282,-123.5 282,-123.5 150,-123.5"/>
<polygon fill="none" stroke="#666666" points="150,-107 150,-178 282,-178 282,-107 150,-107"/>
</a>
</g>
</g>
<!-- Node3&#45;&gt;Node1 -->
<g id="edge2_Node000001_Node000003" class="edge">
<title>Node3&#45;&gt;Node1</title>
<g id="a_edge2_Node000001_Node000003"><a xlink:title=" ">
<path fill="none" stroke="#63b8ff" d="M216,-106.84C216,-95.99 216,-83.9 216,-72.62"/>
<polygon fill="none" stroke="#63b8ff" points="216,-72.33 212,-66.33 216,-60.33 220,-66.33 216,-72.33"/>
</a>
</g>
<text text-anchor="middle" x="237" y="-81" font-family="Helvetica,sans-Serif" font-size="10.00" fill="grey"> +state_</text>
</g>
<!-- Node4 -->
<g id="Node000004" class="node">
<title>Node4</title>
<g id="a_Node000004"><a xlink:href="classunilink_1_1concurrency_1_1ThreadSafeState.html" target="_top" xlink:title="Thread&#45;safe state management class.">
<polygon fill="white" stroke="transparent" points="300,-285 132,-285 132,-225 300,-225 300,-285"/>
<text text-anchor="start" x="137" y="-273" font-family="Helvetica,sans-Serif" font-size="10.00">unilink::concurrency</text>
<text text-anchor="start" x="137" y="-262" font-family="Helvetica,sans-Serif" font-size="10.00">::ThreadSafeState&lt; StateType &gt;</text>
<text text-anchor="start" x="214" y="-247" font-family="Helvetica,sans-Serif" font-size="10.00"> </text>
<text text-anchor="start" x="214" y="-232" font-family="Helvetica,sans-Serif" font-size="10.00"> </text>
<polygon fill="#666666" stroke="#666666" points="132,-257 132,-257 300,-257 300,-257 132,-257"/>
<polygon fill="#666666" stroke="#666666" points="132,-242 132,-242 300,-242 300,-242 132,-242"/>
<polygon fill="none" stroke="#666666" points="132,-225 132,-285 300,-285 300,-225 132,-225"/>
</a>
</g>
</g>
<!-- Node4&#45;&gt;Node3 -->
<g id="edge3_Node000003_Node000004" class="edge">
<title>Node4&#45;&gt;Node3</title>
<g id="a_edge3_Node000003_Node000004"><a xlink:title=" ">
<path fill="none" stroke="orange" d="M216,-214.82C216,-202.89 216,-189.86 216,-178.24"/>
<polygon fill="orange" stroke="orange" points="212.5,-214.97 216,-224.97 219.5,-214.97 212.5,-214.97"/>
</a>
</g>
<text text-anchor="middle" x="266.5" y="-199" font-family="Helvetica,sans-Serif" font-size="10.00" fill="grey"> &lt; base::LinkState &gt;</text>
</g>
<!-- Node5 -->
<g id="Node000005" class="node">
<title>Node5</title>
<g id="a_Node000005"><a xlink:href="structunilink_1_1diagnostics_1_1RuntimeStatsCounters.html" target="_top" xlink:title=" ">
<polygon fill="white" stroke="transparent" points="426,-172.5 300,-172.5 300,-112.5 426,-112.5 426,-172.5"/>
<text text-anchor="start" x="305" y="-160.5" font-family="Helvetica,sans-Serif" font-size="10.00">unilink::diagnostics</text>
<text text-anchor="start" x="305" y="-149.5" font-family="Helvetica,sans-Serif" font-size="10.00">::RuntimeStatsCounters</text>
<text text-anchor="start" x="361" y="-134.5" font-family="Helvetica,sans-Serif" font-size="10.00"> </text>
<text text-anchor="start" x="361" y="-119.5" font-family="Helvetica,sans-Serif" font-size="10.00"> </text>
<polygon fill="#bfbfbf" stroke="#bfbfbf" points="300,-144.5 300,-144.5 426,-144.5 426,-144.5 300,-144.5"/>
<polygon fill="#bfbfbf" stroke="#bfbfbf" points="300,-129.5 300,-129.5 426,-129.5 426,-129.5 300,-129.5"/>
<polygon fill="none" stroke="#bfbfbf" points="300,-112.5 300,-172.5 426,-172.5 426,-112.5 300,-112.5"/>
</a>
</g>
</g>
<!-- Node5&#45;&gt;Node1 -->
<g id="edge4_Node000001_Node000005" class="edge">
<title>Node5&#45;&gt;Node1</title>
<g id="a_edge4_Node000001_Node000005"><a xlink:title=" ">
<path fill="none" stroke="#63b8ff" d="M324.38,-112.47C305.97,-98.63 283.75,-81.93 264.25,-67.27"/>
<polygon fill="none" stroke="#63b8ff" points="264.21,-67.24 257.01,-66.83 254.62,-60.03 261.82,-60.44 264.21,-67.24"/>
</a>
</g>
<text text-anchor="middle" x="310.5" y="-81" font-family="Helvetica,sans-Serif" font-size="10.00" fill="grey"> +stats_</text>
</g>
</g>
</svg>
