<?xml version="1.0" encoding="UTF-8" standalone="no"?>
<!DOCTYPE svg PUBLIC "-//W3C//DTD SVG 1.1//EN"
 "http://www.w3.org/Graphics/SVG/1.1/DTD/svg11.dtd">
<!-- Generated by graphviz version 2.43.0 (0)
 -->
<!-- Title: unilink::transport::Serial::Impl Pages: 1 -->
<svg width="296pt" height="175pt"
 viewBox="0.00 0.00 295.50 175.00" xmlns="http://www.w3.org/2000/svg" xmlns:xlink="http://www.w3.org/1999/xlink">

<svg id="main" version="1.1" xmlns="http://www.w3.org/2000/svg" xmlns:xlink="http://www.w3.org/1999/xlink" xml:space="preserve" onload="init(evt)">
<style type="text/css"><![CDATA[
.node, .edge {opacity: 0.7;}
.node.selected, .edge.selected {opacity: 1;}
.edge:hover path { stroke: red; }
.edge:hover polygon { stroke: red; fill: red; }
]]></style>
<script type="application/ecmascript" xlink:href="svg.min.js"/>
<svg id="graph" class="graph">
<g id="graph0" class="graph" transform="scale(1 1) rotate(0) translate(4 171)">
<title>unilink::transport::Serial::Impl</title>
<!-- Node1 -->
<g id="Node000001" class="node">
<title>Node1</title>
<g id="a_Node000001"><a xlink:title=" ">
<polygon fill="#999999" stroke="transparent" points="194.5,-60 100.5,-60 100.5,0 194.5,0 194.5,-60"/>
<text text-anchor="start" x="105.5" y="-48" font-family="Helvetica,sans-Serif" font-size="10.00">unilink::transport</text>
<text text-anchor="start" x="116.5" y="-37" font-family="Helvetica,sans-Serif" font-size="10.00">::Serial::Impl</text>
<text text-anchor="start" x="145.5" y="-22" font-family="Helvetica,sans-Serif" font-size="10.00"> </text>
<text text-anchor="start" x="145.5" y="-7" font-family="Helvetica,sans-Serif" font-size="10.00"> </text>
<polygon fill="#666666" stroke="#666666" points="100.5,-32 100.5,-32 194.5,-32 194.5,-32 100.5,-32"/>
<polygon fill="#666666" stroke="#666666" points="100.5,-17 100.5,-17 194.5,-17 194.5,-17 100.5,-17"/>
<polygon fill="none" stroke="#666666" points="100.5,0 100.5,-60 194.5,-60 194.5,0 100.5,0"/>
</a>
</g>
</g>
<!-- Node2 -->
<g id="Node000002" class="node">
<title>Node2</title>
<g id="a_Node000002"><a xlink:href="structunilink_1_1config_1_1SerialConfig.html" target="_top" xlink:title=" ">
<polygon fill="white" stroke="transparent" points="143,-161.5 0,-161.5 0,-112.5 143,-112.5 143,-161.5"/>
<text text-anchor="start" x="5.5" y="-149" font-family="Helvetica,sans-Serif" font-size="10.00">unilink::config::SerialConfig</text>
<text text-anchor="start" x="70" y="-134" font-family="Helvetica,sans-Serif" font-size="10.00"> </text>
<text text-anchor="start" x="70" y="-119" font-family="Helvetica,sans-Serif" font-size="10.00"> </text>
<polygon fill="#bfbfbf" stroke="#bfbfbf" points="0.5,-144 0.5,-144 143.5,-144 143.5,-144 0.5,-144"/>
<polygon fill="#bfbfbf" stroke="#bfbfbf" points="0.5,-129 0.5,-129 143.5,-129 143.5,-129 0.5,-129"/>
<polygon fill="none" stroke="#bfbfbf" points="0,-112.5 0,-161.5 143,-161.5 143,-112.5 0,-112.5"/>
</a>
</g>
</g>
<!-- Node2&#45;&gt;Node1 -->
<g id="edge1_Node000001_Node000002" class="edge">
<title>Node2&#45;&gt;Node1</title>
<g id="a_edge1_Node000001_Node000002"><a xlink:title=" ">
<path fill="none" stroke="#63b8ff" d="M88.56,-112.44C97.57,-99.98 108.87,-84.36 119.16,-70.15"/>
<polygon fill="none" stroke="#63b8ff" points="119.39,-69.83 119.67,-62.62 126.43,-60.11 126.15,-67.31 119.39,-69.83"/>
</a>
</g>
<text text-anchor="middle" x="128.5" y="-81" font-family="Helvetica,sans-Serif" font-size="10.00" fill="grey"> +cfg_</text>
</g>
<!-- Node3 -->
<g id="Node000003" class="node">
<title>Node3</title>
<g id="a_Node000003"><a xlink:href="structunilink_1_1diagnostics_1_1RuntimeStatsCounters.html" target="_top" xlink:title=" ">
<polygon fill="white" stroke="transparent" points="287.5,-167 161.5,-167 161.5,-107 287.5,-107 287.5,-167"/>
<text text-anchor="start" x="166.5" y="-155" font-family="Helvetica,sans-Serif" font-size="10.00">unilink::diagnostics</text>
<text text-anchor="start" x="166.5" y="-144" font-family="Helvetica,sans-Serif" font-size="10.00">::RuntimeStatsCounters</text>
<text text-anchor="start" x="222.5" y="-129" font-family="Helvetica,sans-Serif" font-size="10.00"> </text>
<text text-anchor="start" x="222.5" y="-114" font-family="Helvetica,sans-Serif" font-size="10.00"> </text>
<polygon fill="#bfbfbf" stroke="#bfbfbf" points="161.5,-139 161.5,-139 287.5,-139 287.5,-139 161.5,-139"/>
<polygon fill="#bfbfbf" stroke="#bfbfbf" points="161.5,-124 161.5,-124 287.5,-124 287.5,-124 161.5,-124"/>
<polygon fill="none" stroke="#bfbfbf" points="161.5,-107 161.5,-167 287.5,-167 287.5,-107 161.5,-107"/>
</a>
</g>
</g>
<!-- Node3&#45;&gt;Node1 -->
<g id="edge2_Node000001_Node000003" class="edge">
<title>Node3&#45;&gt;Node1</title>
<g id="a_edge2_Node000001_Node000003"><a xlink:title=" ">
<path fill="none" stroke="#63b8ff" d="M203.05,-106.75C194.71,-95.37 185.03,-82.17 176.1,-70"/>
<polygon fill="none" stroke="#63b8ff" points="175.93,-69.77 169.16,-67.3 168.83,-60.09 175.61,-62.56 175.93,-69.77"/>
</a>
</g>
<text text-anchor="middle" x="208" y="-81" font-family="Helvetica,sans-Serif" font-size="10.00" fill="grey"> +stats_</text>
</g>
</g>
</svg>
</svg>

<style type='text/css'>
<![CDATA[
[data-mouse-over-selected='false'] { opacity: 0.7; }
[data-mouse-over-selected='true']  { opacity: 1.0; }
]]>
</style>
<script type="application/ecmascript"><![CDATA[
document.addEventListener('DOMContentLoaded', (event) => {
  highlightEdges();
  highlightAdjacentNodes();
});
]]></script>
</svg>
