<?xml version="1.0" encoding="UTF-8" standalone="no"?>
<svg
   viewBox="0 0 620 160"
   role="img"
   aria-labelledby="title desc"
   version="1.1"
   id="svg12"
   xmlns="http://www.w3.org/2000/svg"
   xmlns:svg="http://www.w3.org/2000/svg">
  <defs
     id="defs16" />
  <title
     id="title">Wirestead monochrome horizontal logo</title>
  <desc
     id="desc">Wirestead symbol and wordmark in one color.</desc>
  <g
     transform="translate(24,32)"
     fill="#071426"
     id="g8">
    <path
       d="m 12,8 h 46.5 c 2.2,0 4.3,0.9 5.8,2.4 l 26.9,26.9 a 6.6,6.6 0 0 1 0,9.4 L 64.3,73.6 a 8.1,8.1 0 0 1 -11.5,0 l -6.1,-6.1 a 8.1,8.1 0 0 1 0,-11.5 l 9.9,-9.9 H 12 a 8,8 0 0 1 -8,-8 V 16 a 8,8 0 0 1 8,-8 z"
       id="path4" />
    <path
       d="M 84,88 H 37.5 c -2.2,0 -4.3,-0.9 -5.8,-2.4 L 4.8,58.7 a 6.6,6.6 0 0 1 0,-9.4 L 31.7,22.4 a 8.1,8.1 0 0 1 11.5,0 l 6.1,6.1 a 8.1,8.1 0 0 1 0,11.5 l -9.9,9.9 H 84 a 8,8 0 0 1 8,8 V 80 a 8,8 0 0 1 -8,8 z"
       id="path6" />
  </g>
  <g
     aria-label="wirestead"
     id="text10"
     style="font-weight:700;font-size:68px;font-family:'Nimbus Sans', Arial, sans-serif;letter-spacing:-2.1;fill:#071426">
    <path
       d="m 181.684,106 10.404,-36.72 h -9.86 l -5.576,25.704 -5.508,-25.704 h -9.52 L 156.048,94.984 150.2,69.28 h -9.86 L 150.676,106 h 9.792 l 5.848,-25.908 5.508,25.908 z"
       id="path18" />
    <path
       d="m 204.81203,69.28 h -9.52 V 106 h 9.52 z m 0,-12.852 h -9.52 v 8.5 h 9.52 z"
       id="path20" />
    <path
       d="M 211.82402,69.28 V 106 h 9.52 V 86.484 c 0,-5.576 2.788,-8.364 8.364,-8.364 1.02,0 1.7,0.068 2.992,0.272 v -9.656 c -0.544,-0.068 -0.748,-0.068 -1.156,-0.068 -4.352,0 -8.092,2.856 -10.2,7.82 V 69.28 Z"
       id="path22" />
    <path
       d="m 267.79599,90.632 c 0.068,-0.816 0.068,-1.156 0.068,-1.632 0,-3.672 -0.544,-7.072 -1.428,-9.656 -2.448,-6.664 -8.364,-10.676 -15.776,-10.676 -10.54,0 -17,7.616 -17,19.924 0,11.764 6.392,18.972 16.796,18.972 8.228,0 14.892,-4.624 17,-11.9 h -9.384 c -1.156,2.924 -3.808,4.624 -7.276,4.624 -2.72,0 -4.896,-1.156 -6.256,-3.196 -0.884,-1.36 -1.224,-2.992 -1.36,-6.46 z m -24.48,-6.324 c 0.612,-5.644 2.992,-8.364 7.208,-8.364 4.352,0 6.936,2.924 7.412,8.364 z"
       id="path24" />
    <path
       d="m 302.48397,81.112 c -0.136,-7.752 -6.12,-12.444 -15.98,-12.444 -9.316,0 -15.096,4.692 -15.096,12.24 0,2.448 0.748,4.556 2.04,5.984 1.292,1.292 2.448,1.904 5.984,3.06 l 11.356,3.536 c 2.38,0.748 3.196,1.496 3.196,2.992 0,2.244 -2.652,3.604 -7.072,3.604 -2.516,0 -4.42,-0.408 -5.644,-1.292 -1.02,-0.748 -1.428,-1.496 -1.836,-3.468 h -9.316 c 0.272,8.092 6.188,12.24 17.34,12.24 5.1,0 8.976,-1.088 11.696,-3.264 2.72,-2.176 4.352,-5.576 4.352,-9.18 0,-4.76 -2.38,-7.82 -7.208,-9.248 l -12.036,-3.468 c -2.652,-0.816 -3.332,-1.36 -3.332,-2.856 0,-2.04 2.176,-3.4 5.508,-3.4 4.556,0 6.8,1.632 6.868,4.964 z"
       id="path26" />
    <path
       d="m 324.25198,70.028 h -5.304 v -9.86 h -9.52 v 9.86 h -4.692 v 6.324 h 4.692 v 22.576 c 0,5.78 3.06,8.636 9.316,8.636 2.176,0 3.74,-0.204 5.508,-0.748 v -6.664 c -0.952,0.136 -1.428,0.204 -2.176,0.204 -2.516,0 -3.128,-0.748 -3.128,-4.012 V 76.352 h 5.304 z"
       id="path28" />
    <path
       d="m 359.68802,90.632 c 0.068,-0.816 0.068,-1.156 0.068,-1.632 0,-3.672 -0.544,-7.072 -1.428,-9.656 -2.448,-6.664 -8.364,-10.676 -15.776,-10.676 -10.54,0 -17,7.616 -17,19.924 0,11.764 6.392,18.972 16.796,18.972 8.228,0 14.892,-4.624 17,-11.9 h -9.384 c -1.156,2.924 -3.808,4.624 -7.276,4.624 -2.72,0 -4.896,-1.156 -6.256,-3.196 -0.884,-1.36 -1.224,-2.992 -1.36,-6.46 z m -24.48,-6.324 c 0.612,-5.644 2.992,-8.364 7.208,-8.364 4.352,0 6.936,2.924 7.412,8.364 z"
       id="path30" />
    <path
       d="m 395.73594,104.844 c -1.632,-1.564 -2.176,-2.652 -2.176,-4.488 v -20.4 c 0,-7.48 -5.1,-11.288 -15.028,-11.288 -9.928,0 -15.096,4.216 -15.708,12.716 h 9.18 c 0.476,-3.808 2.04,-5.032 6.732,-5.032 3.672,0 5.508,1.224 5.508,3.672 0,1.224 -0.612,2.244 -1.632,2.856 -1.292,0.68 -1.292,0.68 -5.984,1.428 l -3.808,0.68 c -7.276,1.224 -10.812,4.964 -10.812,11.56 0,6.596 4.42,11.016 11.152,11.016 4.08,0 7.752,-1.7 11.152,-5.236 0,1.904 0.204,2.584 1.088,3.672 h 10.336 z m -11.492,-13.6 c 0,5.508 -2.72,8.636 -7.548,8.636 -3.196,0 -5.168,-1.7 -5.168,-4.42 0,-2.856 1.496,-4.216 5.44,-5.032 l 3.264,-0.612 c 2.516,-0.476 2.924,-0.612 4.012,-1.156 z"
       id="path32" />
    <path
       d="m 423.35192,106 h 9.52 V 56.428 h -9.52 V 74.04 c -2.38,-3.672 -5.508,-5.372 -10.132,-5.372 -8.772,0 -15.436,8.432 -15.436,19.516 0,4.964 1.496,9.996 3.944,13.532 2.516,3.604 7.004,5.848 11.492,5.848 4.624,0 7.752,-1.632 10.132,-5.304 z m -8.024,-29.376 c 4.828,0 8.024,4.624 8.024,11.696 0,6.664 -3.264,11.288 -8.024,11.288 -4.76,0 -8.024,-4.692 -8.024,-11.424 0,-6.868 3.264,-11.56 8.024,-11.56 z"
       id="path34" />
  </g>
</svg>
